<svg class="w-full" width="756" height="619" viewBox="0 0 756 619" fill="none" xmlns="http://www.w3.org/2000/svg">
<path d="M6.20004 421.546C6.20004 421.546 -35.7226 212.473 118.499 264.188C272.721 315.908 340.101 172.854 340.101 172.854C340.101 172.854 456.892 -140.758 570.686 79.3222" stroke="url(#paint0_linear_413_812)" stroke-width="2" stroke-miterlimit="10"/>
<path d="M17.0458 433.093C17.0458 433.093 -24.8769 224.02 129.345 275.734C283.567 327.455 350.946 184.4 350.946 184.4C350.946 184.4 467.737 -129.212 581.532 90.8684" stroke="url(#paint1_linear_413_812)" stroke-width="2" stroke-miterlimit="10"/>
<path d="M27.8836 444.639C27.8836 444.639 -14.039 235.566 140.183 287.281C294.405 339.001 361.784 195.946 361.784 195.946C361.784 195.946 478.575 -117.666 592.37 102.415" stroke="url(#paint2_linear_413_812)" stroke-width="2" stroke-miterlimit="10"/>
<path d="M38.7293 456.185C38.7293 456.185 -3.19329 247.112 151.029 298.827C305.25 350.547 372.63 207.493 372.63 207.493C372.63 207.493 489.421 -106.119 603.215 113.961" stroke="url(#paint3_linear_413_812)" stroke-width="2" stroke-miterlimit="10"/>
<path d="M49.5672 467.731C49.5672 467.731 7.64457 258.658 161.866 310.373C316.088 362.094 383.468 219.039 383.468 219.039C383.468 219.039 500.259 -94.5732 614.053 125.507" stroke="url(#paint4_linear_413_812)" stroke-width="2" stroke-miterlimit="10"/>
<path d="M60.411 479.278C60.411 479.278 18.4883 270.205 172.71 321.92C326.932 373.64 394.312 230.585 394.312 230.585C394.312 230.585 511.103 -83.0269 624.897 137.053" stroke="url(#paint5_linear_413_812)" stroke-width="2" stroke-miterlimit="10"/>
<path d="M71.2508 490.824C71.2508 490.824 29.3282 281.751 183.55 333.466C337.772 385.186 405.151 242.131 405.151 242.131C405.151 242.131 521.943 -71.4807 635.737 148.6" stroke="url(#paint6_linear_413_812)" stroke-width="2" stroke-miterlimit="10"/>
<path d="M82.0965 502.37C82.0965 502.37 40.1739 293.297 194.396 345.012C348.618 396.732 415.997 253.678 415.997 253.678C415.997 253.678 532.788 -59.9344 646.582 160.146" stroke="url(#paint7_linear_413_812)" stroke-width="2" stroke-miterlimit="10"/>
<path d="M92.9344 513.916C92.9344 513.916 51.0118 304.843 205.234 356.558C359.455 408.273 426.835 265.224 426.835 265.224C426.835 265.224 543.626 -48.3881 657.42 171.692" stroke="url(#paint8_linear_413_812)" stroke-width="2" stroke-miterlimit="10"/>
<path d="M103.78 525.463C103.78 525.463 61.8575 316.39 216.079 368.105C370.301 419.82 437.681 276.77 437.681 276.77C437.681 276.77 554.472 -36.8419 668.266 183.239" stroke="url(#paint9_linear_413_812)" stroke-width="2" stroke-miterlimit="10"/>
<path d="M114.62 537.009C114.62 537.009 72.6973 327.936 226.919 379.651C381.141 431.371 448.521 288.316 448.521 288.316C448.521 288.316 565.312 -25.2956 679.106 194.785" stroke="url(#paint10_linear_413_812)" stroke-width="2" stroke-miterlimit="10"/>
<path d="M125.464 548.555C125.464 548.555 83.5411 339.482 237.763 391.197C391.985 442.912 459.364 299.863 459.364 299.863C459.364 299.863 576.155 -13.7493 689.95 206.331" stroke="url(#paint11_linear_413_812)" stroke-width="2" stroke-miterlimit="10"/>
<path d="M136.302 560.101C136.302 560.101 94.379 351.028 248.601 402.743C402.823 454.464 470.202 311.409 470.202 311.409C470.202 311.409 586.993 -2.20307 700.787 217.877" stroke="url(#paint12_linear_413_812)" stroke-width="2" stroke-miterlimit="10"/>
<path d="M147.147 571.648C147.147 571.648 105.225 362.575 259.447 414.29C413.668 466.01 481.048 322.955 481.048 322.955C481.048 322.955 597.839 9.3432 711.633 229.424" stroke="url(#paint13_linear_413_812)" stroke-width="2" stroke-miterlimit="10"/>
<path d="M157.985 583.194C157.985 583.194 116.063 374.121 270.284 425.836C424.506 477.556 491.886 334.502 491.886 334.502C491.886 334.502 608.677 20.8895 722.471 240.97" stroke="url(#paint14_linear_413_812)" stroke-width="2" stroke-miterlimit="10"/>
<path d="M168.831 594.74C168.831 594.74 126.908 385.667 281.13 437.382C435.352 489.102 502.732 346.048 502.732 346.048C502.732 346.048 619.523 32.4357 733.317 252.516" stroke="url(#paint15_linear_413_812)" stroke-width="2" stroke-miterlimit="10"/>
<path d="M179.671 606.286C179.671 606.286 137.748 397.214 291.97 448.928C446.192 500.649 513.571 357.594 513.571 357.594C513.571 357.594 630.362 43.982 744.157 264.062" stroke="url(#paint16_linear_413_812)" stroke-width="2" stroke-miterlimit="10"/>
<path d="M190.514 617.833C190.514 617.833 148.592 408.76 302.814 460.475C457.036 512.195 524.415 369.14 524.415 369.14C524.415 369.14 641.206 55.5283 755 275.609" stroke="url(#paint17_linear_413_812)" stroke-width="2" stroke-miterlimit="10"/>
<defs>
<linearGradient id="paint0_linear_413_812" x1="285.843" y1="1" x2="285.843" y2="421.546" gradientUnits="userSpaceOnUse">
<stop stop-color="#1E8ED2" stop-opacity="0.2"/>
<stop offset="1" stop-color="#0089DC"/>
</linearGradient>
<linearGradient id="paint1_linear_413_812" x1="296.689" y1="12.5463" x2="296.689" y2="433.093" gradientUnits="userSpaceOnUse">
<stop stop-color="#1E8ED2" stop-opacity="0.2"/>
<stop offset="1" stop-color="#0089DC"/>
</linearGradient>
<linearGradient id="paint2_linear_413_812" x1="307.527" y1="24.0925" x2="307.527" y2="444.639" gradientUnits="userSpaceOnUse">
<stop stop-color="#1E8ED2" stop-opacity="0.2"/>
<stop offset="1" stop-color="#0089DC"/>
</linearGradient>
<linearGradient id="paint3_linear_413_812" x1="318.372" y1="35.6388" x2="318.372" y2="456.185" gradientUnits="userSpaceOnUse">
<stop stop-color="#1E8ED2" stop-opacity="0.2"/>
<stop offset="1" stop-color="#0089DC"/>
</linearGradient>
<linearGradient id="paint4_linear_413_812" x1="329.21" y1="47.1851" x2="329.21" y2="467.731" gradientUnits="userSpaceOnUse">
<stop stop-color="#1E8ED2" stop-opacity="0.2"/>
<stop offset="1" stop-color="#0089DC"/>
</linearGradient>
<linearGradient id="paint5_linear_413_812" x1="340.054" y1="58.7313" x2="340.054" y2="479.278" gradientUnits="userSpaceOnUse">
<stop stop-color="#1E8ED2" stop-opacity="0.2"/>
<stop offset="1" stop-color="#0089DC"/>
</linearGradient>
<linearGradient id="paint6_linear_413_812" x1="350.894" y1="70.2776" x2="350.894" y2="490.824" gradientUnits="userSpaceOnUse">
<stop stop-color="#1E8ED2" stop-opacity="0.2"/>
<stop offset="1" stop-color="#0089DC"/>
</linearGradient>
<linearGradient id="paint7_linear_413_812" x1="361.739" y1="81.8239" x2="361.739" y2="502.37" gradientUnits="userSpaceOnUse">
<stop stop-color="#1E8ED2" stop-opacity="0.2"/>
<stop offset="1" stop-color="#0089DC"/>
</linearGradient>
<linearGradient id="paint8_linear_413_812" x1="372.577" y1="93.3701" x2="372.577" y2="513.916" gradientUnits="userSpaceOnUse">
<stop stop-color="#1E8ED2" stop-opacity="0.2"/>
<stop offset="1" stop-color="#0089DC"/>
</linearGradient>
<linearGradient id="paint9_linear_413_812" x1="383.423" y1="104.916" x2="383.423" y2="525.463" gradientUnits="userSpaceOnUse">
<stop stop-color="#1E8ED2" stop-opacity="0.2"/>
<stop offset="1" stop-color="#0089DC"/>
</linearGradient>
<linearGradient id="paint10_linear_413_812" x1="394.263" y1="116.463" x2="394.263" y2="537.009" gradientUnits="userSpaceOnUse">
<stop stop-color="#1E8ED2" stop-opacity="0.2"/>
<stop offset="1" stop-color="#0089DC"/>
</linearGradient>
<linearGradient id="paint11_linear_413_812" x1="405.107" y1="128.009" x2="405.107" y2="548.555" gradientUnits="userSpaceOnUse">
<stop stop-color="#1E8ED2" stop-opacity="0.2"/>
<stop offset="1" stop-color="#0089DC"/>
</linearGradient>
<linearGradient id="paint12_linear_413_812" x1="415.945" y1="139.555" x2="415.945" y2="560.101" gradientUnits="userSpaceOnUse">
<stop stop-color="#1E8ED2" stop-opacity="0.2"/>
<stop offset="1" stop-color="#0089DC"/>
</linearGradient>
<linearGradient id="paint13_linear_413_812" x1="426.79" y1="151.101" x2="426.79" y2="571.648" gradientUnits="userSpaceOnUse">
<stop stop-color="#1E8ED2" stop-opacity="0.2"/>
<stop offset="1" stop-color="#0089DC"/>
</linearGradient>
<linearGradient id="paint14_linear_413_812" x1="437.628" y1="162.648" x2="437.628" y2="583.194" gradientUnits="userSpaceOnUse">
<stop stop-color="#1E8ED2" stop-opacity="0.2"/>
<stop offset="1" stop-color="#0089DC"/>
</linearGradient>
<linearGradient id="paint15_linear_413_812" x1="448.474" y1="174.194" x2="448.474" y2="594.74" gradientUnits="userSpaceOnUse">
<stop stop-color="#1E8ED2" stop-opacity="0.2"/>
<stop offset="1" stop-color="#0089DC"/>
</linearGradient>
<linearGradient id="paint16_linear_413_812" x1="459.314" y1="185.74" x2="459.314" y2="606.286" gradientUnits="userSpaceOnUse">
<stop stop-color="#1E8ED2" stop-opacity="0.2"/>
<stop offset="1" stop-color="#0089DC"/>
</linearGradient>
<linearGradient id="paint17_linear_413_812" x1="470.157" y1="197.286" x2="470.157" y2="617.833" gradientUnits="userSpaceOnUse">
<stop stop-color="#1E8ED2" stop-opacity="0.2"/>
<stop offset="1" stop-color="#0089DC"/>
</linearGradient>
</defs>
</svg>
