<svg width="359" height="347" viewBox="0 0 359 347" fill="none" xmlns="http://www.w3.org/2000/svg">
<path d="M327.383 331.968C326.999 331.986 326.62 331.885 326.295 331.68C325.971 331.475 325.718 331.174 325.569 330.82C325.421 330.466 325.386 330.075 325.467 329.7C325.549 329.325 325.744 328.984 326.026 328.723L326.154 328.213C326.137 328.172 326.12 328.131 326.103 328.09C325.717 327.178 325.069 326.4 324.242 325.854C323.415 325.308 322.445 325.019 321.454 325.022C320.463 325.026 319.495 325.322 318.672 325.874C317.849 326.426 317.207 327.209 316.828 328.125C315.311 331.779 313.379 335.439 312.904 339.302C312.694 341.01 312.782 342.741 313.165 344.418C309.601 336.646 307.751 328.198 307.739 319.647C307.739 317.501 307.858 315.357 308.096 313.225C308.294 311.477 308.567 309.741 308.917 308.018C310.827 298.669 314.927 289.905 320.882 282.448C323.763 280.875 326.094 278.457 327.559 275.52C328.09 274.464 328.465 273.336 328.673 272.173C328.348 272.215 327.447 267.264 327.693 266.961C327.24 266.273 326.429 265.931 325.934 265.26C323.473 261.924 320.083 262.507 318.313 267.041C314.532 268.949 314.495 272.113 316.815 275.157C318.291 277.094 318.494 279.714 319.789 281.787C319.656 281.957 319.517 282.123 319.384 282.293C316.949 285.425 314.826 288.788 313.046 292.334C313.479 288.362 312.962 284.343 311.539 280.609C310.097 277.129 307.393 274.199 305.012 271.19C302.152 267.577 296.288 269.154 295.784 273.734C295.779 273.779 295.774 273.823 295.77 273.867C296.123 274.067 296.469 274.279 296.808 274.503C297.234 274.787 297.563 275.193 297.754 275.668C297.945 276.143 297.988 276.664 297.877 277.164C297.766 277.664 297.507 278.118 297.134 278.468C296.76 278.818 296.29 279.047 295.784 279.125L295.732 279.133C295.858 280.408 296.081 281.671 296.398 282.912C293.344 294.724 299.938 299.026 309.354 299.219C309.562 299.326 309.764 299.433 309.972 299.534C308.184 304.601 307.063 309.878 306.636 315.234C306.395 318.394 306.409 321.568 306.679 324.726L306.663 324.614C305.981 321.103 304.108 317.935 301.36 315.645C297.279 312.293 291.514 311.058 287.111 308.364C286.644 308.063 286.1 307.903 285.544 307.901C284.988 307.9 284.443 308.058 283.973 308.356C283.504 308.654 283.13 309.08 282.895 309.584C282.66 310.088 282.573 310.648 282.646 311.2C282.652 311.239 282.658 311.278 282.664 311.317C283.321 311.585 283.96 311.892 284.578 312.239C284.931 312.439 285.278 312.651 285.616 312.874C286.042 313.159 286.371 313.565 286.562 314.04C286.753 314.515 286.796 315.036 286.685 315.536C286.574 316.035 286.315 316.49 285.942 316.84C285.568 317.19 285.098 317.419 284.592 317.497L284.54 317.505C284.503 317.51 284.471 317.515 284.434 317.521C285.555 320.198 287.129 322.662 289.086 324.806C290.996 335.118 299.199 336.096 307.974 333.093H307.979C308.942 337.277 310.337 341.349 312.141 345.244H327.01C327.064 345.079 327.112 344.908 327.16 344.743C325.783 344.83 324.402 344.747 323.045 344.498C324.149 343.144 325.252 341.78 326.355 340.426C326.38 340.401 326.403 340.374 326.424 340.346C326.984 339.654 327.549 338.966 328.108 338.273L328.109 338.273C328.138 336.149 327.894 334.03 327.383 331.968Z" fill="#F2F2F2"/>
<path d="M302.607 199.748C306.548 185.44 313.899 173.254 325.767 163.879C326.237 163.153 326.975 162.644 327.82 162.462C328.665 162.28 329.547 162.44 330.274 162.908L357.363 180.399C358.089 180.869 358.598 181.607 358.78 182.452C358.962 183.297 358.801 184.179 358.333 184.906L335.173 220.775C334.704 221.501 333.966 222.01 333.121 222.192C332.276 222.374 331.393 222.213 330.667 221.745L303.578 204.255C302.852 203.785 302.342 203.047 302.161 202.202C301.979 201.357 302.139 200.475 302.607 199.748Z" fill="#F2F2F2"/>
<path d="M311.68 190.256C312.696 182.696 318.95 174.968 326.57 167.196C327.01 166.516 327.701 166.039 328.492 165.868C329.283 165.698 330.11 165.849 330.79 166.287L354.071 181.319C354.751 181.759 355.228 182.45 355.398 183.241C355.569 184.032 355.418 184.859 354.98 185.539L334.371 217.458C333.931 218.138 333.24 218.615 332.449 218.785C331.657 218.956 330.831 218.805 330.15 218.367L315.728 209.055C312.702 207.096 310.576 204.017 309.817 200.492C309.058 196.968 309.728 193.287 311.68 190.256Z" fill="white"/>
<path d="M313.758 221.08C310.32 206.642 310.894 192.422 316.78 178.49C316.842 177.628 317.243 176.826 317.896 176.26C318.549 175.694 319.4 175.41 320.262 175.47L352.427 177.752C353.288 177.814 354.091 178.216 354.657 178.868C355.223 179.521 355.507 180.372 355.447 181.234L352.425 223.824C352.363 224.686 351.962 225.488 351.309 226.054C350.656 226.62 349.805 226.905 348.943 226.844L316.779 224.562C315.917 224.5 315.114 224.098 314.548 223.446C313.982 222.793 313.698 221.942 313.758 221.08Z" fill="#F2F2F2"/>
<path d="M317.138 208.391C314.387 201.277 316.146 191.492 319.081 181.011C319.139 180.203 319.515 179.452 320.126 178.922C320.738 178.392 321.534 178.125 322.342 178.182L349.985 180.143C350.792 180.201 351.543 180.577 352.073 181.189C352.604 181.8 352.87 182.597 352.814 183.404L350.124 221.303C350.066 222.11 349.69 222.862 349.079 223.392C348.467 223.922 347.671 224.189 346.863 224.132L329.739 222.917C326.143 222.658 322.797 220.983 320.435 218.26C318.073 215.537 316.887 211.988 317.138 208.391Z" fill="white"/>
<path d="M316.531 131.953L302.752 80.9503C302.162 78.7912 300.746 76.9507 298.811 75.826C296.876 74.7013 294.576 74.3826 292.408 74.9386C291.286 75.2263 290.235 75.7393 289.318 76.4465C288.401 77.1537 287.638 78.0402 287.075 79.052C286.512 80.0638 286.161 81.1796 286.043 82.3316C285.925 83.4835 286.043 84.6473 286.39 85.7521L302.328 138.292L310.666 170.626C309.452 171.553 308.552 172.832 308.09 174.288C307.628 175.745 307.625 177.308 308.082 178.766C308.539 180.224 309.434 181.506 310.645 182.438C311.856 183.37 313.324 183.906 314.851 183.974C316.377 184.042 317.888 183.639 319.177 182.819C320.466 181.999 321.472 180.801 322.057 179.39C322.642 177.978 322.778 176.421 322.447 174.929C322.116 173.437 321.334 172.084 320.207 171.052L316.531 131.953Z" fill="#FFB6B6"/>
<path d="M217.155 140.776L231.286 89.8698C231.878 87.7113 231.598 85.4064 230.506 83.4526C229.414 81.4988 227.597 80.0527 225.448 79.4264C224.337 79.1024 223.171 79.0082 222.021 79.1495C220.872 79.2908 219.764 79.6647 218.764 80.2484C217.764 80.8321 216.893 81.6133 216.205 82.5445C215.516 83.4756 215.025 84.5372 214.76 85.6645L201.703 138.994L192.402 171.064C190.885 171.243 189.459 171.885 188.319 172.902C187.179 173.92 186.38 175.264 186.031 176.751C185.681 178.238 185.798 179.798 186.365 181.216C186.932 182.635 187.922 183.845 189.201 184.681C190.48 185.518 191.985 185.94 193.513 185.891C195.04 185.843 196.515 185.325 197.738 184.408C198.96 183.492 199.871 182.221 200.347 180.769C200.822 179.317 200.839 177.754 200.395 176.292L217.155 140.776Z" fill="#FFB6B6"/>
<path d="M298.021 336.321L289.016 336.32L284.732 301.588L298.022 301.589L298.021 336.321Z" fill="#FFB6B6"/>
<path d="M298.337 345.715L270.647 345.714V345.363C270.647 342.505 271.783 339.764 273.804 337.743C275.825 335.721 278.566 334.586 281.425 334.586L286.483 330.749L295.921 334.586L298.338 334.586L298.337 345.715Z" fill="#2F2E41"/>
<path d="M234.653 336.412L225.788 334.83L227.667 299.885L240.751 302.219L234.653 336.412Z" fill="#FFB6B6"/>
<path d="M233.316 345.715L206.056 340.853L206.117 340.508C206.619 337.694 208.218 335.195 210.563 333.56C212.907 331.925 215.805 331.288 218.619 331.79L224.273 328.9L232.89 334.335L235.27 334.759L233.316 345.715Z" fill="#2F2E41"/>
<path d="M235.53 176.627C235.53 176.627 227.138 188.514 227.48 192.503C227.823 196.492 230.786 193.31 227.823 196.492C224.859 199.674 223.132 197.539 224.588 201.47C226.044 205.402 226.637 202.856 226.044 205.402C225.452 207.947 226.637 305.32 226.637 305.32H242.069C242.069 305.32 250.772 248.859 249.67 246.223C248.568 243.587 248.594 244.734 249.767 241.933C250.939 239.132 252.043 235.799 252.043 235.799L264.241 201.47L273.65 249.805L284.726 307.241H299.514C299.514 307.241 302.047 222.78 303.166 221.728C304.286 220.676 302.947 218.311 301.542 216.947C300.137 215.584 300.417 214.2 300.87 211.392C301.322 208.584 303.232 207.017 303.166 205.255C303.1 203.492 307.25 175.49 300.73 171.035C294.209 166.58 235.53 176.627 235.53 176.627Z" fill="#2F2E41"/>
<path d="M287.13 58.2276L269.868 53.7545L261.81 42.6409L242.674 44.9934L238.6 60.1524L224.977 68.0603C249.398 68.2062 236.246 138.957 239.836 143.521C242.757 147.236 225.257 156.073 230.741 161.71C236.226 167.348 234.198 165.092 232.925 171.229C231.653 177.367 222.375 183.862 232.925 183.797C243.476 183.733 307.138 182.823 305.319 175.548C303.5 168.272 303.529 170.12 300.786 165.558C298.043 160.996 296.197 163.546 297.12 156.814C298.043 150.083 295.045 144.877 297.134 141.898C300.339 137.326 297.109 104.322 294.086 105.202L287.13 58.2276Z" fill="#0089DC"/>
<path d="M282.201 58.4635C282.201 58.4635 294.828 53.0991 299.375 63.1032C300.828 66.2984 302.051 74.3241 303.229 72.5444C304.407 70.7646 303.27 74.6663 304 74.6711C304.651 74.6754 305.652 73.6223 304.895 77.2503C304.658 78.4404 304.727 79.6711 305.094 80.8276C305.461 81.9842 306.115 83.029 306.995 83.8645L285.048 97.0084L282.201 58.4635Z" fill="#0089DC"/>
<path d="M234.758 67.5581C234.758 67.5581 222.131 62.1937 217.584 72.1978C216.305 75.0113 216.623 81.2629 214.133 80.561C211.643 79.8592 213.411 82.5036 213.082 83.4223C212.716 84.4463 214.315 87.3439 212.069 86.3299C209.824 85.3159 209.965 92.9591 209.965 92.9591L231.911 106.103L234.758 67.5581Z" fill="#0089DC"/>
<path d="M240.745 52.5754L237.107 58.9416C237.107 58.9416 227.103 64.3984 227.103 65.3078C227.103 66.2173 228.922 73.6434 227.103 79.4797C225.284 85.3159 230.575 96.2918 231.651 105.324C236.198 143.521 222.675 157.4 219.828 181.719L248.687 190.147C248.687 190.147 253.478 126.242 253.478 111.69C253.478 97.1389 240.745 52.5754 240.745 52.5754Z" fill="#2F2E41"/>
<path d="M267.12 49.847L274.554 54.0756C274.554 54.0756 284.283 56.2207 284.399 57.1227C284.515 58.0247 284.55 67.6114 287.099 73.1675C289.649 78.7237 288.947 81.6781 295.813 98.1032C299.321 106.495 307.375 173.64 307.375 173.64L279.829 185.685C279.829 185.685 266.914 122.915 265.056 108.483C263.197 94.051 267.12 49.847 267.12 49.847Z" fill="#2F2E41"/>
<path d="M248.53 41.1762C258.916 41.1762 267.335 32.7569 267.335 22.3712C267.335 11.9855 258.916 3.56626 248.53 3.56626C238.144 3.56626 229.725 11.9855 229.725 22.3712C229.725 32.7569 238.144 41.1762 248.53 41.1762Z" fill="#FFB6B6"/>
<path d="M260.906 36.9819C256.461 33.5073 262.537 18.2224 255.196 21.4849C255.196 21.4849 246.225 15.7755 244.422 19.5274C242.335 23.8717 234.912 21.9009 230.352 20.3675C230.711 19.5346 230.965 18.6607 231.111 17.7657C230.269 18.4288 229.377 19.026 228.444 19.5519C227.818 19.2173 227.263 18.7628 226.812 18.2142C226.368 17.7049 226.089 17.0716 226.015 16.3994C225.941 15.7273 226.074 15.0485 226.397 14.4542C227.155 13.2878 228.721 12.929 229.643 11.8931C229.749 11.7474 229.819 11.5781 229.845 11.3996C229.872 11.2212 229.855 11.0389 229.796 10.8685C229.686 10.4517 229.669 10.0158 229.747 9.59194C229.825 9.16804 229.995 8.76652 230.246 8.41599C230.497 8.06547 230.822 7.77457 231.198 7.56401C231.574 7.35345 231.992 7.22842 232.422 7.19783C232.595 7.20311 232.766 7.16574 232.922 7.08902C233.695 6.61544 234.41 6.0514 235.05 5.40882C233.982 5.45776 235.288 -1.08263 245.882 0.156145C248.549 0.0582777 249.942 2.99975 252.568 3.46467C258.934 -0.173165 264.617 5.07443 267.382 10.0905C270.147 15.1067 273.14 31.2725 260.906 36.9819Z" fill="#2F2E41"/>
<path d="M180.667 10.0048H12.0991C8.89222 10.0075 5.81731 11.2822 3.54905 13.5492C1.28079 15.8162 0.00443785 18.8904 0 22.0973V173.99C0.00417024 177.198 1.28023 180.273 3.54836 182.541C5.81648 184.809 8.89152 186.085 12.0991 186.089H180.667C183.874 186.085 186.948 184.809 189.215 182.54C191.482 180.272 192.757 177.197 192.759 173.99V22.0973C192.756 18.8911 191.481 15.817 189.214 13.5498C186.947 11.2827 183.873 10.0077 180.667 10.0048Z" fill="white"/>
<path d="M103.646 44.8667H85.6372C84.7527 44.8667 83.9045 44.5153 83.2791 43.8899C82.6536 43.2645 82.3023 42.4163 82.3023 41.5318C82.3023 40.6473 82.6536 39.799 83.2791 39.1736C83.9045 38.5482 84.7527 38.1968 85.6372 38.1968H103.646C104.53 38.1968 105.379 38.5482 106.004 39.1736C106.629 39.799 106.981 40.6473 106.981 41.5318C106.981 42.4163 106.629 43.2645 106.004 43.8899C105.379 44.5153 104.53 44.8667 103.646 44.8667Z" fill="#0089DC"/>
<path d="M342.427 198.095H324.419C323.534 198.095 322.686 197.744 322.06 197.118C321.435 196.493 321.084 195.645 321.084 194.76C321.084 193.876 321.435 193.028 322.06 192.402C322.686 191.777 323.534 191.425 324.419 191.425H342.427C343.312 191.425 344.16 191.777 344.785 192.402C345.411 193.028 345.762 193.876 345.762 194.76C345.762 195.645 345.411 196.493 344.785 197.118C344.16 197.744 343.312 198.095 342.427 198.095Z" fill="#0089DC"/>
<path d="M150.335 114.722H38.9481C38.0636 114.722 37.2154 114.37 36.59 113.745C35.9645 113.12 35.6132 112.271 35.6132 111.387C35.6132 110.502 35.9645 109.654 36.59 109.029C37.2154 108.403 38.0636 108.052 38.9481 108.052H150.335C151.219 108.052 152.068 108.403 152.693 109.029C153.319 109.654 153.67 110.502 153.67 111.387C153.67 112.271 153.319 113.12 152.693 113.745C152.068 114.37 151.219 114.722 150.335 114.722Z" fill="#E6E6E6"/>
<path d="M150.335 136.732H38.9481C38.0636 136.732 37.2154 136.381 36.59 135.756C35.9645 135.13 35.6132 134.282 35.6132 133.397C35.6132 132.513 35.9645 131.665 36.59 131.039C37.2154 130.414 38.0636 130.063 38.9481 130.063H150.335C151.219 130.063 152.068 130.414 152.693 131.039C153.319 131.665 153.67 132.513 153.67 133.397C153.67 134.282 153.319 135.13 152.693 135.756C152.068 136.381 151.219 136.732 150.335 136.732Z" fill="#E6E6E6"/>
<path d="M150.335 158.743H38.9481C38.0636 158.743 37.2154 158.392 36.59 157.766C35.9645 157.141 35.6132 156.292 35.6132 155.408C35.6132 154.524 35.9645 153.675 36.59 153.05C37.2154 152.424 38.0636 152.073 38.9481 152.073H150.335C151.219 152.073 152.068 152.424 152.693 153.05C153.319 153.675 153.67 154.524 153.67 155.408C153.67 156.292 153.319 157.141 152.693 157.766C152.068 158.392 151.219 158.743 150.335 158.743Z" fill="#E6E6E6"/>
<path d="M127.568 54.873H61.7163C58.5094 54.8756 55.4345 56.1503 53.1663 58.4173C50.898 60.6844 49.6216 63.7585 49.6172 66.9655V86.795C49.6214 90.0026 50.8974 93.0777 53.1655 95.3458C55.4337 97.6139 58.5087 98.89 61.7163 98.8941H127.568C130.775 98.8897 133.849 97.6133 136.116 95.3451C138.383 93.0768 139.658 90.0019 139.66 86.795V66.9655C139.658 63.7592 138.383 60.6852 136.115 58.418C133.848 56.1509 130.774 54.8759 127.568 54.873ZM138.326 86.795C138.326 89.6501 137.192 92.3883 135.173 94.4071C133.155 96.426 130.416 97.5602 127.561 97.5602H80.2901C72.5089 97.5602 65.0464 94.4691 59.5443 88.967C54.0422 83.4649 50.9512 76.0024 50.9512 68.2213V66.9655C50.9557 64.1124 52.0915 61.3775 54.1096 59.3607C56.1277 57.3439 58.8632 56.2097 61.7163 56.207H127.568C130.42 56.21 133.155 57.3444 135.172 59.3614C137.189 61.3784 138.323 64.1131 138.326 66.9655V86.795Z" fill="#E6E6E6"/>
<path d="M95.3792 84.0404C101.641 84.0404 106.718 78.9638 106.718 72.7016C106.718 66.4394 101.641 61.3628 95.3792 61.3628C89.1169 61.3628 84.0404 66.4394 84.0404 72.7016C84.0404 78.9638 89.1169 84.0404 95.3792 84.0404Z" fill="#FFB6B6"/>
<path d="M121.465 98.8942L70.7006 98.7141L86.7083 94.7122L88.7026 88.129L104.05 88.0423L108.646 94.5521L121.305 97.8337L121.465 98.8942Z" fill="#E6E6E6"/>
<path d="M88.935 79.9411C91.3682 78.0392 88.0421 69.6726 92.0602 71.4585C92.0602 71.4585 96.9713 68.3333 97.958 70.387C99.1004 72.765 103.164 71.6862 105.659 70.8468C105.463 70.3909 105.324 69.9126 105.244 69.4226C105.705 69.7856 106.193 70.1125 106.704 70.4004C107.047 70.2172 107.35 69.9684 107.597 69.6682C107.84 69.3893 107.993 69.0427 108.033 68.6748C108.074 68.3069 108.001 67.9353 107.825 67.61C107.409 66.9716 106.552 66.7751 106.048 66.2081C105.989 66.1284 105.951 66.0357 105.937 65.938C105.922 65.8403 105.932 65.7406 105.964 65.6473C106.024 65.4191 106.033 65.1806 105.991 64.9485C105.948 64.7165 105.855 64.4967 105.717 64.3048C105.58 64.113 105.402 63.9537 105.196 63.8385C104.991 63.7232 104.762 63.6548 104.526 63.638C104.432 63.6409 104.338 63.6205 104.253 63.5785C103.829 63.3193 103.438 63.0105 103.088 62.6588C103.673 62.6856 102.957 59.1055 97.1588 59.7836C95.6989 59.73 94.9365 61.3401 93.4989 61.5946C90.0142 59.6033 86.9037 62.4757 85.3902 65.2214C83.8767 67.9671 82.2382 76.8159 88.935 79.9411Z" fill="#2F2E41"/>
<path d="M180.667 10.0048H12.0991C8.89222 10.0075 5.81731 11.2822 3.54905 13.5492C1.28079 15.8162 0.00443785 18.8904 0 22.0973V173.99C0.00417024 177.198 1.28023 180.273 3.54836 182.541C5.81648 184.809 8.89152 186.085 12.0991 186.089H180.667C183.874 186.085 186.948 184.809 189.215 182.54C191.482 180.272 192.757 177.197 192.759 173.99V22.0973C192.756 18.8911 191.481 15.817 189.214 13.5498C186.947 11.2827 183.873 10.0077 180.667 10.0048ZM191.425 173.99C191.425 176.845 190.291 179.584 188.272 181.602C186.253 183.621 183.515 184.755 180.66 184.755H88.1762C76.7719 184.755 65.4793 182.509 54.9431 178.145C44.4069 173.781 34.8335 167.384 26.7695 159.32C18.7054 151.256 12.3087 141.682 7.94443 131.146C3.5802 120.61 1.33397 109.317 1.33397 97.9132V22.0973C1.33851 19.2442 2.47436 16.5093 4.49243 14.4925C6.5105 12.4757 9.24604 11.3416 12.0991 11.3388H180.667C183.519 11.3418 186.254 12.4763 188.271 14.4932C190.288 16.5102 191.422 19.2449 191.425 22.0973V173.99Z" fill="#E6E6E6"/>
<path d="M356.776 346.795L146.437 347C146.227 346.999 146.026 346.915 145.878 346.766C145.73 346.617 145.647 346.416 145.647 346.206C145.647 345.996 145.73 345.794 145.878 345.646C146.026 345.497 146.227 345.413 146.437 345.412L356.776 345.207C356.986 345.208 357.187 345.292 357.335 345.441C357.483 345.59 357.566 345.791 357.566 346.001C357.566 346.211 357.483 346.412 357.335 346.561C357.187 346.71 356.986 346.794 356.776 346.795Z" fill="#CACACA"/>
</svg>
