<svg width="160" height="383" viewBox="0 0 160 383" fill="none" xmlns="http://www.w3.org/2000/svg">
<path d="M117.868 45.4111L55.0925 52.8538L62.1038 112.776L124.879 105.334L117.868 45.4111Z" fill="#2F2E41"/>
<path d="M85.7832 79.9533C102.804 79.9533 116.603 66.0636 116.603 48.9298C116.603 31.7959 102.804 17.9062 85.7832 17.9062C68.762 17.9062 54.9636 31.7959 54.9636 48.9298C54.9636 66.0636 68.762 79.9533 85.7832 79.9533Z" fill="#FFB6B6"/>
<path d="M65.4634 0.811934C46.2576 6.17909 48.0463 13.3857 42.2269 17.9269C31.9744 25.9273 29.8814 45.7684 37.2016 57.8295C39.1575 61.0521 42.9846 65.3109 41.9784 70.5186C41.206 74.5162 37.9457 77.207 37.3316 77.6972C32.3056 81.7086 35.3771 77.2811 33.2572 80.3895C30.9174 83.8204 35.6199 87.7173 33.7046 93.5918C32.0066 98.7998 27.2665 98.9391 27.0206 102.117C26.5969 107.588 39.8983 116.912 52.6166 114.547C63.9406 112.441 71.282 101.724 73.0511 92.2408C74.236 85.8884 73.8229 75.2525 68.3369 70.7074C67.5674 70.0699 65.4902 68.5515 63.3701 65.7731C61.6924 63.5745 59.4838 60.6802 60.3131 58.4033C61.1965 55.9775 64.6017 56.7954 66.4246 54.3648C68.897 51.0685 64.9622 46.4611 64.8949 41.2908C64.7812 32.5358 75.7375 20.6908 88.8314 20.779C103.685 20.879 110.93 36.2667 111.69 37.9519C113.266 41.4449 113.654 44.959 114.43 51.9871C115.543 62.0731 116.241 68.3946 113.86 75.2516C110.435 85.114 104.564 84.7884 103.739 91.9162C102.453 103.029 115.725 112.464 117.239 113.512C128.468 121.287 144.155 122.165 146.273 117.803C148.18 113.872 137.264 109.403 136.274 98.0004C135.417 88.1185 142.982 84.1782 140.474 77.6194C137.713 70.3996 127.827 73.2933 122.581 65.3807C117.685 57.995 124.504 52.7668 121.432 36.797C120.782 33.4188 118.574 23.7638 111.178 14.8157C107.92 10.8736 104.606 6.86438 99.08 5.20394C92.8935 3.3451 75.6228 -2.02709 65.4634 0.811934Z" fill="#2F2E41"/>
<path d="M55.6625 29.5893C57.246 36.2417 67.6972 38.3548 72.09 38.6878C73.9505 38.8288 80.2377 39.3054 86.0329 35.9301C88.1748 34.6825 88.8934 33.6987 91.1896 33.1095C94.2984 32.3118 96.0312 33.3324 101.186 34.1336C106.917 35.0245 109.783 35.4701 111.054 34.0682C113.132 31.7766 110.582 25.3879 107.36 21.2508C101.401 13.601 91.9606 12.1327 87.5577 11.4478C82.5272 10.6653 72.319 9.07737 63.8738 15.3603C62.7447 16.2003 54.0538 22.8303 55.6625 29.5893Z" fill="#2F2E41"/>
<path d="M121.858 377.296C106.575 381.027 90.6098 383 74.1891 383C56.403 383 39.1455 380.687 22.7174 376.328C20.9264 369.655 18.893 362.266 16.5881 354.094C-4.09011 280.713 37.8022 228.686 37.8022 228.686L48.1376 220.477L141.171 233.068C151.998 286.203 144.952 325.631 121.858 377.296Z" fill="#2F2E41"/>
<path d="M106.704 88.495L63.1815 84.1139L31.6278 111.495L41.4203 210.069L37.0681 228.689L140.434 233.07L134.993 206.783L142.61 110.4L106.704 88.495Z" fill="#0089DC"/>
<path d="M120.849 139.972H51.2128V249.499H120.849V139.972Z" fill="white"/>
<path d="M110.912 154.381H91.4548C90.9286 154.381 90.5004 153.95 90.5004 153.421C90.5004 152.891 90.9286 152.46 91.4548 152.46H110.912C111.438 152.46 111.867 152.891 111.867 153.421C111.867 153.95 111.438 154.381 110.912 154.381Z" fill="#0089DC"/>
<path d="M110.912 161.771H91.4548C90.9286 161.771 90.5004 161.34 90.5004 160.81C90.5004 160.28 90.9286 159.849 91.4548 159.849H110.912C111.438 159.849 111.867 160.28 111.867 160.81C111.867 161.34 111.438 161.771 110.912 161.771Z" fill="#0089DC"/>
<path d="M110.912 169.16H91.4548C90.9286 169.16 90.5004 168.729 90.5004 168.199C90.5004 167.669 90.9286 167.238 91.4548 167.238H110.912C111.438 167.238 111.867 167.669 111.867 168.199C111.867 168.729 111.438 169.16 110.912 169.16Z" fill="#0089DC"/>
<path d="M110.039 195.021H62.7251C61.4454 195.021 60.4043 193.973 60.4043 192.685C60.4043 191.397 61.4454 190.349 62.7251 190.349H110.039C111.319 190.349 112.36 191.397 112.36 192.685C112.36 193.973 111.319 195.021 110.039 195.021Z" fill="#E6E6E6"/>
<path d="M83.4219 237.561C92.8358 240.531 101.989 238.049 103.866 232.018C105.742 225.987 99.6324 218.692 90.2147 215.722C86.4689 214.484 82.483 214.167 78.5904 214.797L38.5453 202.72L13.1308 221.022L73.3483 231.642C76.1884 234.396 79.6426 236.426 83.4219 237.561Z" fill="#FFB6B6"/>
<path d="M35.7291 109.305C35.7291 109.305 21.139 117.697 16.9704 135.531L0.295995 206.867C0.295995 206.867 -2.83045 217.357 11.2386 222.602C25.3076 227.847 42.5031 205.293 42.5031 205.293L34.65 197.388L49.7981 130.81L35.7291 109.305Z" fill="#0089DC"/>
<path d="M72.5679 227.018C62.7812 228.27 54.2062 224.203 53.4152 217.933C52.6242 211.663 59.9162 205.567 69.7065 204.315C73.6105 203.761 77.5896 204.156 81.3108 205.468L122.844 200.687L144.655 223.212L83.5204 222.979C80.2424 225.186 76.4867 226.571 72.5679 227.018Z" fill="#FFB6B6"/>
<path d="M141.977 109.235C141.977 109.235 154.869 120.085 155.849 138.379L159.768 211.557C159.768 211.557 161.008 222.438 146.24 225.104C131.473 227.77 118.497 202.517 118.497 202.517L127.612 196.13L124.362 127.907L141.977 109.235Z" fill="#0089DC"/>
<path d="M83.8546 147.639H58.8293V178.306H83.8546V147.639Z" fill="#0089DC"/>
<path d="M65.51 170.53L63.7908 178.109L63.7473 178.306H58.851C59.4386 175.809 60.1676 172.721 60.5049 171.242C60.9292 169.446 62.0391 168.285 62.7463 167.704C63.1053 167.387 63.3665 167.244 63.3665 167.244L65.51 170.53Z" fill="#E6E6E6"/>
<path d="M82.0376 178.306H77.2719L76.8802 170.081L79.4915 167.31L79.5677 167.233C79.5677 167.233 81.5371 168.887 81.6785 171.68C81.7547 173.071 81.907 175.864 82.0376 178.306Z" fill="#E6E6E6"/>
<path d="M75.8582 157.498L67.3462 158.507L68.2969 166.632L76.8089 165.623L75.8582 157.498Z" fill="#2F2E41"/>
<path d="M71.5077 162.181C73.8157 162.181 75.6866 160.298 75.6866 157.975C75.6866 155.652 73.8157 153.768 71.5077 153.768C69.1997 153.768 67.3287 155.652 67.3287 157.975C67.3287 160.298 69.1997 162.181 71.5077 162.181Z" fill="#FFB6B6"/>
<path d="M68.7524 151.45C66.1482 152.178 66.3907 153.155 65.6016 153.771C64.2114 154.856 63.9276 157.546 64.9202 159.182C65.1854 159.619 65.7044 160.196 65.5679 160.902C65.4632 161.444 65.0211 161.809 64.9379 161.876C64.2564 162.419 64.6728 161.819 64.3854 162.241C64.0681 162.706 64.7058 163.234 64.4461 164.031C64.2158 164.737 63.5731 164.756 63.5397 165.187C63.4823 165.929 65.2859 167.193 67.0104 166.872C68.5459 166.587 69.5414 165.133 69.7813 163.848C69.9419 162.986 69.8859 161.544 69.142 160.928C69.0377 160.841 68.756 160.635 68.4686 160.259C68.2411 159.961 67.9416 159.568 68.054 159.259C68.1738 158.93 68.6355 159.041 68.8827 158.712C69.218 158.265 68.6844 157.64 68.6753 156.939C68.6599 155.752 70.1455 154.146 71.921 154.158C73.9351 154.171 74.9175 156.258 75.0206 156.486C75.2343 156.96 75.2868 157.436 75.392 158.389C75.543 159.757 75.6376 160.614 75.3147 161.544C74.8504 162.881 74.0543 162.837 73.9424 163.804C73.768 165.31 75.5676 166.59 75.773 166.732C77.2955 167.786 79.4227 167.905 79.7097 167.314C79.9684 166.781 78.4882 166.175 78.354 164.629C78.2377 163.289 79.2635 162.754 78.9234 161.865C78.5491 160.886 77.2085 161.278 76.4973 160.205C75.8335 159.204 76.758 158.495 76.3414 156.33C76.2533 155.872 75.9539 154.562 74.9511 153.349C74.5093 152.815 74.06 152.271 73.3106 152.046C72.4718 151.794 70.13 151.065 68.7524 151.45Z" fill="#2F2E41"/>
<path d="M67.4234 155.352C67.6381 156.254 69.0553 156.541 69.6509 156.586C69.9032 156.605 70.7557 156.67 71.5415 156.212C71.832 156.043 71.9294 155.91 72.2407 155.83C72.6623 155.721 72.8972 155.86 73.5962 155.969C74.3733 156.089 74.762 156.15 74.9343 155.96C75.216 155.649 74.8703 154.783 74.4333 154.222C73.6254 153.184 72.3453 152.985 71.7483 152.892C71.0662 152.786 69.682 152.571 68.5368 153.423C68.3837 153.537 67.2053 154.436 67.4234 155.352Z" fill="#2F2E41"/>
<path d="M79.6656 167.42L78.806 178.306H63.8017L63.7908 178.109L62.7463 167.704L62.7354 167.584L65.9125 164.835L66.8917 163.98L67.5555 163.411L69.2638 163.586L74.1818 164.079H74.1927L75.8465 165.087L78.3164 166.598L79.4915 167.31L79.6656 167.42Z" fill="#E6E6E6"/>
</svg>
