<svg width="413" height="250" viewBox="0 0 413 250" fill="none" xmlns="http://www.w3.org/2000/svg">
<g clip-path="url(#clip0_557_3093)">
<path d="M327.753 37.882C330.513 36.5138 334.09 38.1081 335.743 41.4429C336.688 43.3487 336.797 45.4088 336.204 47.0812L336.242 47.1571L347.088 66.466L366.497 56.2612C370.136 54.0196 374.52 53.4158 377.054 56.8571C380.194 61.1212 378.538 67.1987 373.669 69.2805L348.342 80.1086C344.744 81.6469 340.58 79.9733 339.048 76.3727L329.958 50.1776C328.268 49.6369 326.694 48.3031 325.749 46.3972C324.096 43.0625 324.993 39.2501 327.753 37.882Z" fill="#9B616A"/>
<path d="M374.515 50.4814L352.15 61.6102L360.624 78.0353L383.138 64.7341" fill="#CACACB"/>
<path d="M350.012 230.504H341.625V241.558H350.012V230.504Z" fill="#9B616A"/>
<path d="M348.58 249.187H330.753C329.229 249.187 327.698 248.838 326.325 248.178L323.038 246.599C322.359 246.272 321.92 245.574 321.92 244.82C321.92 243.935 322.515 243.153 323.367 242.917L330.147 241.041L341.747 234.944L341.755 234.988C341.972 236.087 342.308 237.747 342.351 237.847C343.541 239.21 344.763 239.838 345.983 239.714C348.112 239.498 349.527 237.04 349.541 237.015L349.552 236.996L349.574 236.999C350.072 237.05 350.441 237.251 350.67 237.596C351.155 238.328 350.859 239.456 350.81 239.626C351.392 240.195 351.653 243.373 351.673 243.63C352.514 244.521 352.914 245.378 352.861 246.176C352.815 246.875 352.427 247.523 351.71 248.104C350.847 248.803 349.735 249.187 348.58 249.187Z" fill="#01070B"/>
<path d="M405.326 225.463L397.273 227.806L400.36 238.42L408.413 236.077L405.326 225.463Z" fill="#9B616A"/>
<path d="M409.17 243.802L392.052 248.782C390.589 249.207 389.021 249.3 387.518 249.05L383.921 248.451C383.178 248.327 382.561 247.779 382.35 247.055C382.103 246.206 382.456 245.289 383.209 244.825L389.195 241.129L398.63 232.035L398.65 232.075C399.165 233.069 399.952 234.569 400.021 234.653C401.544 235.63 402.893 235.891 404.03 235.431C406.014 234.63 406.686 231.874 406.692 231.846L406.698 231.825L406.719 231.821C407.212 231.731 407.622 231.821 407.938 232.089C408.609 232.656 408.64 233.822 408.64 233.999C409.358 234.383 410.496 237.361 410.587 237.602C411.644 238.223 412.267 238.934 412.439 239.715C412.589 240.399 412.399 241.13 411.872 241.888C411.239 242.8 410.279 243.479 409.17 243.802Z" fill="#01070B"/>
<path d="M381.443 31.8506C381.443 24.3205 375.339 18.2161 367.809 18.2161C360.278 18.2161 354.174 24.3205 354.174 31.8506C354.174 37.9576 358.189 43.1261 363.724 44.8619L366.359 62.2813L379.796 51.0839C379.796 51.0839 376.894 47.3864 375.337 43.2174C379.016 40.7757 381.443 36.5973 381.443 31.8506Z" fill="#9B616A"/>
<path d="M386.823 99.1449L388.791 71.5903C388.962 69.2006 388.66 66.8008 387.902 64.5281L382.07 47.0315L364.89 52.5496L357.641 69.134L353.693 76.3722C351.895 79.6674 352.484 83.7528 355.138 86.4069L357.641 88.91L354.151 101.706L354.518 101.693L354.024 101.756C354.024 101.756 330.701 171.929 331.536 231.607H361.475L363.253 162.331L368.453 234.296L407.906 232.024L386.823 99.1449Z" fill="#CACACB"/>
<path d="M385.821 49.7651C385.821 49.7651 385.184 54.5956 379.285 54.7534C371.308 54.9667 367.319 55.0734 367.319 55.0734C367.319 55.0734 377.435 30.4565 373.275 33.2298C369.116 36.003 358.025 24.3766 358.025 24.3766L354.752 30.5145C354.752 30.5145 346.933 27.6832 355.598 20.7501C355.598 20.7501 365.937 12.7569 376.913 17.5568C387.889 22.3567 385.821 49.7651 385.821 49.7651Z" fill="#01070B"/>
<path d="M337.431 104.577C337.272 101.5 340.157 98.851 343.874 98.6589C345.998 98.5492 347.932 99.268 349.231 100.476L349.316 100.472L371.344 98.1906L369.692 76.3243C369.08 72.0945 370.268 67.8321 374.433 66.8738C379.594 65.6865 384.513 69.6209 384.489 74.9164L384.362 102.461C384.344 106.374 381.154 109.53 377.241 109.505L349.591 107.439C348.423 108.775 346.574 109.689 344.449 109.799C340.732 109.991 337.59 107.653 337.431 104.577Z" fill="#9B616A"/>
<path d="M367.573 66.6706L368.9 91.6162L387.34 90.3655L384.079 64.4207" fill="#CACACB"/>
<path d="M314.589 30.939H209.045C206.14 30.939 203.785 33.294 203.785 36.1992V36.1992C203.785 39.1043 206.14 41.4594 209.045 41.4594H314.589C317.494 41.4594 319.849 39.1043 319.849 36.1992C319.849 33.294 317.494 30.939 314.589 30.939Z" fill="#0089DC"/>
<path d="M314.589 73.6992H231.784C228.879 73.6992 226.523 76.0543 226.523 78.9594V78.9595C226.523 81.8646 228.879 84.2197 231.784 84.2197H314.589C317.495 84.2197 319.85 81.8646 319.85 78.9594C319.85 76.0543 317.495 73.6992 314.589 73.6992Z" fill="#0089DC"/>
<path d="M298.978 101.527H314.589C317.494 101.527 319.849 103.882 319.849 106.788C319.849 109.693 317.494 112.048 314.589 112.048H298.978C296.073 112.048 293.718 109.693 293.718 106.788C293.718 103.882 296.073 101.527 298.978 101.527Z" fill="#0089DC"/>
<path d="M192.779 60.1245H114.045C111.14 60.1245 108.785 62.4796 108.785 65.3847V65.3848C108.785 68.2899 111.14 70.645 114.045 70.645H192.779C195.684 70.645 198.039 68.2899 198.039 65.3847C198.039 62.4796 195.684 60.1245 192.779 60.1245Z" fill="#CACACB"/>
<path d="M114.045 87.2739H137.122C140.028 87.2739 142.383 89.629 142.383 92.5342C142.383 95.4393 140.028 97.7944 137.122 97.7944H114.045C111.14 97.7944 108.785 95.4393 108.785 92.5342C108.785 89.629 111.14 87.2739 114.045 87.2739Z" fill="#CACACB"/>
<path d="M314.589 45.8711H239.249C236.344 45.8711 233.989 48.2262 233.989 51.1313V51.1313C233.989 54.0365 236.344 56.3916 239.249 56.3916H314.589C317.494 56.3916 319.849 54.0365 319.849 51.1313C319.849 48.2262 317.494 45.8711 314.589 45.8711Z" fill="#0089DC"/>
<path d="M6.04787 222.284L13.0093 227.417L18.1414 220.455L11.18 215.323L6.04787 222.284Z" fill="#E8989B"/>
<path d="M0.632995 226.678C0.392908 225.757 0.468297 224.982 0.857168 224.374C1.30194 223.679 2.15801 223.212 3.40147 222.987C3.57518 222.786 5.73641 220.308 6.56738 220.192C6.63101 220.021 7.07519 218.903 7.92638 218.593C8.32735 218.446 8.75646 218.505 9.20181 218.767L9.2212 218.779L9.21852 218.801C9.215 218.83 8.88542 221.737 10.5204 223.219C11.4577 224.068 12.8563 224.295 14.6775 223.892C14.7746 223.834 16.0692 222.662 16.9216 221.883L16.9557 221.852L22.8528 234.011L27.3327 239.717C27.8958 240.434 27.9111 241.448 27.3701 242.182C26.9087 242.808 26.1169 243.118 25.353 242.974L21.6583 242.274C20.1145 241.982 18.6299 241.334 17.3652 240.402L2.56761 229.493C1.60889 228.786 0.921823 227.786 0.632995 226.678Z" fill="#01070B"/>
<path d="M85.0786 242.133H93.7273V233.484H85.0786V242.133Z" fill="#E8989B"/>
<path d="M83.3274 248.883C82.5876 248.284 82.1883 247.615 82.1405 246.895C82.0859 246.071 82.498 245.188 83.3652 244.268C83.386 244.004 83.6552 240.727 84.2549 240.14C84.2047 239.965 83.8992 238.802 84.4 238.047C84.6359 237.691 85.0161 237.484 85.5302 237.43L85.5526 237.428L85.5637 237.448C85.5782 237.473 87.0376 240.008 89.2329 240.231C90.4916 240.358 91.7517 239.711 92.9784 238.306C93.0225 238.202 93.3691 236.49 93.5928 235.357L93.6017 235.312L105.563 241.599L112.555 243.534C113.434 243.777 114.048 244.584 114.048 245.496C114.048 246.273 113.595 246.993 112.894 247.33L109.505 248.959C108.089 249.64 106.51 250 104.939 250H86.5546C85.3635 250 84.2174 249.603 83.3274 248.883Z" fill="#01070B"/>
<path d="M41.0237 96.2078H82.4739L96.2907 234.592H82.4739L61.1744 145.794L54.8404 170.848L19.9582 225.577L6.21948 212.199L35.8436 165.4L41.0237 96.2078Z" fill="#01070B"/>
<path d="M53.4756 18.1795C53.4756 10.4141 59.7706 4.11914 67.5358 4.11914C75.3011 4.11914 81.5962 10.4141 81.5962 18.1795C81.5962 24.4771 77.4554 29.8071 71.7484 31.5971L69.0303 49.5606L55.1737 38.0134C55.1737 38.0134 58.1671 34.2006 59.7725 29.9013C55.9783 27.3832 53.4756 23.0744 53.4756 18.1795Z" fill="#E8989B"/>
<path d="M60.1622 30.3296C60.1622 30.3296 57.4812 16.7654 61.356 18.3799C65.2309 19.9944 64.194 22.7238 64.194 22.7238L67.9074 17.2345V10.9379L70.3291 8.19321L80.662 12.5524C80.662 12.5524 86.1513 -3.59269 70.4906 1.57373C70.4906 1.57373 57.0902 -3.9156 53.2154 5.61C44.0289 27.0682 60.1622 30.3296 60.1622 30.3296Z" fill="#01070B"/>
<path d="M41.1656 97.1205L77.9111 97.2835C80.9703 97.4379 83.4932 95.6199 83.2031 93.4701L76.2398 41.8719L63.7881 35.3456C61.1611 33.9688 57.9421 34.4781 55.8685 36.5987L48.4896 44.1449C46.5542 46.1242 45.3107 48.3976 44.8604 50.7797L41.4155 84.94C41.1891 86.1376 41.3833 87.3561 41.981 88.4886L43.3325 91.049C44.765 93.763 37.064 96.9135 41.1656 97.1205Z" fill="#0089DC"/>
<path d="M85.734 103.261L74.3489 95.7687L78.7234 89.1213L90.1085 96.6136C92.0855 96.1739 94.4044 96.5828 96.4326 97.9175C99.9816 100.253 101.292 104.527 99.3589 107.464C97.4261 110.401 92.9824 110.889 89.4335 108.553C87.4052 107.219 86.1124 105.251 85.734 103.261Z" fill="#E8989B"/>
<path d="M51.364 59.5506L54.9384 87.8917L78.2401 102.405L88.7923 92.0425L66.1001 79.748L69.51 46.3113" fill="#0089DC"/>
</g>
<defs>
<clipPath id="clip0_557_3093">
<rect width="412.57" height="250" fill="white"/>
</clipPath>
</defs>
</svg>
