<svg width="277" height="451" viewBox="0 0 277 451" fill="none" xmlns="http://www.w3.org/2000/svg">
<path d="M53.2578 449.979C53.2578 450.545 53.7117 451 54.277 451H275.981C276.546 451 277 450.545 277 449.979C277 449.412 276.546 448.957 275.981 448.957H54.277C53.7117 448.957 53.2578 449.412 53.2578 449.979Z" fill="#484565"/>
<path d="M169.848 0.281942C169.848 0.281942 151.082 -4.27597 139.724 23.2603C130.26 46.213 123.544 58.4704 131.227 66.7965C133.977 69.775 137.9 71.3802 141.943 71.5175L185.197 72.9424C185.197 72.9424 201.077 31.2088 191.424 16.1187C181.771 1.02013 169.848 0.281942 169.848 0.281942Z" fill="#2F2E41"/>
<path d="M178.808 69.4746L158.003 76.3329V46.316H176.88L178.808 69.4746Z" fill="#F6A6A9"/>
<path d="M162.842 433.206H143.347L132.05 328.846H162.174L162.842 433.206Z" fill="#F6A6A9"/>
<path d="M124.367 449.979C122.32 449.979 120.495 449.927 119.116 449.798C113.934 449.326 109.001 445.498 106.517 443.258C105.403 442.253 105.043 440.648 105.626 439.266C106.046 438.27 106.876 437.532 107.904 437.24L121.583 433.326L143.733 418.348L143.981 418.794C144.075 418.957 146.251 422.889 146.979 425.541C147.253 426.554 147.185 427.395 146.765 428.039C146.474 428.494 146.071 428.751 145.737 428.897C146.14 429.318 147.399 430.167 151.262 430.785C156.915 431.687 158.097 425.816 158.148 425.567L158.182 425.369L158.354 425.258C161.043 423.524 162.696 422.734 163.27 422.897C163.63 423 164.221 423.18 165.823 439.163C165.985 439.661 167.107 443.343 166.345 446.854C165.514 450.682 148.838 449.361 145.497 449.06C145.403 449.069 132.915 449.961 124.358 449.961V449.979H124.367Z" fill="#2F2E41"/>
<path d="M206.868 433.206H187.382L176.075 328.846H206.199L206.868 433.206Z" fill="#F6A6A9"/>
<path d="M168.401 449.979C166.354 449.979 164.529 449.927 163.15 449.798C157.968 449.326 153.035 445.498 150.551 443.258C149.437 442.253 149.078 440.648 149.66 439.266C150.08 438.27 150.911 437.532 151.938 437.24L165.617 433.326L187.767 418.348L188.015 418.794C188.11 418.957 190.285 422.889 191.013 425.541C191.287 426.554 191.219 427.395 190.799 428.039C190.508 428.494 190.105 428.751 189.771 428.897C190.174 429.318 191.433 430.167 195.296 430.785C200.949 431.687 202.131 425.816 202.182 425.567L202.217 425.369L202.388 425.258C205.077 423.524 206.73 422.734 207.304 422.897C207.664 423 208.255 423.18 209.857 439.163C210.02 439.661 211.142 443.343 210.379 446.854C209.548 450.682 192.872 449.361 189.531 449.06C189.437 449.069 176.949 449.961 168.392 449.961V449.979H168.401Z" fill="#2F2E41"/>
<path d="M212.478 176.882H117.78L151.818 64.6163H189.574L212.478 176.882Z" fill="#DDDEDF"/>
<path d="M115.202 239.877C114.071 246.752 109.497 251.688 104.983 250.89C100.47 250.091 97.7201 243.877 98.8507 237.001C99.2619 234.246 100.35 231.645 102.02 229.405L107.176 200.332L121.215 203.276L114.637 231.619C115.502 234.298 115.699 237.13 115.21 239.877L115.202 239.877Z" fill="#F6A6A9"/>
<path d="M157.78 64.6335C157.78 64.6335 134.26 64.0154 131.784 70.2128C129.309 76.4188 100.221 224.04 100.221 224.04H119.407L157.78 64.6335Z" fill="#DDDEDF"/>
<path d="M162.773 53.4061C174.226 53.4061 183.51 44.1021 183.51 32.6251C183.51 21.1481 174.226 11.8441 162.773 11.8441C151.321 11.8441 142.037 21.1481 142.037 32.6251C142.037 44.1021 151.321 53.4061 162.773 53.4061Z" fill="#F6A6A9"/>
<path d="M166.028 7.14027C166.028 7.14027 139.407 46.8224 143.887 71.5776L128.401 61.8524C128.401 61.8524 139.305 11.7411 155.553 7.85271L166.028 7.13168L166.028 7.14027Z" fill="#2F2E41"/>
<path d="M192.795 176.882H130.654L96.6495 316.735C96.0242 322.64 99.7587 328.151 105.489 329.688C124.144 334.692 168.906 341.79 236.666 322.031C243.184 320.134 246.885 313.241 244.837 306.752L192.795 176.89L192.795 176.882Z" fill="#2F2E41"/>
<path d="M165.343 75.1227L182.559 66.2729C190.431 63.3545 199.21 64.333 206.251 68.9253C227.664 82.8823 269.874 113.655 251.732 128.865C227.827 148.916 195.51 113.354 195.51 113.354L165.343 75.1227Z" fill="#DDDEDF"/>
<path d="M164.966 90.247C158.979 86.7106 156.041 80.6505 158.414 76.7106C160.786 72.7793 167.561 72.4617 173.557 75.9982C175.973 77.3801 178.003 79.3372 179.476 81.7063L204.658 97.0367L196.846 109.088L172.846 92.6933C170.037 92.5303 167.33 91.6891 164.958 90.2384H164.966L164.966 90.247Z" fill="#F6A6A9"/>
<path d="M182.08 104.144L189.24 87.0024L224.229 98.6075L208.581 124.71L182.08 104.144Z" fill="#DDDEDF"/>
<path fill-rule="evenodd" clip-rule="evenodd" d="M88.2224 39.4847H115.631V60.3788C127.019 62.3143 137.601 66.6204 146.854 72.7731L163.798 55.7936L183.178 75.2162L166.838 91.5913C174.551 101.799 179.921 113.882 182.148 127.038H202.997V154.505H182.148C180.391 164.885 176.678 174.597 171.401 183.247L190.887 202.775L171.506 222.197L153.333 203.985C142.676 212.699 129.775 218.76 115.631 221.164V242.917H88.2224V221.164C75.0947 218.933 63.0372 213.551 52.8517 205.822L36.5116 222.197L17.1306 202.775L34.0733 185.795C27.9338 176.522 23.6373 165.917 21.706 154.505H0V127.038H21.706C23.7494 114.963 28.4415 103.792 35.1624 94.145L16.274 75.2162L35.6551 55.7936L54.3979 74.5766C64.2492 67.4603 75.753 62.4983 88.2224 60.3788V39.4847ZM101.927 172.531C118.957 172.531 132.762 158.312 132.762 140.772C132.762 123.231 118.957 109.012 101.927 109.012C84.8971 109.012 71.0918 123.231 71.0918 140.772C71.0918 158.312 84.8971 172.531 101.927 172.531Z" fill="#0089DC"/>
</svg>
