<svg width="481" height="347" viewBox="0 0 481 347" fill="none" xmlns="http://www.w3.org/2000/svg">
<path d="M299.776 346.815C304.511 336.6 309.242 326.234 311.297 315.165C313.352 304.097 312.49 292.085 306.604 282.485C300.719 272.885 289.13 266.375 278.072 268.545C268.988 270.327 261.695 277.473 257.425 285.676C253.154 293.879 251.441 303.131 249.78 312.226C249.243 301.893 248.675 291.393 245.238 281.632C241.801 271.871 235.034 262.775 225.389 258.997C215.745 255.22 203.199 258.191 198.115 267.206C190.954 279.908 200.45 297.725 192.215 309.761C190.802 297.688 178.163 288.15 166.15 290.091C154.137 292.033 145.153 305.066 147.624 316.967C149.095 324.049 153.933 330.072 159.716 334.424C165.5 338.776 172.226 343.82 178.88 346.672L299.776 346.815Z" fill="#F2F2F2"/>
<path d="M153.932 298.621C163.474 301.952 173.104 305.321 181.816 310.53C189.624 315.198 196.577 321.483 200.968 329.532C203.374 333.85 204.802 338.642 205.152 343.571C205.216 344.602 206.831 344.609 206.767 343.571C206.202 334.392 201.724 325.992 195.522 319.348C188.722 312.065 179.911 307.09 170.813 303.23C165.419 300.942 159.891 298.997 154.361 297.066C153.378 296.723 152.956 298.28 153.932 298.621Z" fill="white"/>
<path d="M208.973 260.598C214.836 270.353 219.531 280.763 222.961 291.613C226.398 302.459 228.564 313.667 229.413 325.012C229.883 331.363 229.935 337.737 229.567 344.095C229.507 345.132 231.121 345.128 231.181 344.095C231.832 332.633 231.138 321.134 229.112 309.833C227.089 298.533 223.764 287.505 219.203 276.969C216.643 271.051 213.692 265.31 210.367 259.784C210.256 259.607 210.079 259.481 209.876 259.431C209.672 259.381 209.458 259.413 209.277 259.518C209.096 259.624 208.963 259.795 208.907 259.997C208.85 260.198 208.874 260.414 208.973 260.598Z" fill="white"/>
<path d="M287.985 269.86C279.692 288.47 273.857 308.077 270.624 328.19C269.717 333.839 269.014 339.516 268.517 345.221C268.427 346.255 270.042 346.249 270.131 345.221C271.889 325.154 276.231 305.396 283.051 286.438C284.967 281.108 287.076 275.853 289.379 270.674C289.797 269.734 288.406 268.912 287.985 269.86Z" fill="white"/>
<path d="M57.0773 345.609C40.5382 341.31 25.9233 331.589 15.5754 318.004C5.22747 304.419 -0.254215 287.757 0.0090594 270.689C0.0746498 266.437 0.522304 262.095 2.31205 258.236C4.1018 254.377 7.42623 251.039 11.5847 250.125C16.1231 249.127 20.9121 251.167 24.2942 254.35C27.6764 257.533 29.894 261.732 31.9343 265.903C44.2236 291.021 53.5607 317.973 57.0565 345.711L57.0773 345.609Z" fill="#F2F2F2"/>
<path d="M9.52579 250.963L26.7518 290.055C29.4796 296.246 32.2022 302.439 35.0216 308.588C37.8163 314.684 40.7067 320.737 43.7903 326.692C46.8694 332.639 50.142 338.489 53.6942 344.168C54.1366 344.875 54.5833 345.58 55.0343 346.282C55.3465 346.768 56.1268 346.317 55.8124 345.827C52.1921 340.191 48.8561 334.376 45.7274 328.454C42.5952 322.526 39.6677 316.491 36.8484 310.409C34.014 304.294 31.2887 298.13 28.5705 291.962C25.7094 285.471 22.8488 278.979 19.9887 272.487L10.3038 250.509C10.0707 249.98 9.29416 250.437 9.52579 250.963Z" fill="white"/>
<path d="M53.4843 345.745C43.7354 347.973 33.5201 346.866 24.4758 342.603C15.4316 338.341 8.08215 331.168 3.60571 322.236C2.49038 320.01 1.5493 317.636 1.43546 315.149C1.32162 312.663 2.14547 310.034 4.05733 308.438C6.14385 306.696 9.18158 306.464 11.7979 307.204C14.4142 307.945 16.7006 309.528 18.887 311.142C32.0565 320.87 44.1888 332.345 53.5009 345.804L53.4843 345.745Z" fill="#F2F2F2"/>
<path d="M3.21492 309.428L22.7245 325.079C25.8138 327.558 28.9012 330.039 32.0271 332.472C35.1256 334.883 38.2623 337.246 41.4729 339.506C44.679 341.764 47.9592 343.919 51.3384 345.909C51.7592 346.157 52.1815 346.402 52.6054 346.645C52.8988 346.813 53.1821 346.369 52.8866 346.199C49.4834 344.249 46.1799 342.13 42.9549 339.899C39.7263 337.666 36.5755 335.322 33.4678 332.924C30.3434 330.514 27.2623 328.048 24.1842 325.579C20.9442 322.98 17.7044 320.381 14.4648 317.782L3.49612 308.983C3.23213 308.771 2.95255 309.218 3.21492 309.428Z" fill="white"/>
<path d="M468.677 347H23.5007C23.4164 347 23.3328 346.984 23.2549 346.952C23.1769 346.92 23.1061 346.873 23.0464 346.813C22.9867 346.754 22.9393 346.683 22.907 346.605C22.8747 346.528 22.8581 346.444 22.8581 346.36C22.8581 346.276 22.8747 346.192 22.907 346.115C22.9393 346.037 22.9867 345.966 23.0464 345.907C23.1061 345.847 23.1769 345.8 23.2549 345.768C23.3328 345.736 23.4164 345.72 23.5007 345.72H468.677C468.847 345.72 469.01 345.788 469.13 345.908C469.25 346.028 469.318 346.19 469.318 346.36C469.318 346.53 469.25 346.693 469.13 346.813C469.01 346.933 468.847 347 468.677 347Z" fill="#3F3D56"/>
<path d="M456.982 282.884H426.843C426.843 283.24 426.701 283.582 426.449 283.834C426.196 284.086 425.854 284.227 425.497 284.227H395.912C395.494 284.542 395.113 284.902 394.777 285.302C393.765 286.507 393.213 288.03 393.216 289.602V290.677C393.217 292.459 393.926 294.167 395.187 295.427C396.448 296.687 398.159 297.395 399.942 297.395H456.982C458.766 297.394 460.476 296.686 461.737 295.426C462.998 294.166 463.707 292.458 463.709 290.677V289.602C463.706 287.821 462.997 286.114 461.736 284.854C460.475 283.595 458.765 282.886 456.982 282.884Z" fill="#3F3D56"/>
<path d="M432.227 297.129H425.231V346.576H432.227V297.129Z" fill="#3F3D56"/>
<path d="M452.137 346.33C452.137 347.085 441.536 346.622 428.46 346.622C415.383 346.622 404.783 347.085 404.783 346.33C404.783 345.575 415.383 339.589 428.46 339.589C441.536 339.589 452.137 345.575 452.137 346.33Z" fill="#3F3D56"/>
<path d="M455.664 284.432L454.491 277.101C454.342 276.177 453.833 275.349 453.074 274.8C452.315 274.251 451.37 274.025 450.444 274.171L438.342 276.101L410.871 280.481H425.497C425.854 280.481 426.196 280.623 426.449 280.875C426.701 281.127 426.843 281.469 426.843 281.825L426.843 282.884C426.843 283.24 426.701 283.582 426.449 283.834C426.196 284.086 425.854 284.227 425.497 284.227H388.276C387.757 284.47 387.307 284.84 386.969 285.302C386.682 285.678 386.476 286.109 386.361 286.567C386.246 287.025 386.226 287.502 386.301 287.968L387.038 292.585L387.474 295.305C387.623 296.226 388.131 297.052 388.887 297.6C389.644 298.148 390.587 298.374 391.51 298.229L428.861 292.273L452.731 288.468C453.654 288.318 454.481 287.809 455.03 287.053C455.579 286.297 455.807 285.355 455.664 284.432Z" fill="#0089DC"/>
<path d="M400.389 285.302C400.035 284.833 399.567 284.463 399.028 284.227H388.739C388.198 284.461 387.727 284.832 387.372 285.302C386.893 285.915 386.634 286.67 386.635 287.447V328.408C386.636 329.341 387.008 330.235 387.669 330.895C388.33 331.555 389.225 331.927 390.16 331.928H397.602C398.536 331.927 399.432 331.555 400.093 330.895C400.753 330.235 401.125 329.341 401.126 328.408V287.447C401.127 286.67 400.867 285.915 400.389 285.302Z" fill="#0089DC"/>
<path d="M422.785 215.539L422.715 215.447L418.098 209.766C417.853 209.461 417.556 209.201 417.221 208.997C417.044 208.878 416.852 208.78 416.651 208.707C416.356 208.589 416.047 208.513 415.731 208.482C415.52 208.459 415.307 208.456 415.096 208.471C415.092 208.471 415.088 208.473 415.085 208.476C414.371 208.529 413.691 208.799 413.137 209.25L403.661 216.925L391.483 226.793L371.988 242.595H394.981L396.31 241.52L400.707 237.956L401.019 237.709L422.252 220.505L422.269 220.494C422.706 220.143 423.051 219.691 423.275 219.177C423.423 218.841 423.517 218.484 423.555 218.118C423.604 217.659 423.561 217.194 423.429 216.751C423.297 216.309 423.078 215.896 422.785 215.539Z" fill="#0089DC"/>
<path d="M422.715 215.447C422.418 213.999 421.759 212.649 420.8 211.524C419.843 210.39 418.611 209.52 417.221 208.997C417.006 208.917 416.796 208.842 416.581 208.783C416.095 208.638 415.598 208.534 415.096 208.471C415.092 208.471 415.088 208.473 415.085 208.476C412.821 208.215 410.544 208.843 408.735 210.228L392.344 222.741C391.996 223.052 391.715 223.429 391.516 223.851C391.317 224.273 391.205 224.731 391.188 225.197C391.162 225.745 391.263 226.291 391.483 226.793C391.537 226.906 391.596 227.019 391.661 227.126C391.787 227.345 391.938 227.547 392.113 227.728L394.739 230.674L400.846 237.516L401.019 237.709L401.412 238.155C401.724 238.498 402.101 238.775 402.522 238.971C402.942 239.168 403.396 239.28 403.86 239.3C404.323 239.32 404.786 239.249 405.222 239.091C405.658 238.932 406.058 238.689 406.4 238.376L420.536 223.208C421.27 222.421 421.852 221.504 422.252 220.505C422.898 218.9 423.059 217.142 422.715 215.447Z" fill="#2F2E41"/>
<path d="M428.965 195.985C443.861 195.985 455.936 183.924 455.936 169.046C455.936 154.168 443.861 142.107 428.965 142.107C414.069 142.107 401.993 154.168 401.993 169.046C401.993 183.924 414.069 195.985 428.965 195.985Z" fill="#0089DC"/>
<path d="M439.079 280.723L438.342 276.101L437.906 273.387C437.758 272.464 437.249 271.638 436.491 271.09C435.733 270.542 434.789 270.316 433.865 270.463L414.262 273.585L407.869 274.607V280.481L425.497 280.481C425.854 280.481 426.196 280.623 426.449 280.875C426.701 281.127 426.843 281.469 426.843 281.825L426.843 282.884C426.843 283.24 426.701 283.582 426.449 283.834C426.196 284.086 425.854 284.227 425.497 284.227L369.711 284.227C369.711 284.238 369.717 284.249 369.717 284.26L370.89 291.591C371.038 292.512 371.546 293.338 372.303 293.886C373.059 294.434 374.003 294.66 374.926 294.515L387.038 292.585L410.71 288.807L425.917 286.383L426.143 286.345L436.147 284.754C437.07 284.606 437.897 284.099 438.447 283.344C438.996 282.588 439.224 281.646 439.079 280.723Z" fill="#0089DC"/>
<path d="M465.673 260.955C465.673 282.916 463.44 296.052 429 292.289C428.952 292.284 428.909 292.279 428.861 292.273C422.718 291.667 416.643 290.507 410.71 288.807C407.627 287.907 404.63 286.735 401.756 285.302C401.078 284.958 400.427 284.598 399.786 284.227H425.497C425.854 284.227 426.196 284.086 426.449 283.834C426.701 283.582 426.843 283.24 426.843 282.884L426.843 281.825C426.843 281.469 426.701 281.127 426.449 280.875C426.196 280.623 425.854 280.481 425.497 280.481L407.869 280.481V246.535C407.868 245.49 407.451 244.489 406.712 243.75C405.973 243.012 404.97 242.596 403.925 242.595H389.584C389.708 242.24 389.831 241.88 389.966 241.52C391.311 237.802 392.906 234.178 394.739 230.674C397.25 225.807 400.239 221.202 403.661 216.925C406.044 213.945 408.719 211.21 411.646 208.761C417.044 204.311 422.92 201.559 428.882 201.559C450.869 201.559 465.673 238.994 465.673 260.955Z" fill="#2F2E41"/>
<path d="M429.531 179.03L429.559 178.024C427.684 177.972 426.031 177.854 424.789 176.948C424.437 176.676 424.147 176.332 423.94 175.939C423.733 175.545 423.613 175.112 423.589 174.668C423.567 174.397 423.608 174.125 423.709 173.872C423.81 173.619 423.968 173.393 424.17 173.211C424.995 172.516 426.321 172.741 427.288 173.184L428.122 173.566L426.523 161.893L425.525 162.029L426.885 171.959C426.328 171.752 425.728 171.689 425.141 171.773C424.553 171.858 423.995 172.088 423.519 172.442C423.199 172.722 422.948 173.071 422.785 173.463C422.623 173.856 422.553 174.28 422.582 174.704C422.611 175.3 422.771 175.882 423.049 176.41C423.328 176.939 423.719 177.399 424.195 177.761C425.791 178.926 427.865 178.984 429.531 179.03Z" fill="#2F2E41"/>
<path d="M420.586 162.886H415.158V163.892H420.586V162.886Z" fill="#2F2E41"/>
<path d="M437.721 162.886H432.292V163.892H437.721V162.886Z" fill="#2F2E41"/>
<path d="M450.49 161.644C448.392 158.49 444.701 157.153 441.062 156.828C436.965 156.462 433.007 157.251 429.007 158.018C424.605 158.861 419.946 159.651 415.51 158.584C413.548 158.131 411.715 157.238 410.148 155.974C408.581 154.71 407.323 153.107 406.466 151.287C404.842 147.734 404.492 143.732 405.475 139.952C406.515 135.932 409.095 132.395 412.222 129.723C418.606 124.27 427.244 121.82 435.553 122.051C443.83 122.264 451.83 125.074 458.42 130.081C465.02 135.27 469.665 142.54 471.596 150.705C473.615 158.802 472.957 167.335 469.721 175.029C467.902 179.242 465.273 183.04 463.244 187.146C461.355 190.97 459.9 195.415 461.075 199.68C462.107 203.423 465.135 206.747 468.937 207.763C470.666 208.217 472.497 208.097 474.152 207.422C475.808 206.747 477.199 205.553 478.117 204.02C480.018 201.027 480.063 197.106 477.21 194.69C476.49 194.07 475.652 193.603 474.746 193.318C473.841 193.032 472.886 192.933 471.941 193.027C470.996 193.121 470.08 193.407 469.248 193.865C468.417 194.324 467.688 194.947 467.105 195.697C465.948 197.198 465.429 199.095 465.663 200.976C465.804 201.927 464.347 202.337 464.205 201.378C463.865 199.389 464.242 197.343 465.271 195.606C466.299 193.869 467.912 192.553 469.821 191.893C471.73 191.233 473.812 191.271 475.696 192C477.579 192.73 479.142 194.104 480.107 195.877C481.827 199.109 480.899 203.007 478.715 205.769C477.588 207.24 476.06 208.356 474.315 208.983C472.569 209.61 470.68 209.721 468.873 209.304C464.897 208.387 461.644 205.23 460.114 201.521C458.412 197.391 459.192 192.783 460.852 188.776C462.646 184.445 465.311 180.56 467.419 176.386C469.327 172.614 470.541 168.53 471.004 164.329C471.929 155.893 470.012 147.39 465.556 140.164C461.014 133.051 454.082 127.788 446.004 125.322C437.984 122.748 429.327 122.977 421.455 125.97C413.772 128.993 406.354 135.582 406.444 144.431C406.482 148.211 407.886 152.066 410.785 154.587C414.249 157.6 419.073 157.857 423.428 157.387C427.81 156.914 432.066 155.636 436.467 155.31C440.296 155.026 444.426 155.321 447.844 157.22C449.436 158.107 450.791 159.363 451.796 160.882C452.335 161.694 451.027 162.451 450.49 161.644Z" fill="#2F2E41"/>
<path d="M444.999 223.241L438.886 219C438.117 218.469 437.168 218.264 436.248 218.43C435.328 218.597 434.512 219.12 433.978 219.887L407.869 257.418V280.481H407.966C408.805 280.398 409.586 280.017 410.167 279.406C410.291 279.278 410.405 279.14 410.506 278.992L414.262 273.585L433.166 246.416L445.876 228.142C445.94 228.052 445.999 227.959 446.053 227.863C446.107 227.771 446.155 227.676 446.198 227.578C446.537 226.829 446.602 225.985 446.383 225.193C446.164 224.401 445.674 223.71 444.999 223.241Z" fill="#0089DC"/>
<path d="M445.036 215.866C444.656 215.617 444.256 215.398 443.842 215.211C442.003 214.369 439.931 214.185 437.973 214.691C436.015 215.196 434.291 216.359 433.09 217.984L420.843 234.57C420.597 234.965 420.432 235.405 420.358 235.864C420.284 236.324 420.302 236.793 420.411 237.245C420.52 237.697 420.718 238.123 420.993 238.498C421.269 238.873 421.617 239.19 422.016 239.429L433.166 246.416L433.305 246.502L433.865 246.852C434.665 247.335 435.625 247.482 436.534 247.26C437.442 247.039 438.226 246.467 438.713 245.669L447.361 228.524L447.506 228.239L447.512 228.234L448.044 227.164C449.016 225.24 449.246 223.026 448.692 220.944C448.137 218.861 446.836 217.054 445.036 215.866Z" fill="#2F2E41"/>
<path d="M370.05 284.227V324.694C370.052 325.627 370.424 326.521 371.084 327.181C371.745 327.841 372.641 328.213 373.575 328.214H381.017C381.951 328.213 382.847 327.841 383.508 327.181C384.169 326.522 384.54 325.627 384.542 324.694V284.227H370.05Z" fill="#0089DC"/>
<path d="M425.497 279.406H408.945V246.535C408.944 245.205 408.414 243.93 407.473 242.99C406.532 242.05 405.256 241.521 403.925 241.52H342.542C341.21 241.52 339.933 242.049 338.99 242.989C338.048 243.929 337.518 245.204 337.516 246.535V280.288C337.518 281.618 338.048 282.893 338.99 283.834C339.933 284.774 341.21 285.302 342.542 285.302H425.497C425.584 285.302 425.664 285.297 425.745 285.292C425.82 285.286 425.896 285.27 425.971 285.259C426.52 285.148 427.014 284.851 427.369 284.418C427.724 283.985 427.918 283.443 427.919 282.884V281.825C427.919 281.183 427.664 280.568 427.21 280.115C426.756 279.661 426.14 279.406 425.497 279.406ZM425.497 284.227H342.542C341.496 284.227 340.492 283.812 339.752 283.073C339.011 282.335 338.594 281.333 338.592 280.288V246.535C338.594 245.489 339.011 244.487 339.752 243.749C340.492 243.01 341.496 242.595 342.542 242.595H403.925C404.97 242.596 405.973 243.012 406.712 243.75C407.451 244.489 407.868 245.49 407.869 246.535V280.481L425.497 280.481C425.854 280.481 426.196 280.623 426.449 280.875C426.701 281.127 426.843 281.469 426.843 281.825L426.843 282.884C426.843 283.24 426.701 283.582 426.449 283.834C426.196 284.086 425.854 284.227 425.497 284.227Z" fill="#3F3D56"/>
<path d="M373.231 267.545C375.517 267.545 377.369 265.694 377.369 263.412C377.369 261.129 375.517 259.278 373.231 259.278C370.946 259.278 369.093 261.129 369.093 263.412C369.093 265.694 370.946 267.545 373.231 267.545Z" fill="#0089DC"/>
<path d="M65.6478 194.21C81.5532 194.21 94.4471 181.331 94.4471 165.445C94.4471 149.558 81.5532 136.68 65.6478 136.68C49.7424 136.68 36.8485 149.558 36.8485 165.445C36.8485 181.331 49.7424 194.21 65.6478 194.21Z" fill="#0089DC"/>
<path d="M60.0337 273.655H52.0913C51.164 273.656 50.2748 274.025 49.619 274.68C48.9633 275.335 48.5945 276.223 48.5936 277.149V343.263C48.5945 344.19 48.9633 345.078 49.619 345.733C50.2748 346.388 51.164 346.756 52.0913 346.757H60.0337C60.9611 346.756 61.8503 346.388 62.506 345.733C63.1618 345.078 63.5306 344.19 63.5315 343.263V277.149C63.5306 276.223 63.1618 275.335 62.506 274.68C61.8503 274.025 60.9611 273.656 60.0337 273.655Z" fill="#2F2E41"/>
<path d="M76.8174 273.655H68.875C67.9476 273.656 67.0585 274.025 66.4027 274.68C65.7469 275.335 65.3781 276.223 65.3773 277.149V343.263C65.3781 344.19 65.7469 345.078 66.4027 345.733C67.0585 346.388 67.9476 346.756 68.875 346.757H76.8174C77.2767 346.757 77.7316 346.666 78.1559 346.491C78.5803 346.315 78.9659 346.058 79.2907 345.734C79.6155 345.409 79.8731 345.024 80.0489 344.6C80.2247 344.176 80.3151 343.722 80.3151 343.263V277.149C80.3151 276.69 80.2247 276.236 80.0489 275.812C79.8731 275.388 79.6155 275.003 79.2907 274.679C78.9659 274.354 78.5803 274.097 78.1559 273.921C77.7316 273.746 77.2767 273.655 76.8174 273.655Z" fill="#2F2E41"/>
<path d="M82.5698 209.293C79.7864 205.7 75.9482 203.066 71.5922 201.76C67.2361 200.454 62.5802 200.54 58.2757 202.007C53.9712 203.474 50.2336 206.249 47.5857 209.942C44.9379 213.636 43.5123 218.064 43.5084 222.606V281.158C43.5062 281.337 43.5206 281.515 43.5514 281.69C43.6792 282.586 44.126 283.406 44.81 283.999C45.494 284.593 46.3692 284.92 47.2751 284.921H83.3664C84.3648 284.919 85.3217 284.522 86.0277 283.816C86.7336 283.111 87.1311 282.156 87.1332 281.158V222.606C87.1399 217.785 85.5338 213.099 82.5698 209.293Z" fill="#2F2E41"/>
<path d="M89.968 178.161L89.9381 177.086C91.9402 177.03 93.7054 176.905 95.0317 175.937C95.4078 175.647 95.7169 175.279 95.938 174.859C96.1591 174.439 96.2871 173.977 96.3132 173.503C96.3365 173.213 96.2926 172.922 96.185 172.653C96.0774 172.383 95.909 172.141 95.6928 171.947C94.8124 171.204 93.3956 171.445 92.363 171.918L91.4725 172.326L93.1802 159.861L94.2464 160.007L92.7939 170.61C94.197 170.198 95.4971 170.375 96.3875 171.126C96.7294 171.424 96.9977 171.797 97.1713 172.216C97.345 172.635 97.4194 173.088 97.3886 173.541C97.3572 174.177 97.1868 174.799 96.8893 175.363C96.5918 175.927 96.1745 176.419 95.6665 176.805C93.9624 178.049 91.7476 178.111 89.968 178.161Z" fill="#2F2E41"/>
<path d="M87.02 160.922H81.2237V161.997H87.02V160.922Z" fill="#2F2E41"/>
<path d="M57.2034 210.121C56.8927 209.782 56.5177 209.508 56.1002 209.315C55.6826 209.122 55.2308 209.014 54.7711 208.998L46.8392 208.67C45.9127 208.632 45.0089 208.963 44.326 209.589C43.6431 210.216 43.2368 211.087 43.1962 212.013L42.2062 235.833L40.4573 278.073C40.4216 278.955 40.7206 279.817 41.2943 280.488C41.868 281.159 42.6742 281.588 43.5514 281.69C43.6376 281.701 43.7183 281.707 43.8045 281.712L51.7416 282.04C51.9937 282.051 52.2463 282.035 52.4949 281.992C53.1524 281.874 53.7627 281.572 54.2546 281.121C54.5939 280.811 54.868 280.436 55.061 280.019C55.2541 279.602 55.3622 279.151 55.3791 278.691L57.1335 236.403L58.1236 212.631C58.1622 211.705 57.8312 210.803 57.2034 210.121Z" fill="#0089DC"/>
<path d="M52.6187 204.907C51.9499 204.766 51.268 204.696 50.5845 204.698C47.9452 204.701 45.4149 205.75 43.5487 207.614C41.6824 209.478 40.6326 212.005 40.6294 214.641V232.915C40.6309 233.494 40.7757 234.063 41.0508 234.572C41.3259 235.081 41.7228 235.515 42.2062 235.833C42.6003 236.093 43.0435 236.268 43.5084 236.349C43.7123 236.388 43.9195 236.408 44.1271 236.409H57.0418C57.0725 236.41 57.1032 236.408 57.1335 236.403C58.0444 236.38 58.9102 236.002 59.5465 235.351C60.1827 234.699 60.539 233.825 60.5395 232.915V214.641C60.5366 212.357 59.7481 210.144 58.3061 208.372C56.8641 206.6 54.8561 205.377 52.6187 204.907Z" fill="#2F2E41"/>
<path d="M121.594 256.951C120.75 256.515 120.087 255.796 119.723 254.919C119.358 254.043 119.316 253.066 119.603 252.162L122.665 242.428L121.771 241.687L98.2719 222.268L82.5698 209.293L80.6596 207.713C79.9452 207.122 79.0252 206.839 78.1019 206.926C77.1786 207.012 76.3275 207.462 75.7359 208.175L70.6722 214.292C70.3786 214.645 70.1576 215.052 70.0219 215.49C69.8862 215.929 69.8385 216.39 69.8815 216.846C69.9245 217.303 70.0573 217.747 70.2724 218.153C70.4875 218.558 70.7806 218.917 71.1349 219.209L87.1332 232.431L88.9519 233.931L122.137 261.353C122.751 261.862 123.521 262.146 124.319 262.158C125.116 262.169 125.894 261.908 126.523 261.417C126.696 261.282 126.855 261.129 126.996 260.96C127.019 260.938 127.041 260.915 127.061 260.89L127.701 260.116L121.594 256.951Z" fill="#0089DC"/>
<path d="M97.1419 218.538L82.9844 206.966C81.9728 206.139 80.808 205.519 79.5565 205.141C78.3049 204.763 76.9912 204.636 75.6903 204.765C74.3893 204.895 73.1267 205.279 71.9744 205.896C70.8221 206.513 69.8028 207.35 68.9745 208.361C68.1463 209.371 67.5255 210.534 67.1474 211.784C66.7693 213.034 66.6415 214.347 66.7711 215.646C67.033 218.27 68.3278 220.683 70.3708 222.354L84.5286 233.925C85.1522 234.436 85.9332 234.715 86.7393 234.716C87.5454 234.717 88.3271 234.439 88.9519 233.931C89.1382 233.787 89.3062 233.621 89.4522 233.436L97.6316 223.456C97.9211 223.105 98.1387 222.702 98.2719 222.268C98.4733 221.604 98.4735 220.896 98.2723 220.232C98.0712 219.568 97.6779 218.979 97.1419 218.538Z" fill="#2F2E41"/>
<path d="M58.4277 170.315C56.928 167.813 55.7544 165.056 56.3114 162.091C56.8089 159.443 58.7164 157.381 61.4594 157.111C63.1112 156.948 64.7552 157.388 66.3686 157.675C67.691 157.907 69.0349 157.994 70.3764 157.934C73.0754 157.812 75.7212 157.142 78.1527 155.965C80.6207 154.811 82.8127 153.143 84.5815 151.073C86.3503 149.003 87.6547 146.578 88.4072 143.963C90.0439 138.011 88.8287 131.252 84.9415 126.407L86.2906 126.052L84.5341 131.816C84.4998 131.934 84.4392 132.043 84.3568 132.134C84.2743 132.226 84.1722 132.297 84.0581 132.344C83.944 132.39 83.8209 132.41 83.6979 132.402C83.575 132.394 83.4555 132.358 83.3483 132.297C80.1648 130.288 76.6057 128.946 72.8872 128.352C69.1686 127.758 65.368 127.925 61.7159 128.843C59.6523 129.361 57.6592 130.127 55.78 131.123C54.8631 131.61 54.0466 130.219 54.9652 129.731C58.4947 127.892 62.3611 126.787 66.3303 126.484C70.2996 126.18 74.2893 126.684 78.0581 127.964C80.2045 128.695 82.2544 129.682 84.1631 130.905L82.9774 131.387L84.7339 125.623C84.7731 125.488 84.8465 125.366 84.9471 125.268C85.0476 125.17 85.1718 125.099 85.3077 125.064C85.4435 125.028 85.5863 125.028 85.7222 125.063C85.8581 125.099 85.9824 125.169 86.083 125.267C87.891 127.558 89.2159 130.19 89.9781 133.006C90.7402 135.822 90.9238 138.762 90.5177 141.651C90.1253 144.498 89.1348 147.23 87.6113 149.667C86.0878 152.105 84.0656 154.194 81.6773 155.796C79.2914 157.405 76.6098 158.525 73.7876 159.092C70.9655 159.658 68.0589 159.66 65.236 159.098C63.6562 158.794 61.8645 158.36 60.3144 159.021C59.7522 159.292 59.2566 159.683 58.8628 160.167C58.4691 160.65 58.1868 161.215 58.036 161.82C57.1576 164.793 58.6523 167.616 60.179 170.088L58.4277 170.315Z" fill="#2F2E41"/>
<path d="M163.491 229.868L136.871 214.48C136.208 214.097 135.467 213.868 134.703 213.809C133.94 213.75 133.173 213.864 132.459 214.141C131.745 214.418 131.103 214.851 130.579 215.41C130.056 215.968 129.664 216.636 129.434 217.366L121.771 241.687L118.575 251.839C118.213 252.985 118.267 254.221 118.729 255.331C119.191 256.44 120.03 257.351 121.099 257.902L126.996 260.96L146.239 270.93C146.967 271.309 147.776 271.506 148.596 271.505C149.202 271.504 149.803 271.397 150.372 271.188L150.41 271.172C151.082 270.916 151.693 270.521 152.203 270.013C152.712 269.506 153.11 268.897 153.369 268.227L165.703 236.113C166.142 234.98 166.161 233.727 165.755 232.581C165.35 231.435 164.546 230.473 163.491 229.868ZM164.696 235.731L152.363 267.845C152.158 268.375 151.843 268.855 151.44 269.255C151.037 269.655 150.553 269.966 150.022 270.167L149.995 270.178C149.468 270.373 148.905 270.455 148.344 270.421C147.782 270.387 147.234 270.236 146.734 269.979L127.701 260.116L121.594 256.951C120.75 256.515 120.087 255.796 119.723 254.919C119.358 254.043 119.316 253.066 119.603 252.162L122.665 242.428L130.456 217.688C130.639 217.113 130.949 216.587 131.363 216.147C131.776 215.707 132.283 215.365 132.846 215.146C133.409 214.928 134.014 214.838 134.617 214.884C135.219 214.929 135.804 215.109 136.327 215.41L162.948 230.797C163.782 231.275 164.417 232.035 164.738 232.941C165.058 233.846 165.044 234.836 164.696 235.731Z" fill="#3F3D56"/>
<path d="M154.56 240.157C154.29 240.157 154.025 240.089 153.788 239.96L136.03 230.285C135.656 230.08 135.378 229.734 135.259 229.325C135.139 228.915 135.186 228.475 135.391 228.1C135.595 227.725 135.94 227.447 136.35 227.326C136.76 227.205 137.201 227.251 137.576 227.454L155.334 237.129C155.649 237.3 155.898 237.572 156.041 237.9C156.184 238.229 156.214 238.596 156.125 238.943C156.036 239.291 155.834 239.598 155.551 239.818C155.267 240.038 154.919 240.157 154.56 240.157Z" fill="#0089DC"/>
<path d="M151.331 247.144C151.061 247.144 150.796 247.076 150.559 246.947L132.802 237.272C132.427 237.067 132.15 236.721 132.03 236.312C131.91 235.902 131.958 235.462 132.162 235.087C132.367 234.713 132.712 234.434 133.121 234.313C133.531 234.192 133.972 234.238 134.348 234.441L152.105 244.116C152.42 244.287 152.669 244.559 152.813 244.888C152.956 245.216 152.985 245.583 152.897 245.93C152.808 246.278 152.606 246.586 152.322 246.805C152.039 247.025 151.69 247.144 151.331 247.144Z" fill="#0089DC"/>
<path d="M148.64 254.669C148.371 254.669 148.105 254.601 147.869 254.471L130.111 244.797C129.737 244.591 129.459 244.246 129.339 243.836C129.219 243.427 129.267 242.986 129.472 242.612C129.676 242.237 130.021 241.959 130.431 241.838C130.84 241.717 131.281 241.763 131.657 241.966L149.415 251.64C149.73 251.812 149.979 252.084 150.122 252.412C150.265 252.741 150.295 253.108 150.206 253.455C150.117 253.802 149.915 254.11 149.632 254.33C149.348 254.55 148.999 254.669 148.64 254.669Z" fill="#0089DC"/>
<path d="M336.427 102.411H261.775C260.702 102.41 259.674 101.984 258.915 101.226C258.156 100.468 257.729 99.4405 257.728 98.3688V4.04255C257.729 2.97077 258.156 1.94324 258.915 1.18538C259.674 0.427518 260.702 0.00121911 261.775 0H336.427C337.5 0.00122621 338.529 0.427528 339.287 1.18539C340.046 1.94325 340.473 2.97077 340.474 4.04255V98.3688C340.473 99.4405 340.046 100.468 339.287 101.226C338.529 101.984 337.5 102.41 336.427 102.411ZM261.775 0.898347C260.941 0.899282 260.141 1.23085 259.551 1.8203C258.96 2.40975 258.628 3.20894 258.628 4.04255V98.3688C258.628 99.2024 258.96 100.002 259.551 100.591C260.141 101.18 260.941 101.512 261.775 101.513H336.427C337.261 101.512 338.062 101.18 338.652 100.591C339.242 100.002 339.574 99.2024 339.575 98.3688V4.04255C339.574 3.20894 339.242 2.40975 338.652 1.8203C338.062 1.23085 337.261 0.899283 336.427 0.898347H261.775Z" fill="#3F3D56"/>
<path d="M292.891 45.3402H276.459C275.922 45.3396 275.408 45.1265 275.029 44.7476C274.649 44.3686 274.436 43.8548 274.435 43.319V23.9508C274.436 23.4149 274.649 22.9011 275.029 22.5222C275.408 22.1433 275.922 21.9301 276.459 21.9295H292.891C293.428 21.9301 293.942 22.1433 294.322 22.5222C294.701 22.9011 294.914 23.4149 294.915 23.9508V43.319C294.914 43.8548 294.701 44.3686 294.322 44.7476C293.942 45.1265 293.428 45.3396 292.891 45.3402Z" fill="#0089DC"/>
<path d="M324.82 54.3237H308.388C307.852 54.3231 307.337 54.1099 306.958 53.731C306.579 53.3521 306.365 52.8383 306.365 52.3024V32.9343C306.365 32.3984 306.579 31.8846 306.958 31.5057C307.337 31.1267 307.852 30.9136 308.388 30.913H324.82C325.357 30.9136 325.871 31.1267 326.251 31.5057C326.63 31.8846 326.844 32.3984 326.844 32.9343V52.3024C326.844 52.8383 326.63 53.3521 326.251 53.731C325.871 54.1099 325.357 54.3231 324.82 54.3237Z" fill="#CCCCCC"/>
<path d="M299.187 81.7232H282.755C282.218 81.7226 281.704 81.5094 281.325 81.1305C280.945 80.7516 280.732 80.2378 280.731 79.7019V60.3338C280.732 59.7979 280.945 59.2841 281.325 58.9052C281.704 58.5262 282.218 58.3131 282.755 58.3125H299.187C299.724 58.3131 300.238 58.5262 300.617 58.9052C300.997 59.2841 301.21 59.7979 301.211 60.3338V79.7019C301.21 80.2378 300.997 80.7516 300.617 81.1305C300.238 81.5094 299.724 81.7226 299.187 81.7232Z" fill="#FF6584"/>
<path d="M239.05 76.9158C238.739 76.1797 238.22 75.5506 237.555 75.1065C236.89 74.6623 236.11 74.4224 235.31 74.4166H160.658C159.585 74.4171 158.556 74.8432 157.797 75.601C157.038 76.3589 156.612 77.3866 156.611 78.4583V172.785C156.612 173.856 157.038 174.884 157.797 175.642C158.556 176.4 159.585 176.826 160.658 176.826H235.31C236.383 176.825 237.411 176.399 238.17 175.641C238.928 174.883 239.355 173.856 239.357 172.785V78.4583C239.358 77.9289 239.254 77.4044 239.05 76.9158ZM238.458 172.785C238.457 173.618 238.125 174.417 237.535 175.007C236.945 175.596 236.145 175.928 235.31 175.929H160.658C159.823 175.929 159.022 175.597 158.432 175.008C157.842 174.418 157.51 173.618 157.51 172.785V78.4583C157.511 77.6248 157.843 76.8256 158.433 76.2362C159.023 75.6468 159.823 75.3152 160.658 75.3141H235.31C235.939 75.3165 236.553 75.5059 237.073 75.8582C237.593 76.2105 237.997 76.7097 238.232 77.292C238.278 77.4081 238.317 77.5265 238.35 77.6468C238.422 77.9114 238.458 78.1843 238.458 78.4583V172.785Z" fill="#3F3D56"/>
<path d="M223.469 96.6872H200.983C200.506 96.6872 200.049 96.4979 199.711 96.161C199.374 95.824 199.185 95.367 199.185 94.8905C199.185 94.414 199.374 93.957 199.711 93.62C200.049 93.2831 200.506 93.0938 200.983 93.0938H223.469C223.946 93.0938 224.403 93.2831 224.741 93.62C225.078 93.957 225.268 94.414 225.268 94.8905C225.268 95.367 225.078 95.824 224.741 96.161C224.403 96.4979 223.946 96.6872 223.469 96.6872Z" fill="#3F3D56"/>
<path d="M223.469 106.12H200.983C200.506 106.12 200.049 105.931 199.711 105.594C199.374 105.257 199.185 104.8 199.185 104.323C199.185 103.847 199.374 103.39 199.711 103.053C200.049 102.716 200.506 102.526 200.983 102.526H223.469C223.946 102.526 224.403 102.716 224.741 103.053C225.078 103.39 225.268 103.847 225.268 104.323C225.268 104.8 225.078 105.257 224.741 105.594C224.403 105.931 223.946 106.12 223.469 106.12Z" fill="#3F3D56"/>
<path d="M189.446 111.491H173.014C172.477 111.49 171.963 111.277 171.583 110.898C171.204 110.519 170.991 110.005 170.99 109.469V90.1014C170.991 89.5655 171.204 89.0517 171.583 88.6728C171.963 88.2938 172.477 88.0807 173.014 88.0801H189.446C189.983 88.0807 190.497 88.2938 190.876 88.6728C191.256 89.0517 191.469 89.5655 191.47 90.1014V109.469C191.469 110.005 191.256 110.519 190.876 110.898C190.497 111.277 189.983 111.49 189.446 111.491Z" fill="#0089DC"/>
<path d="M223.313 125.434H172.496C172.26 125.435 172.025 125.388 171.807 125.298C171.588 125.208 171.389 125.076 171.222 124.909C171.055 124.742 170.922 124.544 170.831 124.326C170.741 124.108 170.694 123.874 170.694 123.638C170.694 123.401 170.741 123.167 170.831 122.949C170.922 122.731 171.055 122.533 171.222 122.366C171.389 122.199 171.588 122.067 171.807 121.977C172.025 121.887 172.26 121.84 172.496 121.841H223.313C223.789 121.842 224.246 122.031 224.583 122.368C224.92 122.705 225.109 123.162 225.109 123.638C225.109 124.114 224.92 124.57 224.583 124.907C224.246 125.244 223.789 125.433 223.313 125.434Z" fill="#CCCCCC"/>
<path d="M223.313 134.867H172.496C172.26 134.867 172.025 134.821 171.807 134.731C171.588 134.641 171.389 134.509 171.222 134.342C171.055 134.175 170.922 133.977 170.831 133.758C170.741 133.54 170.694 133.306 170.694 133.07C170.694 132.834 170.741 132.6 170.831 132.382C170.922 132.164 171.055 131.965 171.222 131.799C171.389 131.632 171.588 131.499 171.807 131.409C172.025 131.319 172.26 131.273 172.496 131.273H223.313C223.79 131.273 224.248 131.463 224.585 131.8C224.922 132.137 225.112 132.594 225.112 133.07C225.112 133.547 224.922 134.004 224.585 134.341C224.248 134.678 223.79 134.867 223.313 134.867Z" fill="#CCCCCC"/>
<path d="M223.313 144.299H172.496C172.26 144.3 172.025 144.254 171.807 144.164C171.588 144.074 171.389 143.941 171.222 143.774C171.055 143.607 170.922 143.409 170.831 143.191C170.741 142.973 170.694 142.739 170.694 142.503C170.694 142.267 170.741 142.033 170.831 141.815C170.922 141.596 171.055 141.398 171.222 141.231C171.389 141.064 171.588 140.932 171.807 140.842C172.025 140.752 172.26 140.706 172.496 140.706H223.313C223.79 140.706 224.248 140.895 224.585 141.232C224.922 141.569 225.112 142.026 225.112 142.503C225.112 142.979 224.922 143.436 224.585 143.773C224.248 144.11 223.79 144.299 223.313 144.299Z" fill="#CCCCCC"/>
<path d="M223.313 153.732H172.496C172.26 153.733 172.025 153.686 171.807 153.596C171.588 153.506 171.389 153.374 171.222 153.207C171.055 153.04 170.922 152.842 170.831 152.624C170.741 152.406 170.694 152.172 170.694 151.935C170.694 151.699 170.741 151.465 170.831 151.247C170.922 151.029 171.055 150.831 171.222 150.664C171.389 150.497 171.588 150.365 171.807 150.275C172.025 150.184 172.26 150.138 172.496 150.139H223.313C223.79 150.139 224.248 150.328 224.585 150.665C224.922 151.002 225.112 151.459 225.112 151.935C225.112 152.412 224.922 152.869 224.585 153.206C224.248 153.543 223.79 153.732 223.313 153.732Z" fill="#CCCCCC"/>
<path d="M223.313 163.165H172.496C172.26 163.165 172.025 163.119 171.807 163.029C171.588 162.939 171.389 162.806 171.222 162.64C171.055 162.473 170.922 162.275 170.831 162.056C170.741 161.838 170.694 161.604 170.694 161.368C170.694 161.132 170.741 160.898 170.831 160.68C170.922 160.462 171.055 160.263 171.222 160.096C171.389 159.93 171.588 159.797 171.807 159.707C172.025 159.617 172.26 159.571 172.496 159.571H223.313C223.789 159.572 224.246 159.762 224.583 160.099C224.92 160.436 225.109 160.892 225.109 161.368C225.109 161.844 224.92 162.301 224.583 162.637C224.246 162.974 223.789 163.164 223.313 163.165Z" fill="#CCCCCC"/>
<path d="M295.635 112.713L253.078 153.181L253.698 153.832L296.255 113.364L295.635 112.713Z" fill="#E6E6E6"/>
<path d="M252.681 154.178L258.082 154.115L258.073 153.215L253.637 153.269L253.909 148.847L253.01 148.793L252.681 154.178Z" fill="#E6E6E6"/>
<path d="M296.651 112.365L296.323 117.751L295.424 117.697L295.695 113.275L291.26 113.329L291.25 112.43L296.651 112.365Z" fill="#E6E6E6"/>
<path d="M274.667 138.213C277.399 138.213 279.613 136.001 279.613 133.272C279.613 130.544 277.399 128.332 274.667 128.332C271.934 128.332 269.72 130.544 269.72 133.272C269.72 136.001 271.934 138.213 274.667 138.213Z" fill="#E6E6E6"/>
<path d="M238.595 17.0429L196.038 57.5116L196.658 58.1623L239.215 17.6936L238.595 17.0429Z" fill="#E6E6E6"/>
<path d="M195.641 58.5081L201.042 58.4446L201.033 57.5454L196.598 57.5986L196.869 53.1774L195.97 53.1231L195.641 58.5081Z" fill="#E6E6E6"/>
<path d="M239.611 16.6955L239.283 22.0809L238.384 22.0272L238.655 17.6054L234.22 17.6586L234.211 16.76L239.611 16.6955Z" fill="#E6E6E6"/>
<path d="M217.627 42.5435C220.359 42.5435 222.574 40.3313 222.574 37.6026C222.574 34.8738 220.359 32.6617 217.627 32.6617C214.895 32.6617 212.68 34.8738 212.68 37.6026C212.68 40.3313 214.895 42.5435 217.627 42.5435Z" fill="#E6E6E6"/>
<path d="M408.929 279.976H407.853V284.813H408.929V279.976Z" fill="#3F3D56"/>
</svg>
