<svg width="369" height="355" viewBox="0 0 369 355" fill="none" xmlns="http://www.w3.org/2000/svg">
<path d="M163.398 183.001L191.209 231.163H135.587L163.398 183.001Z" fill="#0089DC"/>
<path d="M84.3797 135.705H26.0622V194.012H84.3797V135.705Z" fill="white"/>
<path d="M126.183 98.5538C146.847 98.5538 163.599 81.8052 163.599 61.1446C163.599 40.4841 146.847 23.7355 126.183 23.7355C105.518 23.7355 88.7664 40.4841 88.7664 61.1446C88.7664 81.8052 105.518 98.5538 126.183 98.5538Z" fill="#0089DC"/>
<path d="M159.857 123.608C159.857 122.383 160.22 121.186 160.901 120.168C161.581 119.15 162.548 118.356 163.68 117.888C164.812 117.419 166.057 117.296 167.258 117.535C168.46 117.774 169.563 118.364 170.429 119.23C171.295 120.096 171.885 121.199 172.124 122.4C172.363 123.601 172.24 124.846 171.772 125.978C171.303 127.109 170.509 128.076 169.491 128.756C168.472 129.437 167.275 129.8 166.05 129.8C164.408 129.8 162.832 129.148 161.671 127.986C160.509 126.825 159.857 125.25 159.857 123.608ZM160.889 123.608C160.889 124.629 161.192 125.626 161.759 126.475C162.326 127.323 163.132 127.985 164.075 128.375C165.018 128.766 166.056 128.868 167.057 128.669C168.058 128.47 168.977 127.978 169.699 127.257C170.421 126.535 170.913 125.616 171.112 124.615C171.311 123.614 171.209 122.576 170.818 121.634C170.427 120.691 169.766 119.885 168.917 119.318C168.069 118.751 167.071 118.448 166.05 118.448C164.681 118.448 163.369 118.992 162.401 119.96C161.433 120.927 160.889 122.24 160.889 123.608Z" fill="#CCCCCC"/>
<path d="M106.538 231.314L97.4222 221.542L107.196 212.428L116.312 222.2L106.538 231.314ZM98.8755 221.593L106.589 229.861L114.859 222.149L107.145 213.881L98.8755 221.593Z" fill="#CCCCCC"/>
<path d="M31.2489 92.3036L23.8296 84.3507L31.7861 76.9339L39.2053 84.8868L31.2489 92.3036ZM25.012 84.392L31.2922 91.1236L38.023 84.8466L31.7448 78.117L25.012 84.392Z" fill="#CCCCCC"/>
<path d="M135.472 103.198C125.265 103.198 115.287 100.171 106.8 94.5017C98.313 88.832 91.6982 80.7733 87.7921 71.3449C83.886 61.9164 82.864 51.5416 84.8553 41.5324C86.8466 31.5232 91.7618 22.3292 98.9794 15.113C106.197 7.89675 115.393 2.98243 125.404 0.99148C135.415 -0.999472 145.792 0.0223569 155.222 3.92775C164.652 7.83314 172.712 14.4467 178.383 22.9321C184.054 31.4175 187.08 41.3936 187.08 51.5989C187.08 65.2837 181.643 78.4081 171.965 88.0847C162.286 97.7614 149.159 103.198 135.472 103.198ZM135.472 1.032C125.469 1.032 115.691 3.99769 107.373 9.55405C99.0562 15.1104 92.5737 23.0079 88.7457 32.2478C84.9177 41.4876 83.9161 51.655 85.8676 61.464C87.8191 71.273 92.636 80.2831 99.7092 87.355C106.782 94.4269 115.794 99.243 125.605 101.194C135.416 103.145 145.585 102.144 154.827 98.3166C164.068 94.4893 171.967 88.008 177.525 79.6923C183.082 71.3766 186.048 61.6 186.048 51.5989C186.048 38.1877 180.72 25.3258 171.235 15.8427C161.75 6.35957 148.886 1.032 135.472 1.032Z" fill="#3F3D56"/>
<path d="M103.702 91.7449L90.3704 119.486L91.3008 119.933L104.633 92.1918L103.702 91.7449Z" fill="#3F3D56"/>
<path d="M100.624 156.405L100.133 157.313L158.857 189.088L159.349 188.181L100.624 156.405Z" fill="#3F3D56"/>
<path d="M100.894 194.528H25.5462V119.193H100.894V194.528ZM26.5783 193.496H99.8622V120.225H26.5783V193.496Z" fill="#3F3D56"/>
<path d="M212.632 231.679H134.693L173.662 164.195L212.632 231.679ZM136.481 230.647H210.843L173.662 166.259L136.481 230.647Z" fill="#3F3D56"/>
<path d="M369 353.968H0V355H369V353.968Z" fill="white"/>
<path d="M106.469 321.786C109.095 322.709 111.915 322.94 114.656 322.458C117.397 321.975 119.968 320.794 122.12 319.03C127.602 314.429 129.321 306.853 130.719 299.835L134.856 279.078L126.196 285.04C119.968 289.327 113.6 293.752 109.288 299.962C104.976 306.172 103.095 314.65 106.558 321.369" fill="white"/>
<path d="M107.806 348.362C106.716 340.422 105.595 332.38 106.361 324.355C107.04 317.229 109.215 310.269 113.643 304.56C115.993 301.536 118.852 298.945 122.093 296.904C122.938 296.371 123.716 297.709 122.874 298.24C117.267 301.783 112.93 307.015 110.488 313.181C107.792 320.038 107.359 327.513 107.823 334.797C108.104 339.202 108.701 343.579 109.3 347.95C109.347 348.147 109.318 348.355 109.217 348.532C109.117 348.709 108.953 348.841 108.759 348.901C108.561 348.955 108.35 348.928 108.172 348.827C107.994 348.725 107.862 348.558 107.807 348.361L107.806 348.362Z" fill="white"/>
<path d="M179.955 337.426C181.23 338.932 182.872 340.084 184.721 340.771C186.571 341.459 188.566 341.658 190.515 341.351C195.518 340.502 199.289 336.484 202.658 332.693L212.632 321.482L205.2 322.024C199.854 322.413 194.373 322.836 189.511 325.089C184.65 327.341 180.456 331.848 180.165 337.202" fill="white"/>
<path d="M171.397 353.06C173.151 348.842 174.917 344.565 177.607 340.84C179.995 337.532 183.071 334.736 186.896 333.204C188.924 332.394 191.077 331.945 193.258 331.875C193.826 331.856 193.826 332.739 193.258 332.757C189.48 332.883 185.84 334.206 182.861 336.534C179.559 339.128 177.191 342.679 175.319 346.394C174.187 348.64 173.218 350.964 172.253 353.286C172.22 353.397 172.145 353.491 172.045 353.548C171.944 353.606 171.826 353.624 171.713 353.598C171.6 353.567 171.504 353.493 171.446 353.392C171.387 353.291 171.371 353.171 171.401 353.058L171.397 353.06Z" fill="white"/>
<path d="M115.652 335.622C116.778 337.334 118.326 338.727 120.147 339.667C121.968 340.607 124 341.062 126.048 340.988C131.312 340.739 135.699 337.067 139.647 333.58L151.329 323.268L143.598 322.898C138.038 322.632 132.335 322.382 127.039 324.098C121.744 325.814 116.86 329.938 115.892 335.418" fill="white"/>
<path d="M104.725 352.926C109.973 343.643 116.059 333.325 126.935 330.028C129.959 329.114 133.129 328.787 136.276 329.063C137.268 329.149 137.02 330.677 136.03 330.592C130.756 330.154 125.491 331.547 121.123 334.535C116.919 337.396 113.646 341.373 110.876 345.59C109.18 348.174 107.66 350.867 106.14 353.556C105.654 354.416 104.234 353.795 104.725 352.926Z" fill="white"/>
<path d="M12.1192 336.483C14.0196 337.151 16.0599 337.318 18.0438 336.969C20.0276 336.62 21.888 335.765 23.4457 334.488C27.4128 331.159 28.6581 325.675 29.6686 320.596L32.6619 305.575L26.3951 309.889C21.8882 312.992 17.28 316.194 14.1593 320.688C11.0385 325.183 9.67658 331.318 12.1837 336.18" fill="white"/>
<path d="M12.6549 354.67C12.0206 350.05 11.3683 345.372 11.8132 340.702C12.2085 336.556 13.4734 332.506 16.0497 329.185C17.4171 327.426 19.0809 325.918 20.9664 324.731C21.4583 324.421 21.9103 325.2 21.4211 325.508C18.1588 327.569 15.6355 330.613 14.215 334.201C12.6461 338.191 12.3943 342.54 12.6668 346.778C12.8304 349.341 13.1767 351.886 13.526 354.43C13.5542 354.545 13.5372 354.666 13.4787 354.769C13.4202 354.872 13.3245 354.949 13.2112 354.984C13.096 355.015 12.9732 354.999 12.8694 354.941C12.7656 354.882 12.6893 354.784 12.6569 354.669L12.6549 354.67Z" fill="white"/>
<path d="M59.3372 354.716C59.201 354.494 55.9904 349.134 54.8778 338.004C53.857 327.794 54.5134 310.583 63.4406 286.575C80.3537 241.094 59.5432 204.396 59.3305 204.031L60.357 203.436C60.4086 203.529 65.7811 212.884 68.9529 227.783C73.1444 247.535 71.6181 268.073 64.5528 286.989C47.6686 332.392 60.2213 353.886 60.3498 354.098L59.3372 354.716Z" fill="#3F3D56"/>
<path d="M77.0498 229.834C81.3095 229.834 84.7626 226.382 84.7626 222.123C84.7626 217.864 81.3095 214.411 77.0498 214.411C72.7901 214.411 69.3369 217.864 69.3369 222.123C69.3369 226.382 72.7901 229.834 77.0498 229.834Z" fill="#0089DC"/>
<path d="M54.5036 289.748C58.7633 289.748 62.2165 286.295 62.2165 282.036C62.2165 277.777 58.7633 274.325 54.5036 274.325C50.2439 274.325 46.7908 277.777 46.7908 282.036C46.7908 286.295 50.2439 289.748 54.5036 289.748Z" fill="#0089DC"/>
<path d="M63.2786 354.485C63.2786 354.485 56.697 338.288 76.4413 326.14L63.2786 354.485Z" fill="white"/>
<path d="M55.1843 354.19C55.1843 354.19 53.1768 342.646 37.6375 342.745L55.1843 354.19Z" fill="white"/>
<path d="M73.1549 260.246C73.1549 259.021 73.5181 257.824 74.1986 256.806C74.8791 255.788 75.8463 254.994 76.9779 254.525C78.1096 254.057 79.3548 253.934 80.5561 254.173C81.7574 254.412 82.8609 255.002 83.727 255.868C84.5931 256.734 85.1829 257.837 85.4219 259.038C85.6609 260.239 85.5382 261.484 85.0695 262.615C84.6008 263.747 83.807 264.714 82.7886 265.394C81.7701 266.075 80.5728 266.438 79.3479 266.438C77.7054 266.438 76.1302 265.785 74.9688 264.624C73.8074 263.463 73.1549 261.888 73.1549 260.246ZM74.1871 260.246C74.1871 261.267 74.4897 262.264 75.0568 263.113C75.6239 263.961 76.4299 264.623 77.3729 265.013C78.3159 265.404 79.3536 265.506 80.3547 265.307C81.3558 265.108 82.2754 264.616 82.9972 263.895C83.7189 263.173 84.2104 262.254 84.4096 261.253C84.6087 260.252 84.5065 259.214 84.1159 258.271C83.7253 257.329 83.0638 256.523 82.2151 255.956C81.3664 255.389 80.3686 255.086 79.3479 255.086C77.9792 255.086 76.6665 255.63 75.6986 256.597C74.7308 257.565 74.1871 258.878 74.1871 260.246Z" fill="#CCCCCC"/>
<path d="M54.5036 241.134C54.5036 239.909 54.8668 238.712 55.5473 237.694C56.2278 236.676 57.195 235.882 58.3267 235.413C59.4583 234.945 60.7035 234.822 61.9048 235.061C63.1061 235.3 64.2096 235.889 65.0757 236.755C65.9418 237.621 66.5317 238.725 66.7706 239.926C67.0096 241.127 66.8869 242.372 66.4182 243.503C65.9495 244.635 65.1557 245.602 64.1373 246.282C63.1188 246.962 61.9215 247.326 60.6966 247.326C59.0541 247.326 57.4789 246.673 56.3175 245.512C55.1561 244.351 54.5036 242.776 54.5036 241.134ZM55.5358 241.134C55.5358 242.154 55.8385 243.152 56.4055 244C56.9726 244.849 57.7786 245.51 58.7216 245.901C59.6647 246.291 60.7023 246.394 61.7034 246.195C62.7046 245.995 63.6241 245.504 64.3459 244.782C65.0676 244.061 65.5592 243.141 65.7583 242.14C65.9574 241.139 65.8552 240.102 65.4646 239.159C65.074 238.216 64.4125 237.41 63.5638 236.843C62.7151 236.276 61.7173 235.974 60.6966 235.974C59.3279 235.974 58.0152 236.518 57.0474 237.485C56.0795 238.453 55.5358 239.765 55.5358 241.134Z" fill="#CCCCCC"/>
<path d="M329.217 226.321C328.447 226.874 327.564 227.25 326.631 227.422C325.698 227.593 324.739 227.556 323.823 227.313C322.177 226.876 320.773 225.803 319.919 224.33C319.065 222.858 318.831 221.106 319.269 219.461C319.291 219.378 319.315 219.295 319.34 219.212C319.435 218.911 319.553 218.618 319.693 218.335L307.074 161.689C306.881 161.042 306.817 160.364 306.886 159.693C306.955 159.021 307.156 158.37 307.476 157.777C307.797 157.183 308.231 156.658 308.755 156.232C309.279 155.806 309.881 155.488 310.527 155.295C311.174 155.102 311.852 155.038 312.524 155.107C313.195 155.176 313.846 155.376 314.44 155.697C315.034 156.018 315.559 156.452 315.985 156.975C316.411 157.499 316.729 158.101 316.922 158.748C316.933 158.783 316.943 158.818 316.953 158.854L328.865 215.67C329.76 216.227 330.504 216.995 331.031 217.908C331.558 218.82 331.852 219.849 331.887 220.902C331.922 221.955 331.697 223.001 331.231 223.946C330.765 224.891 330.074 225.707 329.218 226.322L329.217 226.321Z" fill="#9F616A"/>
<path d="M345.975 347.85H339.131L335.875 321.455H345.976L345.975 347.85Z" fill="#A0616A"/>
<path d="M347.721 354.484H325.652V354.205C325.652 351.927 326.557 349.743 328.167 348.133C329.778 346.522 331.963 345.617 334.241 345.617H347.721V354.484Z" fill="#2F2E41"/>
<path d="M277.356 347.635L270.844 345.528L275.871 319.412L285.483 322.521L277.356 347.635Z" fill="#A0616A"/>
<path d="M276.976 354.485L255.979 347.693L256.065 347.427C256.766 345.26 258.3 343.46 260.328 342.424C262.357 341.387 264.714 341.198 266.881 341.899L279.706 346.047L276.976 354.485Z" fill="#2F2E41"/>
<path d="M308.062 146.402C314.44 146.402 319.61 141.233 319.61 134.857C319.61 128.481 314.44 123.312 308.062 123.312C301.685 123.312 296.515 128.481 296.515 134.857C296.515 141.233 301.685 146.402 308.062 146.402Z" fill="#9F616A"/>
<path d="M323.585 179.737C325.191 173.774 317.837 155.073 317.237 152.7C314.37 152.038 307.728 153.306 303.644 152.466C297.838 157.316 293.219 164.245 290.028 167.533C286.709 170.951 284.57 173.268 287.999 181.269C292.156 190.967 291.232 201.127 291.232 201.127L294.004 225.602C294.004 225.602 282.456 257.928 283.38 279.633L272.756 332.739C272.756 332.739 275.989 338.281 282.456 335.51C282.456 335.51 297.698 308.266 296.313 288.406L312.941 251.461C312.941 251.461 324.488 286.558 327.722 289.791L336.036 339.666C336.036 339.666 343.888 341.975 347.583 339.666C347.583 339.666 348.969 291.638 341.116 283.787C341.116 283.787 333.264 250.538 335.112 241.763C336.959 232.989 337.421 219.597 323.564 207.59C323.564 207.59 323.704 207.653 319.407 199.739L323.585 179.737Z" fill="#2F2E41"/>
<path d="M314.086 117.012C313.439 117.014 312.793 117.078 312.157 117.204C311.01 116.647 309.751 116.357 308.475 116.356H308.141C301.697 116.356 296.474 122.187 296.474 129.377H298.633L298.982 126.723L299.493 129.377H301.291C300.732 131.506 300.451 133.699 300.456 135.901V149.154H303.72L305.61 144.244L305.137 149.154H326.12L327.838 144.69L327.409 149.154H329.771V138.747C329.771 126.743 322.749 117.012 314.086 117.012Z" fill="#2F2E41"/>
<path d="M290.01 232.881C289.072 233.022 288.115 232.953 287.206 232.68C286.298 232.407 285.462 231.936 284.757 231.302C284.131 230.737 283.622 230.055 283.26 229.294C282.898 228.533 282.689 227.708 282.645 226.866C282.602 226.025 282.725 225.183 283.007 224.389C283.289 223.594 283.724 222.863 284.289 222.237C284.347 222.173 284.407 222.109 284.469 222.046C284.691 221.822 284.93 221.615 285.184 221.427L299.815 165.269C299.938 164.606 300.191 163.973 300.558 163.407C300.926 162.841 301.401 162.353 301.957 161.971C302.513 161.588 303.139 161.319 303.799 161.179C304.459 161.038 305.141 161.029 305.804 161.152C306.468 161.275 307.101 161.528 307.667 161.895C308.233 162.262 308.721 162.738 309.103 163.294C309.486 163.85 309.755 164.476 309.895 165.136C310.036 165.796 310.045 166.477 309.922 167.14C309.915 167.179 309.907 167.217 309.899 167.256L294.557 223.243C295.1 224.147 295.411 225.17 295.463 226.222C295.515 227.275 295.308 228.324 294.858 229.277C294.408 230.229 293.731 231.057 292.885 231.686C292.039 232.314 291.052 232.725 290.01 232.881Z" fill="#9F616A"/>
</svg>
