<svg width="453" height="322" viewBox="0 0 453 322" fill="none" xmlns="http://www.w3.org/2000/svg">
<path d="M442.246 196.657H426.317C425.977 196.658 425.641 196.574 425.335 196.412C425.028 196.251 424.759 196.016 424.547 195.724C424.338 195.44 424.191 195.108 424.116 194.752C424.041 194.397 424.041 194.028 424.115 193.672C425.611 186.451 425.539 178.946 423.905 171.76C423.778 171.21 423.83 170.63 424.052 170.117C424.273 169.605 424.65 169.192 425.118 168.95C431.771 165.544 437.881 165.633 443.276 169.213C443.559 169.398 443.802 169.648 443.987 169.946C444.172 170.244 444.296 170.583 444.35 170.939C445.493 178.751 445.537 186.709 444.479 194.536C444.404 195.125 444.137 195.665 443.726 196.055C443.315 196.444 442.789 196.658 442.246 196.657Z" fill="#0089DC"/>
<path d="M442.004 185.244H429.825C429.522 185.243 429.232 185.111 429.019 184.877C428.805 184.643 428.685 184.326 428.685 183.995C428.685 183.664 428.805 183.346 429.019 183.112C429.232 182.878 429.522 182.746 429.825 182.745H442.004C442.306 182.746 442.596 182.878 442.81 183.112C443.024 183.346 443.144 183.664 443.144 183.995C443.144 184.326 443.024 184.643 442.81 184.877C442.596 185.111 442.306 185.243 442.004 185.244Z" fill="white"/>
<path d="M442.004 180.862H429.825C429.522 180.861 429.232 180.729 429.019 180.495C428.805 180.261 428.685 179.944 428.685 179.613C428.685 179.282 428.805 178.964 429.019 178.73C429.232 178.496 429.522 178.364 429.825 178.363H442.004C442.306 178.364 442.596 178.496 442.81 178.73C443.024 178.964 443.144 179.282 443.144 179.613C443.144 179.944 443.024 180.261 442.81 180.495C442.596 180.729 442.306 180.861 442.004 180.862Z" fill="white"/>
<path d="M123.277 194.91C170.021 194.91 207.916 153.466 207.916 102.341C207.916 51.2163 170.021 9.77153 123.277 9.77153C76.5317 9.77153 38.6375 51.2163 38.6375 102.341C38.6375 153.466 76.5317 194.91 123.277 194.91Z" fill="white"/>
<path d="M221.438 192.172C230.289 192.172 237.464 184.324 237.464 174.644C237.464 164.963 230.289 157.116 221.438 157.116C212.587 157.116 205.411 164.963 205.411 174.644C205.411 184.324 212.587 192.172 221.438 192.172Z" fill="white"/>
<path d="M302.07 231.61C305.666 231.61 308.581 228.422 308.581 224.489C308.581 220.556 305.666 217.368 302.07 217.368C298.474 217.368 295.56 220.556 295.56 224.489C295.56 228.422 298.474 231.61 302.07 231.61Z" fill="white"/>
<path d="M352.34 252.496C349.594 229.549 336.449 207.014 316.38 199.68C324.416 223.262 324.566 249.193 316.804 272.884C313.78 282.008 309.548 291.813 312.496 300.967C314.33 306.664 318.762 311 323.702 313.697C328.643 316.393 334.116 317.657 339.521 318.895L340.588 319.848C349.032 298.629 355.085 275.442 352.34 252.496Z" fill="white"/>
<path d="M316.184 200.116C327.929 214.325 335.282 232.221 337.199 251.261C337.587 255.342 337.655 259.52 336.862 263.552C336.062 267.475 334.316 271.092 331.805 274.027C329.514 276.816 326.876 279.378 325.244 282.727C323.525 286.257 323.482 290.254 324.695 293.982C326.179 298.544 329.073 302.25 332.019 305.767C335.289 309.672 338.743 313.671 340.154 318.869C340.325 319.498 341.208 319.171 341.037 318.543C338.583 309.5 330.512 304.411 326.63 296.278C324.818 292.483 324.041 288.069 325.695 284.038C327.141 280.513 329.86 277.868 332.202 275.067C334.661 272.125 336.541 268.904 337.496 265.025C338.473 261.058 338.554 256.869 338.263 252.794C337.541 243.559 335.495 234.506 332.202 225.967C328.492 216.197 323.282 207.194 316.797 199.347C316.395 198.861 315.785 199.634 316.184 200.116Z" fill="white"/>
<path d="M336.912 245.09C339.789 244.305 342.317 242.427 344.045 239.791C345.773 237.155 346.587 233.933 346.344 230.701C346.292 230.047 345.361 230.103 345.413 230.758C345.644 233.768 344.885 236.769 343.272 239.22C341.658 241.67 339.297 243.41 336.613 244.124C336.031 244.28 336.332 245.245 336.912 245.09Z" fill="white"/>
<path d="M333.137 272.781C327.912 269.419 324.038 264.026 322.288 257.679C322.115 257.05 321.231 257.376 321.404 258.005C323.237 264.606 327.279 270.209 332.723 273.695C333.242 274.027 333.653 273.111 333.137 272.781Z" fill="white"/>
<path d="M327.633 217.17C326.577 217.727 325.412 217.989 324.241 217.933C323.07 217.876 321.93 217.502 320.924 216.844C320.409 216.505 319.999 217.422 320.51 217.758C321.625 218.479 322.884 218.89 324.177 218.956C325.471 219.022 326.76 218.741 327.931 218.136C328.045 218.089 328.139 217.996 328.194 217.876C328.248 217.756 328.259 217.618 328.223 217.49C328.183 217.362 328.099 217.257 327.988 217.197C327.878 217.137 327.75 217.127 327.633 217.17Z" fill="white"/>
<path d="M255.581 241.125C255.897 241.347 256.213 241.569 256.53 241.799C260.765 244.802 264.77 248.177 268.505 251.89C268.798 252.172 269.091 252.463 269.376 252.753C278.288 261.804 285.586 272.585 290.9 284.548C293.01 289.311 294.786 294.243 296.213 299.3C298.182 306.285 299.809 314.03 303.66 319.728C304.056 320.327 304.485 320.899 304.945 321.44L339.442 321.199C339.52 321.155 339.599 321.12 339.677 321.077L341.055 321.136C340.998 320.869 340.934 320.594 340.877 320.328C340.845 320.173 340.805 320.019 340.772 319.864C340.748 319.761 340.724 319.658 340.707 319.563C340.699 319.529 340.691 319.494 340.683 319.468C340.667 319.374 340.643 319.288 340.626 319.202C340.271 317.664 339.905 316.125 339.529 314.587C339.529 314.578 339.529 314.578 339.521 314.57C336.627 302.857 332.813 291.305 327.517 280.754C327.358 280.437 327.198 280.111 327.023 279.793C324.612 275.052 321.851 270.534 318.766 266.284C317.071 263.963 315.269 261.738 313.367 259.616C308.444 254.145 302.765 249.554 296.538 246.012C284.124 238.954 269.784 236.317 256.586 240.774C256.249 240.888 255.919 241.003 255.581 241.125Z" fill="white"/>
<path d="M255.661 241.604C272.861 245.215 288.584 254.662 300.595 268.602C303.152 271.606 305.506 274.896 307.093 278.637C308.613 282.296 309.21 286.335 308.821 290.332C308.527 294.067 307.831 297.85 308.372 301.598C308.943 305.548 311.108 308.769 314.129 310.947C317.825 313.612 322.177 314.665 326.465 315.533C331.225 316.498 336.184 317.417 340.172 320.637C340.655 321.028 341.18 320.185 340.698 319.795C333.76 314.192 324.515 315.443 316.938 311.506C313.403 309.668 310.352 306.655 309.454 302.348C308.668 298.581 309.383 294.679 309.711 290.9C310.055 286.932 309.782 283.122 308.41 279.397C307.006 275.585 304.764 272.187 302.289 269.125C296.629 262.228 290.012 256.346 282.681 251.697C274.341 246.339 265.225 242.581 255.727 240.586C255.139 240.463 255.077 241.481 255.661 241.604Z" fill="white"/>
<path d="M296.969 263.864C298.834 261.343 299.819 258.178 299.747 254.936C299.676 251.693 298.553 248.585 296.579 246.164C296.178 245.676 295.466 246.334 295.867 246.823C297.709 249.073 298.755 251.97 298.816 254.989C298.876 258.008 297.948 260.952 296.199 263.289C295.82 263.797 296.592 264.37 296.969 263.864Z" fill="white"/>
<path d="M309.199 288.459C303.176 289.215 297.115 287.46 292.223 283.545C291.738 283.157 291.213 283.999 291.697 284.387C296.794 288.451 303.106 290.263 309.371 289.462C309.968 289.385 309.793 288.383 309.199 288.459Z" fill="white"/>
<path d="M274.19 247.681C273.655 248.822 272.868 249.798 271.902 250.524C270.936 251.25 269.82 251.701 268.655 251.839C268.057 251.907 268.234 252.909 268.828 252.841C270.114 252.683 271.346 252.182 272.415 251.383C273.484 250.584 274.358 249.511 274.96 248.257C275.026 248.144 275.05 248.008 275.028 247.876C275.005 247.744 274.937 247.627 274.838 247.548C274.736 247.472 274.611 247.444 274.489 247.469C274.368 247.494 274.261 247.57 274.19 247.681Z" fill="white"/>
<path d="M421.037 162.818L416.372 113.431L415.141 93.1048L428.198 90.5225C428.198 90.5225 430.153 104.496 431.864 112.696C433.552 120.788 429.615 161.734 429.511 162.813C430.47 163.751 431.146 164.985 431.45 166.353C431.753 167.72 431.67 169.156 431.212 170.47C430.753 171.785 429.94 172.916 428.881 173.714C427.822 174.513 426.566 174.94 425.279 174.941C423.993 174.942 422.737 174.515 421.677 173.718C420.617 172.921 419.803 171.79 419.343 170.476C418.883 169.162 418.799 167.727 419.101 166.359C419.404 164.992 420.079 163.757 421.037 162.818Z" fill="#FFB8B8"/>
<path d="M367.678 314.458H361.035L357.875 286.435L367.679 286.436L367.678 314.458Z" fill="#FFB6B6"/>
<path d="M369.372 321.501L347.953 321.5V321.203C347.953 318.785 348.832 316.466 350.395 314.756C351.958 313.046 354.079 312.086 356.29 312.086L360.203 308.839L367.503 312.086L369.372 312.086L369.372 321.501Z" fill="#2F2E41"/>
<path d="M426.223 314.458H419.58L416.42 286.435L426.224 286.436L426.223 314.458Z" fill="#FFB6B6"/>
<path d="M427.917 321.501L406.498 321.5V321.203C406.498 318.785 407.377 316.466 408.94 314.756C410.503 313.046 412.624 312.086 414.835 312.086L418.748 308.839L426.048 312.086L427.917 312.086L427.917 321.501Z" fill="#2F2E41"/>
<path d="M416.12 164.478L421.707 222.529C421.707 222.529 429.144 280.655 427.748 288.675C426.351 296.695 428.097 297.841 428.097 297.841L415.352 296.848C415.352 296.848 415.701 291.883 413.606 289.592C411.511 287.3 412.558 280.426 412.558 280.426L387.835 185.866L372.82 235.514C372.82 235.514 370.375 290.128 370.026 290.892C369.677 291.655 368.629 301.967 368.629 301.967H355.709C355.709 301.967 357.455 295.857 355.011 293.947C352.566 292.037 350.471 293.565 352.566 290.128C354.661 286.691 355.36 282.49 354.661 280.58C353.963 278.67 353.963 271.032 353.963 271.032C353.963 271.032 355.011 167.916 360.947 164.479C366.883 161.041 416.12 164.478 416.12 164.478Z" fill="#2F2E41"/>
<path d="M389.66 46.9405C397.25 46.9405 403.402 40.2116 403.402 31.911C403.402 23.6105 397.25 16.8815 389.66 16.8815C382.071 16.8815 375.918 23.6105 375.918 31.911C375.918 40.2116 382.071 46.9405 389.66 46.9405Z" fill="#FFB8B8"/>
<path d="M430.399 98.4015L416.884 103.703L412.768 105.316L409.763 63.3435L420.075 69.3247C420.092 69.3386 420.107 69.3553 420.12 69.3742C421.906 71.5312 423.401 73.9565 424.559 76.5764C430.213 89.1493 430.399 98.4015 430.399 98.4015Z" fill="#3F3D56"/>
<path d="M337.294 159.272C337.294 159.272 351.031 112.594 351.271 112.034C353.07 97.091 358.245 90.4996 359.02 91.2152L372.376 96.2757C372.376 96.2757 368.404 110.035 365.714 118.207C363.144 126.016 345.542 162.071 345.047 163.012C345.578 164.294 345.741 165.722 345.513 167.107C345.286 168.491 344.68 169.768 343.775 170.768C342.87 171.768 341.708 172.443 340.444 172.706C339.18 172.968 337.874 172.804 336.697 172.236C335.52 171.668 334.528 170.723 333.853 169.526C333.178 168.328 332.851 166.934 332.916 165.529C332.98 164.124 333.434 162.773 334.216 161.656C334.997 160.539 336.071 159.708 337.294 159.272Z" fill="#FFB8B8"/>
<path d="M378.792 66.0466C378.792 66.0466 367.229 59.8484 362.744 72.022C359.807 80.2318 358.416 83.8129 356.455 92.364C356.455 92.364 368.241 94.2981 372.021 101.583L378.792 66.0466Z" fill="#3F3D56"/>
<path d="M420.869 170.806C394.256 176.816 358.988 166.482 358.988 166.482L368.396 121.879L365.051 75.2015C364.643 69.4934 367.616 64.1426 372.24 62.2465L378.626 59.6307L383.904 51.3663L398.98 51.9073L405.007 60.5837L409.763 63.3435L420.075 69.3247L420.12 69.3494L420.12 69.3742L416.884 103.703L414.933 124.401C414.933 124.401 420.86 147.68 419.643 150.767C418.427 153.85 419.485 152.361 419.78 154.009C420.075 155.657 420.978 155.761 421.114 159.007C421.255 162.248 420.869 170.806 420.869 170.806Z" fill="#3F3D56"/>
<path d="M404.568 26.5591C403.482 25.3874 405.116 22.2854 404.807 20.6515C404.453 18.7782 402.566 18.7234 402.116 16.875C401.631 14.8865 399.694 13.804 397.903 13.1738C393.312 11.567 388.413 11.3216 383.706 12.4626C381.624 13.0189 379.573 13.7098 377.565 14.5318C376.178 15.0654 377.515 13.6135 376.129 14.147C375.604 14.275 375.141 14.6109 374.829 15.0902C374.58 15.6055 374.916 16.4297 375.441 16.3253C373.748 17.1415 372.056 17.9577 370.364 18.7739C371.313 19.8613 372.262 20.9487 373.211 22.0361C371.862 21.6161 370.423 23.3756 370.955 24.7952C371.169 25.2434 371.48 25.6279 371.86 25.9157C372.24 26.2035 372.678 26.3859 373.137 26.4472C374.661 26.7716 373.505 28.3582 375.058 28.3273C376.611 28.2964 387.438 24.8154 388.193 26.2997C388.73 27.3566 388.671 28.7566 389.439 29.6275C390.421 30.7415 392.135 30.3341 393.385 29.6088C394.635 28.8835 395.902 27.8867 397.308 28.0606C398.776 28.2421 399.886 31.2086 400.247 32.7751C400.609 34.3415 400.381 35.9897 400.15 37.5856C399.848 39.6815 396.823 41.7774 396.521 43.8732C399.879 44.8887 403.48 41.6577 404.808 36.0387C404.675 32.4867 406.881 29.0559 404.568 26.5591Z" fill="#2F2E41"/>
<path d="M190.937 221.753C150.484 221.755 115.287 188.75 110.087 143.733L111.081 143.595C116.216 188.056 150.985 220.654 190.938 220.657C194.333 220.657 197.724 220.423 201.091 219.956C245.157 213.868 276.477 169.706 270.911 121.512L271.905 121.375C277.54 170.168 245.83 214.879 201.217 221.043C197.807 221.515 194.374 221.752 190.937 221.753Z" fill="#3F3D56"/>
<path d="M193.11 240.074H177.182C176.841 240.075 176.505 239.991 176.199 239.83C175.892 239.668 175.623 239.433 175.411 239.141C175.202 238.857 175.055 238.525 174.98 238.17C174.905 237.814 174.905 237.445 174.979 237.09C176.491 229.794 176.401 222.211 174.719 214.96C174.604 214.459 174.637 213.932 174.812 213.452C174.988 212.973 175.297 212.566 175.696 212.291C181.206 208.557 187.206 208.674 194.04 212.648C194.351 212.826 194.619 213.081 194.825 213.393C195.031 213.704 195.168 214.063 195.226 214.441C196.358 222.227 196.397 230.155 195.343 237.953C195.268 238.542 195.001 239.082 194.59 239.472C194.179 239.861 193.653 240.075 193.11 240.074Z" fill="#0089DC"/>
<path d="M120.49 146.957H104.562C104.222 146.957 103.886 146.874 103.579 146.712C103.273 146.551 103.004 146.315 102.792 146.024C102.583 145.74 102.436 145.408 102.361 145.052C102.286 144.697 102.286 144.328 102.36 143.972C103.877 136.652 103.782 129.041 102.082 121.769C101.974 121.29 102 120.787 102.156 120.324C102.313 119.862 102.592 119.461 102.958 119.173C111.148 112.731 117.598 112.918 122.129 119.73C122.333 120.04 122.469 120.398 122.526 120.776C123.736 128.736 123.803 136.853 122.724 144.836C122.649 145.425 122.382 145.964 121.971 146.354C121.56 146.744 121.034 146.958 120.49 146.957Z" fill="#CCCCCC"/>
<path d="M185.667 223.724H180.188C179.885 223.723 179.596 223.591 179.382 223.357C179.168 223.123 179.048 222.806 179.048 222.475C179.048 222.144 179.168 221.826 179.382 221.592C179.596 221.358 179.885 221.226 180.188 221.225H185.667C185.97 221.225 186.261 221.357 186.475 221.591C186.689 221.825 186.81 222.143 186.81 222.475C186.81 222.806 186.689 223.124 186.475 223.358C186.261 223.592 185.97 223.724 185.667 223.724Z" fill="white"/>
<path d="M192.367 228.661H180.188C179.885 228.66 179.596 228.529 179.382 228.294C179.168 228.06 179.048 227.743 179.048 227.412C179.048 227.081 179.168 226.763 179.382 226.529C179.596 226.295 179.885 226.163 180.188 226.162H192.367C192.669 226.163 192.959 226.295 193.173 226.529C193.387 226.763 193.507 227.081 193.507 227.412C193.507 227.743 193.387 228.06 193.173 228.294C192.959 228.529 192.669 228.66 192.367 228.661Z" fill="white"/>
<path d="M115.552 129.511H110.073C109.77 129.511 109.48 129.379 109.267 129.145C109.053 128.91 108.933 128.593 108.933 128.262C108.933 127.931 109.053 127.614 109.267 127.379C109.48 127.145 109.77 127.013 110.073 127.012H115.552C115.855 127.013 116.145 127.145 116.358 127.379C116.572 127.614 116.692 127.931 116.692 128.262C116.692 128.593 116.572 128.91 116.358 129.145C116.145 129.379 115.855 129.511 115.552 129.511Z" fill="white"/>
<path d="M115.552 133.893H110.073C109.77 133.893 109.48 133.761 109.267 133.527C109.053 133.292 108.933 132.975 108.933 132.644C108.933 132.313 109.053 131.996 109.267 131.761C109.48 131.527 109.77 131.395 110.073 131.394H115.552C115.855 131.395 116.145 131.527 116.358 131.761C116.572 131.996 116.692 132.313 116.692 132.644C116.692 132.975 116.572 133.292 116.358 133.527C116.145 133.761 115.855 133.893 115.552 133.893Z" fill="white"/>
<path d="M115.552 138.275H110.073C109.77 138.275 109.48 138.143 109.267 137.909C109.053 137.674 108.933 137.357 108.933 137.026C108.933 136.695 109.053 136.378 109.267 136.143C109.48 135.909 109.77 135.777 110.073 135.776H115.552C115.855 135.777 116.145 135.909 116.358 136.143C116.572 136.378 116.692 136.695 116.692 137.026C116.692 137.357 116.572 137.674 116.358 137.909C116.145 138.143 115.855 138.275 115.552 138.275Z" fill="white"/>
<path d="M334.863 167.537H283.947C282.582 167.535 281.274 166.942 280.309 165.887C279.345 164.831 278.802 163.4 278.8 161.908V127.61C278.802 126.118 279.345 124.687 280.309 123.632C281.274 122.576 282.582 121.983 283.947 121.981H334.863C336.228 121.983 337.536 122.576 338.501 123.632C339.466 124.687 340.009 126.118 340.01 127.61V161.908C340.009 163.4 339.466 164.831 338.501 165.887C337.536 166.942 336.228 167.535 334.863 167.537Z" fill="white"/>
<path d="M314.633 163.119H287.526C286.248 163.118 285.023 162.562 284.119 161.574C283.216 160.585 282.707 159.245 282.706 157.848V131.671C282.707 130.273 283.216 128.933 284.119 127.945C285.023 126.956 286.248 126.4 287.526 126.399H331.284C332.562 126.4 333.787 126.956 334.691 127.945C335.595 128.933 336.103 130.273 336.104 131.671V139.637C336.098 145.863 333.834 151.831 329.809 156.234C325.783 160.636 320.326 163.112 314.633 163.119Z" fill="white"/>
<path d="M326.919 140.733H291.891C291.588 140.733 291.298 140.601 291.083 140.367C290.869 140.132 290.749 139.815 290.749 139.483C290.749 139.152 290.869 138.834 291.083 138.6C291.298 138.366 291.588 138.234 291.891 138.234H326.919C327.222 138.234 327.513 138.366 327.727 138.6C327.941 138.834 328.061 139.152 328.061 139.483C328.061 139.815 327.941 140.132 327.727 140.367C327.513 140.601 327.222 140.733 326.919 140.733Z" fill="#0089DC"/>
<path d="M297.37 145.67H291.891C291.589 145.669 291.299 145.537 291.085 145.303C290.871 145.069 290.751 144.751 290.751 144.42C290.751 144.089 290.871 143.772 291.085 143.538C291.299 143.303 291.589 143.172 291.891 143.171H297.37C297.673 143.172 297.963 143.303 298.177 143.538C298.391 143.772 298.511 144.089 298.511 144.42C298.511 144.751 298.391 145.069 298.177 145.303C297.963 145.537 297.673 145.669 297.37 145.67Z" fill="#0089DC"/>
<path d="M307.075 150.607H291.891C291.588 150.607 291.298 150.475 291.083 150.241C290.869 150.007 290.749 149.689 290.749 149.357C290.749 149.026 290.869 148.708 291.083 148.474C291.298 148.24 291.588 148.108 291.891 148.108H307.075C307.378 148.108 307.669 148.24 307.883 148.474C308.097 148.708 308.217 149.026 308.217 149.357C308.217 149.689 308.097 150.007 307.883 150.241C307.669 150.475 307.378 150.607 307.075 150.607Z" fill="#0089DC"/>
<path d="M277.023 133.078C282.972 133.078 287.794 127.804 287.794 121.298C287.794 114.792 282.972 109.518 277.023 109.518C271.075 109.518 266.253 114.792 266.253 121.298C266.253 127.804 271.075 133.078 277.023 133.078Z" fill="#3F3D56"/>
<path d="M155.098 31.687C155.811 27.7288 157.23 23.9629 159.274 20.6044C161.317 17.2458 163.946 14.3605 167.009 12.113C173.196 7.57395 180.778 5.90876 188.087 7.48369C191.706 8.26352 195.149 9.81534 198.22 12.0506C201.291 14.2858 203.929 17.1606 205.984 20.511C208.039 23.8613 209.471 27.6215 210.197 31.5769C210.923 35.5323 210.93 39.6054 210.217 43.5636L209.234 43.3519C210.622 35.643 209.154 27.6465 205.152 21.1215C201.15 14.5966 194.942 10.0776 187.893 8.55885C180.845 7.04007 173.534 8.64584 167.568 13.0229C161.602 17.4 157.47 24.1898 156.081 31.8988L155.098 31.687Z" fill="#3F3D56"/>
<path d="M165.764 51.0687L149.85 51.7897C149.51 51.8058 149.171 51.7376 148.859 51.5901C148.546 51.4426 148.268 51.2197 148.046 50.938C147.827 50.6636 147.667 50.3383 147.578 49.9867C147.49 49.6351 147.476 49.2661 147.537 48.9076C148.758 41.6243 148.402 34.1293 146.498 27.0236C146.35 26.4801 146.38 25.8977 146.582 25.3757C146.784 24.8536 147.145 24.4242 147.603 24.1607C154.122 20.4567 160.23 20.2689 165.756 23.6018C166.046 23.7739 166.297 24.013 166.494 24.3025C166.69 24.592 166.827 24.9248 166.894 25.2779C168.332 33.0318 168.677 40.9808 167.916 48.8488C167.864 49.4408 167.617 49.9919 167.221 50.4001C166.825 50.8082 166.308 51.0458 165.764 51.0687Z" fill="#0089DC"/>
<path d="M165.091 39.6769L152.923 40.2281C152.773 40.235 152.623 40.2096 152.482 40.1532C152.341 40.0968 152.212 40.0105 152.101 39.8994C151.991 39.7883 151.901 39.6544 151.838 39.5055C151.775 39.3566 151.739 39.1955 151.733 39.0314C151.727 38.8674 151.75 38.7036 151.802 38.5495C151.853 38.3954 151.932 38.2539 152.034 38.1331C152.136 38.0124 152.258 37.9148 152.395 37.8458C152.531 37.7769 152.678 37.7379 152.828 37.7313L164.996 37.1801C165.146 37.1733 165.296 37.1989 165.437 37.2553C165.578 37.3118 165.707 37.398 165.817 37.5092C165.928 37.6203 166.017 37.7541 166.08 37.903C166.143 38.0518 166.179 38.2128 166.185 38.3768C166.191 38.5407 166.168 38.7044 166.116 38.8584C166.065 39.0125 165.986 39.1539 165.884 39.2747C165.783 39.3954 165.66 39.493 165.524 39.5621C165.388 39.6311 165.241 39.6701 165.091 39.6769Z" fill="white"/>
<path d="M164.925 35.2986L152.757 35.8499C152.454 35.8636 152.159 35.7452 151.936 35.5208C151.713 35.2963 151.581 34.9843 151.568 34.6532C151.556 34.3221 151.664 33.9991 151.869 33.7553C152.074 33.5115 152.36 33.3668 152.662 33.3531L164.831 32.8018C165.133 32.7881 165.429 32.9065 165.652 33.1309C165.875 33.3554 166.007 33.6674 166.019 33.9985C166.032 34.3296 165.924 34.6526 165.718 34.8964C165.513 35.1403 165.228 35.2849 164.925 35.2986Z" fill="white"/>
<path d="M269.914 45.5561H218.998C217.634 45.5544 216.325 44.9608 215.36 43.9055C214.396 42.8502 213.853 41.4194 213.851 39.927V5.62909C213.853 4.13668 214.396 2.70589 215.36 1.65059C216.325 0.595298 217.634 0.00169187 218.998 0H269.914C271.279 0.00168607 272.587 0.59529 273.552 1.65058C274.517 2.70588 275.06 4.13668 275.061 5.62909V39.927C275.06 41.4194 274.517 42.8502 273.552 43.9055C272.587 44.9608 271.279 45.5544 269.914 45.5561Z" fill="white"/>
<path d="M249.684 41.1382H222.577C221.299 41.1367 220.074 40.5808 219.17 39.5925C218.267 38.6042 217.758 37.2642 217.757 35.8664V9.68954C217.758 8.29182 218.267 6.95181 219.17 5.9635C220.074 4.97519 221.299 4.41927 222.577 4.41773H266.335C267.613 4.41929 268.838 4.97521 269.742 5.96353C270.646 6.95185 271.154 8.29185 271.155 9.68954V17.6557C271.149 23.8815 268.885 29.8504 264.86 34.2527C260.834 38.655 255.377 41.1313 249.684 41.1382Z" fill="white"/>
<path d="M261.97 18.7516H226.942C226.639 18.7516 226.349 18.62 226.135 18.3857C225.92 18.1514 225.8 17.8336 225.8 17.5022C225.8 17.1708 225.92 16.853 226.135 16.6187C226.349 16.3844 226.639 16.2528 226.942 16.2528H261.97C262.273 16.2528 262.564 16.3844 262.778 16.6187C262.992 16.853 263.112 17.1708 263.112 17.5022C263.112 17.8336 262.992 18.1514 262.778 18.3857C262.564 18.62 262.273 18.7516 261.97 18.7516Z" fill="#0089DC"/>
<path d="M232.422 23.6886H226.942C226.64 23.688 226.35 23.556 226.136 23.3218C225.922 23.0875 225.802 22.7701 225.802 22.4392C225.802 22.1082 225.922 21.7908 226.136 21.5566C226.35 21.3223 226.64 21.1904 226.942 21.1897H232.422C232.724 21.1904 233.014 21.3223 233.228 21.5566C233.442 21.7908 233.562 22.1082 233.562 22.4392C233.562 22.7701 233.442 23.0875 233.228 23.3218C233.014 23.556 232.724 23.688 232.422 23.6886Z" fill="#0089DC"/>
<path d="M242.126 28.6257H226.942C226.639 28.6257 226.349 28.494 226.134 28.2597C225.92 28.0254 225.8 27.7076 225.8 27.3762C225.8 27.0448 225.92 26.727 226.134 26.4927C226.349 26.2584 226.639 26.1267 226.942 26.1267H242.126C242.429 26.1274 242.719 26.2594 242.932 26.4936C243.146 26.7279 243.266 27.0453 243.266 27.3762C243.266 27.7071 243.146 28.0245 242.932 28.2588C242.719 28.493 242.429 28.625 242.126 28.6257Z" fill="#0089DC"/>
<path d="M219.903 51.4934C223.043 45.968 221.493 38.7045 216.441 35.2698C211.389 31.8352 204.748 33.53 201.608 39.0554C198.467 44.5808 200.017 51.8443 205.069 55.279C210.121 58.7137 216.762 57.0188 219.903 51.4934Z" fill="#3F3D56"/>
<path d="M452.54 322H304.561C304.439 322 304.322 321.947 304.235 321.852C304.149 321.758 304.1 321.63 304.1 321.496C304.1 321.363 304.149 321.235 304.235 321.14C304.322 321.046 304.439 320.993 304.561 320.993H452.54C452.662 320.993 452.779 321.046 452.865 321.14C452.951 321.235 453 321.363 453 321.496C453 321.63 452.951 321.758 452.865 321.852C452.779 321.947 452.662 322 452.54 322Z" fill="#CCCCCC"/>
<path d="M67.2747 137.172C62.8557 124.396 63.2583 110.223 68.394 97.7709C73.5296 85.3191 82.9777 75.6085 94.6596 70.7755C106.342 65.9424 119.301 66.3827 130.686 71.9996C142.071 77.6165 150.949 87.9498 155.368 100.726L154.431 101.114C152.29 94.9224 149.054 89.2527 144.909 84.4286C140.764 79.6045 135.791 75.7206 130.274 72.9986C124.756 70.2765 118.803 68.7697 112.753 68.5641C106.703 68.3585 100.675 69.4582 95.0142 71.8003C89.353 74.1425 84.1689 77.6813 79.7581 82.2146C75.3473 86.7479 71.7962 92.187 69.3073 98.2214C66.8185 104.256 65.4407 110.767 65.2528 117.384C65.0648 124.001 66.0703 130.593 68.2118 136.785L67.2747 137.172Z" fill="#3F3D56"/>
<path d="M108.471 86.1565H92.5425C92.2022 86.1573 91.8661 86.0738 91.5596 85.9123C91.253 85.7507 90.9838 85.5154 90.7723 85.2239C90.5633 84.9398 90.4158 84.6076 90.341 84.2523C90.2661 83.8969 90.2659 83.5277 90.3401 83.1722C91.848 75.8937 91.7627 68.3286 90.0912 61.093C89.9727 60.5809 90.009 60.0407 90.1948 59.5531C90.3806 59.0656 90.7058 58.6569 91.1217 58.3885C96.8914 54.7153 103.053 54.8273 109.435 58.7225C109.737 58.9027 109.997 59.156 110.196 59.463C110.395 59.77 110.527 60.1227 110.583 60.4942C111.719 68.2889 111.76 76.2276 110.704 84.0358C110.629 84.625 110.362 85.1644 109.951 85.5543C109.54 85.9442 109.014 86.1581 108.471 86.1565Z" fill="#0089DC"/>
<path d="M101.028 69.2591H95.549C95.2465 69.2584 94.9565 69.1264 94.7428 68.8922C94.529 68.658 94.409 68.3405 94.409 68.0096C94.409 67.6787 94.529 67.3613 94.7428 67.127C94.9565 66.8928 95.2465 66.7608 95.549 66.7601H101.028C101.331 66.7608 101.621 66.8928 101.835 67.127C102.048 67.3613 102.168 67.6787 102.168 68.0096C102.168 68.3405 102.048 68.658 101.835 68.8922C101.621 69.1264 101.331 69.2584 101.028 69.2591Z" fill="white"/>
<path d="M107.728 74.1961H95.549C95.246 74.1961 94.9555 74.0645 94.7412 73.8301C94.527 73.5958 94.4066 73.278 94.4066 72.9466C94.4066 72.6153 94.527 72.2974 94.7412 72.0631C94.9555 71.8288 95.246 71.6972 95.549 71.6972H107.728C108.03 71.6978 108.32 71.8298 108.534 72.0641C108.748 72.2983 108.868 72.6157 108.868 72.9466C108.868 73.2776 108.748 73.595 108.534 73.8292C108.32 74.0635 108.03 74.1954 107.728 74.1961Z" fill="white"/>
<path d="M56.063 136.482H5.14681C3.78226 136.481 2.47404 135.887 1.50916 134.832C0.544282 133.776 0.00153896 132.346 0 130.853V96.5553C0.00153896 95.0629 0.544282 93.6321 1.50916 92.5768C2.47404 91.5215 3.78226 90.9279 5.14681 90.9262H56.063C57.4275 90.9279 58.7358 91.5215 59.7007 92.5768C60.6655 93.6321 61.2083 95.0629 61.2098 96.5553V130.853C61.2083 132.346 60.6655 133.776 59.7007 134.832C58.7358 135.887 57.4275 136.481 56.063 136.482Z" fill="white"/>
<path d="M35.8332 132.064H8.72591C7.44793 132.063 6.22269 131.507 5.319 130.519C4.41531 129.53 3.90697 128.19 3.90549 126.793V100.616C3.90697 99.218 4.41531 97.878 5.319 96.8897C6.22269 95.9014 7.44793 95.3455 8.72591 95.344H52.4841C53.762 95.3455 54.9872 95.9014 55.8909 96.8897C56.7945 97.8781 57.3028 99.2181 57.3042 100.616V108.582C57.2978 114.808 55.0336 120.777 51.0084 125.179C46.9831 129.581 41.5257 132.057 35.8332 132.064Z" fill="white"/>
<path d="M48.1188 109.678H13.091C12.788 109.678 12.4975 109.546 12.2832 109.312C12.069 109.078 11.9486 108.76 11.9486 108.428C11.9486 108.097 12.069 107.779 12.2832 107.545C12.4975 107.311 12.788 107.179 13.091 107.179H48.1188C48.4218 107.179 48.7123 107.311 48.9266 107.545C49.1408 107.779 49.2612 108.097 49.2612 108.428C49.2612 108.76 49.1408 109.078 48.9266 109.312C48.7123 109.546 48.4218 109.678 48.1188 109.678Z" fill="#0089DC"/>
<path d="M18.5703 114.615H13.091C12.7884 114.614 12.4985 114.482 12.2847 114.248C12.071 114.014 11.951 113.696 11.951 113.365C11.951 113.034 12.071 112.717 12.2847 112.483C12.4985 112.249 12.7884 112.117 13.091 112.116H18.5703C18.8728 112.117 19.1628 112.249 19.3765 112.483C19.5903 112.717 19.7103 113.034 19.7103 113.365C19.7103 113.696 19.5903 114.014 19.3765 114.248C19.1628 114.482 18.8728 114.614 18.5703 114.615Z" fill="#0089DC"/>
<path d="M28.2747 119.552H13.091C12.7884 119.551 12.4985 119.419 12.2847 119.185C12.071 118.951 11.951 118.633 11.951 118.302C11.951 117.971 12.071 117.654 12.2847 117.42C12.4985 117.186 12.7884 117.054 13.091 117.053H28.2747C28.5777 117.053 28.8683 117.185 29.0825 117.419C29.2968 117.653 29.4171 117.971 29.4171 118.302C29.4171 118.634 29.2968 118.952 29.0825 119.186C28.8683 119.42 28.5777 119.552 28.2747 119.552Z" fill="#0089DC"/>
<path d="M76.1666 141.324C79.307 135.799 77.7573 128.535 72.7053 125.101C67.6533 121.666 61.012 123.361 57.8716 128.886C54.7312 134.412 56.2808 141.675 61.3329 145.11C66.3849 148.544 73.0262 146.85 76.1666 141.324Z" fill="#3F3D56"/>
<path d="M163.06 119.021H147.132C146.792 119.022 146.456 118.939 146.149 118.777C145.843 118.616 145.573 118.38 145.362 118.089C145.153 117.805 145.005 117.472 144.931 117.117C144.856 116.762 144.856 116.393 144.93 116.037C146.435 108.771 146.353 101.22 144.69 93.9956C144.572 93.4764 144.612 92.9293 144.804 92.4372C144.996 91.9451 145.329 91.535 145.753 91.2689C153.491 86.4247 159.618 86.5585 164.484 91.6778C164.825 92.043 165.05 92.5186 165.125 93.0341C166.307 100.932 166.364 108.983 165.294 116.901C165.219 117.49 164.951 118.029 164.541 118.419C164.13 118.809 163.604 119.023 163.06 119.021Z" fill="#FF6584"/>
<path d="M156.62 102.672H151.14C150.838 102.671 150.548 102.539 150.334 102.305C150.12 102.071 150 101.753 150 101.422C150 101.091 150.12 100.774 150.334 100.54C150.548 100.305 150.838 100.173 151.14 100.173H156.62C156.922 100.173 157.212 100.305 157.426 100.54C157.64 100.774 157.76 101.091 157.76 101.422C157.76 101.753 157.64 102.071 157.426 102.305C157.212 102.539 156.922 102.671 156.62 102.672Z" fill="white"/>
<path d="M163.319 107.609H151.14C150.837 107.609 150.547 107.477 150.333 107.243C150.118 107.008 149.998 106.691 149.998 106.359C149.998 106.028 150.118 105.71 150.333 105.476C150.547 105.241 150.837 105.11 151.14 105.11H163.319C163.622 105.11 163.912 105.242 164.125 105.477C164.339 105.711 164.459 106.028 164.459 106.359C164.459 106.69 164.339 107.008 164.125 107.242C163.912 107.476 163.622 107.608 163.319 107.609Z" fill="white"/>
</svg>
