<svg width="412" height="347" viewBox="0 0 412 347" fill="none" xmlns="http://www.w3.org/2000/svg">
<path d="M95.802 296.758H114.11C115.359 289.535 115.359 282.151 114.11 274.929H95.802C97.8645 282.059 97.8645 289.627 95.802 296.758Z" fill="#3F3D56"/>
<path d="M90.4704 297.519H108.779C110.028 290.297 110.028 282.913 108.779 275.69H90.4704C92.533 282.82 92.533 290.389 90.4704 297.519Z" fill="#FF6584"/>
<path d="M316.476 121.462C308.834 121.462 301.364 119.196 295.011 114.951C288.657 110.705 283.705 104.671 280.78 97.6111C277.856 90.5512 277.091 82.7826 278.582 75.2878C280.072 67.7931 283.752 60.9087 289.156 55.5052C294.559 50.1018 301.444 46.422 308.938 44.9312C316.433 43.4404 324.202 44.2056 331.262 47.1299C338.321 50.0542 344.356 55.0063 348.601 61.3601C352.847 67.7139 355.113 75.1839 355.113 82.8255C355.101 93.069 351.027 102.89 343.783 110.133C336.54 117.376 326.719 121.451 316.476 121.462Z" fill="#E6E6E6"/>
<path d="M49.6513 283.823C49.4296 283.823 49.2085 283.799 48.992 283.751L42.1976 282.268C41.4045 282.094 40.7128 281.613 40.2743 280.93C39.8357 280.246 39.6861 279.417 39.8583 278.623L52.2168 221.994C52.3907 221.201 52.8721 220.51 53.5555 220.071C54.2389 219.632 55.0683 219.483 55.8618 219.655L62.6564 221.138C63.0493 221.224 63.4215 221.386 63.7517 221.616C64.082 221.845 64.3637 222.138 64.5809 222.476C64.7981 222.815 64.9465 223.193 65.0177 223.589C65.0888 223.984 65.0813 224.39 64.9955 224.783L52.6372 281.412C52.4882 282.093 52.1111 282.704 51.5682 283.142C51.0253 283.581 50.3491 283.821 49.6513 283.823Z" fill="#0089DC"/>
<path d="M50.7079 221.228L46.153 244.559C45.9521 245.258 46.0279 246.006 46.3644 246.65C46.701 247.294 47.2726 247.784 47.9605 248.018L57.9736 251.419C58.3692 251.554 58.7896 251.599 59.2046 251.551C59.6196 251.504 60.019 251.365 60.3739 251.145C60.7289 250.924 61.0305 250.628 61.2573 250.277C61.4841 249.926 61.6303 249.53 61.6854 249.115L64.9139 224.857C65.0725 224.125 64.9345 223.36 64.5301 222.729C64.1257 222.099 63.4879 221.654 62.7563 221.492L54.0758 219.067C53.3427 218.908 52.5762 219.046 51.9448 219.451C51.3133 219.856 50.8685 220.495 50.7079 221.228Z" fill="#CCCCCC"/>
<path d="M90.2845 283.823C89.5867 283.821 88.9106 283.581 88.3677 283.142C87.8248 282.704 87.4477 282.093 87.2987 281.412L74.9404 224.783C74.8546 224.39 74.8471 223.984 74.9182 223.589C74.9893 223.193 75.1377 222.815 75.3549 222.476C75.5721 222.138 75.8539 221.845 76.1841 221.616C76.5143 221.386 76.8865 221.224 77.2795 221.138L84.0741 219.655C84.8676 219.483 85.6972 219.632 86.3806 220.071C87.064 220.509 87.5454 221.201 87.719 221.994L100.078 278.623C100.25 279.417 100.1 280.246 99.6616 280.93C99.223 281.613 98.5313 282.094 97.7382 282.269L90.9439 283.751C90.7273 283.799 90.5062 283.823 90.2845 283.823Z" fill="#0089DC"/>
<path d="M89.228 221.228L93.7829 244.559C93.9837 245.258 93.908 246.006 93.5714 246.65C93.2348 247.294 92.6633 247.784 91.9753 248.018L81.9622 251.419C81.5667 251.554 81.1463 251.599 80.7312 251.551C80.3162 251.504 79.9168 251.365 79.5619 251.145C79.207 250.924 78.9053 250.628 78.6785 250.277C78.4518 249.926 78.3056 249.53 78.2505 249.115L75.0219 224.857C74.8634 224.125 75.0014 223.36 75.4057 222.729C75.8101 222.099 76.4479 221.654 77.1795 221.492L85.86 219.067C86.5932 218.908 87.3596 219.046 87.9911 219.451C88.6225 219.856 89.0673 220.495 89.228 221.228Z" fill="#CCCCCC"/>
<path d="M167.583 23.9282C171.227 23.9282 174.18 20.9748 174.18 17.3317C174.18 13.6885 171.227 10.7352 167.583 10.7352C163.94 10.7352 160.987 13.6885 160.987 17.3317C160.987 20.9748 163.94 23.9282 167.583 23.9282Z" fill="#E6E6E6"/>
<path d="M163.343 133.713C169.849 133.713 175.122 128.439 175.122 121.933C175.122 115.428 169.849 110.154 163.343 110.154C156.837 110.154 151.563 115.428 151.563 121.933C151.563 128.439 156.837 133.713 163.343 133.713Z" fill="#E6E6E6"/>
<path d="M387.624 143.608C389.185 143.608 390.451 142.342 390.451 140.78C390.451 139.219 389.185 137.953 387.624 137.953C386.063 137.953 384.797 139.219 384.797 140.78C384.797 142.342 386.063 143.608 387.624 143.608Z" fill="#FF6584"/>
<path d="M390.451 23.9282C392.012 23.9282 393.278 22.6624 393.278 21.1011C393.278 19.5398 392.012 18.274 390.451 18.274C388.89 18.274 387.624 19.5398 387.624 21.1011C387.624 22.6624 388.89 23.9282 390.451 23.9282Z" fill="#F2F2F2"/>
<path d="M348.045 196.851C349.606 196.851 350.872 195.585 350.872 194.024C350.872 192.462 349.606 191.197 348.045 191.197C346.484 191.197 345.218 192.462 345.218 194.024C345.218 195.585 346.484 196.851 348.045 196.851Z" fill="#F2F2F2"/>
<path d="M266.06 21.1011C267.621 21.1011 268.887 19.8354 268.887 18.274C268.887 16.7127 267.621 15.447 266.06 15.447C264.498 15.447 263.233 16.7127 263.233 18.274C263.233 19.8354 264.498 21.1011 266.06 21.1011Z" fill="#FF6584"/>
<path d="M309.879 71.5172C308.482 71.5172 307.115 71.1027 305.953 70.3261C304.791 69.5495 303.885 68.4456 303.35 67.1542C302.815 65.8627 302.675 64.4417 302.948 63.0707C303.22 61.6997 303.893 60.4403 304.882 59.4519C305.87 58.4635 307.13 57.7903 308.501 57.5176C309.872 57.2449 311.293 57.3849 312.584 57.9198C313.876 58.4548 314.979 59.3606 315.756 60.5229C316.533 61.6852 316.947 63.0517 316.947 64.4495C316.945 66.3233 316.2 68.1198 314.875 69.4448C313.55 70.7698 311.753 71.5151 309.879 71.5172ZM309.879 58.3242C308.668 58.3242 307.484 58.6834 306.476 59.3565C305.469 60.0296 304.684 60.9862 304.22 62.1054C303.757 63.2247 303.635 64.4563 303.872 65.6445C304.108 66.8327 304.692 67.9241 305.548 68.7808C306.405 69.6374 307.496 70.2208 308.684 70.4571C309.873 70.6935 311.104 70.5722 312.223 70.1086C313.343 69.645 314.299 68.8599 314.972 67.8526C315.646 66.8453 316.005 65.661 316.005 64.4495C316.005 62.825 315.359 61.267 314.211 60.1183C313.062 58.9695 311.504 58.3242 309.879 58.3242Z" fill="#CCCCCC"/>
<path d="M296.686 89.422C295.661 89.422 294.659 89.118 293.807 88.5485C292.955 87.979 292.29 87.1695 291.898 86.2224C291.506 85.2754 291.403 84.2333 291.603 83.2279C291.803 82.2225 292.297 81.299 293.022 80.5741C293.746 79.8493 294.67 79.3556 295.675 79.1556C296.681 78.9557 297.723 79.0583 298.67 79.4506C299.617 79.8429 300.426 80.5072 300.996 81.3595C301.565 82.2118 301.869 83.2139 301.869 84.239C301.868 85.6131 301.321 86.9305 300.35 87.9022C299.378 88.8739 298.061 89.4204 296.686 89.422ZM296.686 79.9984C295.848 79.9984 295.028 80.2471 294.33 80.7131C293.633 81.179 293.09 81.8413 292.769 82.6162C292.448 83.3911 292.364 84.2437 292.527 85.0663C292.691 85.8889 293.095 86.6445 293.688 87.2376C294.281 87.8306 295.037 88.2345 295.859 88.3981C296.682 88.5618 297.534 88.4778 298.309 88.1568C299.084 87.8359 299.746 87.2923 300.212 86.595C300.678 85.8976 300.927 85.0777 300.927 84.239C300.927 83.1143 300.48 82.0357 299.685 81.2404C298.89 80.4452 297.811 79.9984 296.686 79.9984Z" fill="#CCCCCC"/>
<path d="M325.9 114.394C324.874 114.394 323.872 114.09 323.02 113.521C322.168 112.951 321.503 112.142 321.111 111.195C320.719 110.248 320.616 109.206 320.816 108.2C321.016 107.195 321.51 106.271 322.235 105.547C322.959 104.822 323.883 104.328 324.888 104.128C325.894 103.928 326.936 104.031 327.883 104.423C328.83 104.815 329.639 105.48 330.209 106.332C330.779 107.184 331.082 108.186 331.082 109.211C331.081 110.586 330.534 111.903 329.563 112.875C328.591 113.846 327.274 114.393 325.9 114.394ZM325.9 104.971C325.061 104.971 324.241 105.22 323.544 105.686C322.846 106.151 322.303 106.814 321.982 107.589C321.661 108.364 321.577 109.216 321.74 110.039C321.904 110.861 322.308 111.617 322.901 112.21C323.494 112.803 324.25 113.207 325.072 113.371C325.895 113.534 326.747 113.45 327.522 113.129C328.297 112.808 328.959 112.265 329.425 111.567C329.891 110.87 330.14 110.05 330.14 109.211C330.139 108.087 329.692 107.009 328.897 106.214C328.102 105.419 327.024 104.972 325.9 104.971Z" fill="#CCCCCC"/>
<path d="M316.476 98.3744C284.242 98.3744 258.992 91.5446 258.992 82.8255C258.992 77.7449 266.486 73.3791 280.094 70.5323L280.288 71.4548C267.353 74.1607 259.935 78.3051 259.935 82.8255C259.935 90.743 285.827 97.432 316.476 97.432C347.125 97.432 373.017 90.743 373.017 82.8255C373.017 78.2966 365.574 74.1469 352.595 71.4403L352.788 70.5178C366.441 73.3651 373.96 77.7359 373.96 82.8255C373.96 91.5446 348.71 98.3744 316.476 98.3744Z" fill="#CCCCCC"/>
<path d="M287.471 247.84C286.163 247.84 284.843 247.819 283.547 247.779L283.576 246.837C285.437 246.895 287.337 246.911 289.207 246.886L289.22 247.828C288.638 247.836 288.055 247.84 287.471 247.84ZM294.889 247.621L294.834 246.681C296.698 246.571 298.586 246.416 300.445 246.222L300.544 247.158C298.67 247.355 296.768 247.511 294.889 247.621ZM277.882 247.475C276.002 247.331 274.103 247.142 272.236 246.913L272.351 245.978C274.204 246.205 276.088 246.392 277.954 246.535L277.882 247.475ZM306.171 246.438L306.03 245.507C307.882 245.226 309.748 244.9 311.575 244.537L311.759 245.461C309.917 245.826 308.037 246.155 306.171 246.438ZM266.623 246.094C264.766 245.779 262.891 245.417 261.052 245.018L261.252 244.097C263.077 244.493 264.937 244.852 266.78 245.164L266.623 246.094ZM317.297 244.227L317.071 243.312C318.889 242.863 320.717 242.366 322.504 241.836L322.772 242.739C320.971 243.274 319.129 243.774 317.297 244.227ZM255.537 243.687C253.715 243.202 251.882 242.669 250.089 242.102L250.373 241.204C252.153 241.767 253.972 242.295 255.779 242.776L255.537 243.687ZM328.173 241L327.864 240.111C329.628 239.497 331.402 238.834 333.138 238.139L333.488 239.015C331.739 239.714 329.951 240.382 328.173 241ZM244.706 240.262C242.937 239.612 241.157 238.911 239.415 238.177L239.781 237.308C241.509 238.036 243.275 238.732 245.031 239.378L244.706 240.262ZM338.694 236.791L338.304 235.933C339.998 235.163 341.701 234.341 343.365 233.491L343.794 234.33C342.117 235.187 340.401 236.015 338.694 236.791ZM234.229 235.851C232.528 235.041 230.821 234.179 229.156 233.289L229.6 232.458C231.253 233.341 232.946 234.196 234.634 235.001L234.229 235.851ZM348.776 231.637L348.31 230.819C349.934 229.891 351.556 228.917 353.13 227.922L353.633 228.718C352.048 229.721 350.414 230.703 348.776 231.637ZM224.208 230.497C222.591 229.535 220.971 228.521 219.394 227.482L219.913 226.695C221.477 227.726 223.085 228.733 224.69 229.688L224.208 230.497ZM358.352 225.579L357.813 224.806C359.343 223.738 360.87 222.618 362.351 221.48L362.925 222.227C361.433 223.374 359.894 224.502 358.352 225.579ZM214.725 224.252C213.204 223.147 211.685 221.989 210.209 220.811L210.797 220.075C212.261 221.244 213.769 222.393 215.278 223.489L214.725 224.252ZM367.341 218.67L366.734 217.95C368.16 216.746 369.579 215.492 370.952 214.222L371.592 214.914C370.208 216.194 368.778 217.458 367.341 218.67ZM205.855 217.169C204.438 215.929 203.031 214.638 201.672 213.334L202.325 212.654C203.673 213.949 205.07 215.229 206.476 216.461L205.855 217.169ZM375.668 210.968L374.997 210.306C376.312 208.974 377.612 207.596 378.861 206.209L379.562 206.84C378.303 208.237 376.993 209.626 375.668 210.968ZM197.669 209.313C196.37 207.947 195.086 206.534 193.855 205.115L194.566 204.497C195.789 205.906 197.062 207.308 198.352 208.664L197.669 209.313ZM383.263 202.538L382.536 201.94C383.723 200.494 384.892 199.003 386.012 197.506L386.766 198.07C385.639 199.579 384.46 201.082 383.263 202.538ZM190.235 200.749C189.068 199.274 187.919 197.751 186.82 196.223L187.584 195.673C188.675 197.189 189.816 198.7 190.974 200.164L190.235 200.749ZM390.062 193.447L389.283 192.918C390.333 191.37 391.363 189.778 392.341 188.183L393.145 188.677C392.158 190.283 391.121 191.888 390.062 193.447ZM183.615 191.548C182.588 189.974 181.583 188.355 180.627 186.733L181.439 186.255C182.388 187.864 183.385 189.471 184.404 191.033L183.615 191.548ZM396.006 183.769L395.181 183.313C396.086 181.676 396.965 179.995 397.795 178.316L398.639 178.734C397.804 180.425 396.918 182.119 396.006 183.769ZM177.864 181.788C176.985 180.126 176.133 178.422 175.331 176.722L176.184 176.32C176.979 178.007 177.825 179.698 178.697 181.347L177.864 181.788ZM401.039 173.581L400.175 173.203C400.926 171.488 401.647 169.732 402.319 167.983L403.198 168.321C402.522 170.083 401.795 171.853 401.039 173.581ZM173.034 171.548C172.312 169.814 171.62 168.041 170.978 166.275L171.864 165.953C172.501 167.705 173.187 169.465 173.904 171.186L173.034 171.548ZM405.113 162.965L404.219 162.669C404.807 160.897 405.362 159.086 405.868 157.285L406.775 157.54C406.265 159.355 405.706 161.18 405.113 162.965ZM169.163 160.9C168.602 159.104 168.075 157.27 167.597 155.447L168.508 155.207C168.983 157.017 169.506 158.837 170.062 160.619L169.163 160.9ZM408.185 152.044L407.267 151.831C407.689 150.015 408.074 148.16 408.413 146.319L409.34 146.489C408.999 148.345 408.61 150.214 408.185 152.044ZM166.285 149.927C165.892 148.086 165.536 146.211 165.228 144.353L166.157 144.198C166.463 146.043 166.816 147.904 167.206 149.73L166.285 149.927ZM410.238 140.888L409.304 140.76C409.558 138.914 409.772 137.032 409.941 135.166L410.879 135.251C410.709 137.132 410.493 139.028 410.238 140.888ZM164.427 138.736C164.205 136.871 164.023 134.971 163.885 133.09L164.825 133.021C164.961 134.888 165.143 136.773 165.363 138.625L164.427 138.736ZM411.263 129.591L410.322 129.549C410.405 127.682 410.448 125.788 410.448 123.92H411.391C411.391 125.802 411.348 127.71 411.263 129.591ZM163.599 127.423C163.567 126.268 163.551 125.089 163.551 123.92C163.551 123.195 163.557 122.471 163.569 121.749L164.512 121.765C164.499 122.482 164.493 123.2 164.493 123.92C164.493 125.08 164.51 126.25 164.541 127.397L163.599 127.423ZM410.441 122.605C410.422 120.737 410.359 118.843 410.256 116.977L411.196 116.924C411.301 118.805 411.364 120.713 411.384 122.595L410.441 122.605ZM164.735 116.139L163.795 116.08C163.912 114.198 164.075 112.296 164.277 110.428L165.214 110.529C165.013 112.383 164.852 114.27 164.735 116.139ZM409.815 111.364C409.627 109.506 409.393 107.627 409.119 105.777L410.052 105.639C410.327 107.503 410.563 109.397 410.753 111.269L409.815 111.364ZM165.948 104.947L165.016 104.803C165.305 102.939 165.64 101.06 166.013 99.2181L166.937 99.4049C166.567 101.233 166.234 103.098 165.948 104.947ZM408.168 100.228C407.809 98.39 407.404 96.5396 406.963 94.7285L407.878 94.5058C408.322 96.3307 408.731 98.1954 409.093 100.047L408.168 100.228ZM168.18 93.9138L167.266 93.6847C167.723 91.8596 168.23 90.0193 168.772 88.2146L169.674 88.4856C169.137 90.2765 168.634 92.1028 168.18 93.9138ZM405.505 89.2899C404.979 87.4957 404.405 85.6908 403.798 83.9248L404.689 83.6183C405.301 85.3979 405.88 87.217 406.41 89.0249L405.505 89.2899ZM171.424 83.1175L170.535 82.805C171.161 81.0236 171.837 79.2337 172.544 77.485L173.418 77.8383C172.716 79.5735 172.045 81.3499 171.424 83.1175ZM401.846 78.6438C401.158 76.9095 400.422 75.1691 399.657 73.4705L400.517 73.0835C401.287 74.7952 402.029 76.549 402.722 78.2964L401.846 78.6438ZM175.653 72.6586L174.797 72.2652C175.584 70.5511 176.422 68.8323 177.287 67.1565L178.124 67.5886C177.265 69.2518 176.434 70.9575 175.653 72.6586ZM397.234 68.4012C396.39 66.7376 395.497 65.0705 394.578 63.4469L395.398 62.9826C396.324 64.6189 397.224 66.2986 398.074 67.9751L397.234 68.4012ZM180.825 62.6389L180.009 62.1687C180.949 60.5363 181.94 58.9024 182.955 57.3126L183.749 57.8197C182.742 59.3975 181.758 61.019 180.825 62.6389ZM391.697 58.6173C390.702 57.0322 389.659 55.453 388.598 53.9235L389.372 53.3865C390.441 54.9277 391.492 56.5189 392.495 58.1162L391.697 58.6173ZM186.891 53.1406L186.121 52.5976C187.207 51.0569 188.343 49.5211 189.497 48.0331L190.242 48.6105C189.096 50.0876 187.969 51.6115 186.891 53.1406ZM385.287 49.3748C384.151 47.8874 382.969 46.4088 381.771 44.9801L382.494 44.3748C383.7 45.8145 384.892 47.3042 386.036 48.8029L385.287 49.3748ZM193.795 44.2395L193.078 43.6284C194.297 42.1965 195.568 40.7712 196.854 39.3922L197.543 40.035C196.266 41.4037 195.005 42.8183 193.795 44.2395ZM378.059 40.7489C376.793 39.371 375.48 38.0053 374.156 36.6903L374.821 36.0217C376.154 37.3471 377.477 38.7229 378.753 40.1111L378.059 40.7489ZM201.478 36.0069L200.819 35.3333C202.166 34.015 203.561 32.7117 204.963 31.4597L205.591 32.1627C204.199 33.4051 202.815 34.6985 201.478 36.0069ZM370.074 32.8125C368.686 31.5542 367.254 30.3132 365.817 29.124L366.417 28.3979C367.866 29.5961 369.309 30.8465 370.707 32.1144L370.074 32.8125ZM209.873 28.5098L209.278 27.7791C210.736 26.5922 212.242 25.4216 213.755 24.2997L214.317 25.0567C212.815 26.1702 211.32 27.3318 209.873 28.5098ZM361.396 25.6323C359.899 24.5052 358.359 23.3993 356.818 22.3453L357.35 21.5677C358.902 22.6295 360.454 23.7437 361.962 24.8795L361.396 25.6323ZM218.911 21.8109L218.385 21.0291C219.945 19.9795 221.551 18.9518 223.159 17.9738L223.648 18.7791C222.053 19.7495 220.46 20.7696 218.911 21.8109ZM352.094 19.2707C350.502 18.2851 348.866 17.3243 347.234 16.4146L347.692 15.5915C349.338 16.508 350.985 17.4764 352.59 18.4692L352.094 19.2707ZM228.518 15.9676L228.065 15.1408C229.716 14.2377 231.408 13.3616 233.095 12.5364L233.509 13.383C231.835 14.2018 230.156 15.0713 228.518 15.9676ZM342.246 13.7843C340.569 12.9489 338.852 12.1418 337.141 11.3856L337.522 10.5238C339.246 11.2857 340.977 12.099 342.667 12.9409L342.246 13.7843ZM238.611 11.0306L238.237 10.166C239.961 9.41848 241.725 8.70159 243.48 8.03508L243.814 8.91624C242.073 9.57747 240.323 10.2889 238.611 11.0306ZM331.929 9.22386C330.184 8.54725 328.398 7.90166 326.621 7.30533L326.921 6.41175C328.712 7.01292 330.511 7.66331 332.269 8.34546L331.929 9.22386ZM249.123 7.03915L248.829 6.14372C250.62 5.55659 252.447 5.00374 254.259 4.50104L254.511 5.40889C252.713 5.90794 250.9 6.45639 249.123 7.03915ZM321.243 5.63802C319.445 5.12566 317.612 4.6485 315.794 4.21989L316.011 3.30284C317.843 3.73467 319.69 4.21551 321.501 4.73155L321.243 5.63802ZM259.97 4.0287L259.76 3.11004C261.596 2.69063 263.466 2.30848 265.319 1.97442L265.486 2.9016C263.648 3.23338 261.792 3.61251 259.97 4.0287ZM310.286 3.05482C308.451 2.71039 306.582 2.40396 304.73 2.14398L304.861 1.21083C306.727 1.47288 308.611 1.78163 310.46 2.12857L310.286 3.05482ZM271.048 2.02941L270.924 1.09534C272.789 0.846403 274.686 0.637044 276.562 0.473691L276.644 1.41237C274.782 1.57482 272.9 1.78232 271.048 2.02941ZM299.138 1.48875C297.282 1.3139 295.393 1.17908 293.522 1.08866L293.568 0.147243C295.453 0.238581 297.356 0.374353 299.227 0.550573L299.138 1.48875ZM282.263 1.05093L282.224 0.109516C283.956 0.0372747 285.721 0.000466467 287.471 0L287.897 0.000697393L287.894 0.943054L287.471 0.942357C285.734 0.942828 283.982 0.979373 282.263 1.05093Z" fill="#E6E6E6"/>
<path d="M181.207 173.766C185.62 168.427 190.603 163.408 196.684 160.093C202.766 156.777 210.092 155.306 216.731 157.278C221.688 158.75 225.913 161.988 229.823 165.371C237.834 172.303 245.221 180.239 254.67 185.029C264.118 189.819 276.569 190.713 284.595 183.798C290.946 178.325 293.655 168.846 301.24 165.274C308.717 161.753 317.387 165.534 324.975 168.811C335.279 173.26 345.942 176.827 356.849 179.474C364.227 181.264 371.828 182.636 379.387 181.916C386.945 181.196 394.531 178.17 399.461 172.396" fill="#E6E6E6"/>
<path d="M145.177 147.247H164.202C165.5 139.741 165.5 132.069 164.202 124.564H145.177C147.32 131.973 147.32 139.838 145.177 147.247Z" fill="#0089DC"/>
<path d="M322.34 88.8206H341.365C342.663 81.3153 342.663 73.6428 341.365 66.1375H322.34C324.483 73.5466 324.483 81.4114 322.34 88.8206Z" fill="#0089DC"/>
<path d="M161.458 131.828H148.736V133.242H161.458V131.828Z" fill="#F2F2F2"/>
<path d="M161.458 135.126H148.736V136.54H161.458V135.126Z" fill="#F2F2F2"/>
<path d="M339.092 71.5172H326.371V72.9307H339.092V71.5172Z" fill="#F2F2F2"/>
<path d="M339.092 78.1137H326.371V79.5272H339.092V78.1137Z" fill="#F2F2F2"/>
<path d="M339.092 74.8155H326.371V76.229H339.092V74.8155Z" fill="#F2F2F2"/>
<path d="M152.677 345.944H0V347H152.677V345.944Z" fill="#3F3D56"/>
<path d="M70.0488 214.407C83.9758 214.407 95.2659 203.117 95.2659 189.19C95.2659 175.263 83.9758 163.972 70.0488 163.972C56.1218 163.972 44.8317 175.263 44.8317 189.19C44.8317 203.117 56.1218 214.407 70.0488 214.407Z" fill="#0089DC"/>
<path d="M66.0754 346.255H59.1212C58.3092 346.254 57.5307 345.931 56.9566 345.357C56.3824 344.783 56.0594 344.004 56.0585 343.192V285.23C56.0594 284.418 56.3824 283.64 56.9566 283.066C57.5307 282.492 58.3092 282.169 59.1212 282.168H66.0754C66.8874 282.169 67.6658 282.492 68.24 283.066C68.8142 283.64 69.1371 284.418 69.1381 285.23V343.192C69.1371 344.004 68.8142 344.783 68.24 345.357C67.6658 345.931 66.8874 346.254 66.0754 346.255Z" fill="#2F2E41"/>
<path d="M79.8302 346.255H72.8757C72.0638 346.254 71.2853 345.931 70.7112 345.357C70.137 344.783 69.814 344.004 69.8131 343.192V285.23C69.814 284.418 70.137 283.64 70.7112 283.066C71.2853 282.492 72.0638 282.169 72.8757 282.168H79.8302C80.6422 282.169 81.4207 282.492 81.9948 283.066C82.569 283.64 82.892 284.418 82.8929 285.23V343.192C82.892 344.004 82.569 344.783 81.9948 345.357C81.4207 345.931 80.6422 346.254 79.8302 346.255Z" fill="#2F2E41"/>
<path d="M85.5615 291.809H53.963C53.1511 291.808 52.3726 291.485 51.7984 290.911C51.2243 290.337 50.9013 289.558 50.9004 288.746V221.615C50.9013 220.803 51.2243 220.024 51.7984 219.45C52.3726 218.876 53.1511 218.553 53.963 218.552H85.5615C86.3734 218.553 87.1519 218.876 87.726 219.45C88.3002 220.024 88.6232 220.803 88.6241 221.615V288.746C88.6232 289.558 88.3002 290.337 87.726 290.911C87.1519 291.485 86.3734 291.808 85.5615 291.809Z" fill="#CCCCCC"/>
<path d="M82.2647 178.528C82.1357 177.961 81.8324 177.448 81.3972 177.063C80.962 176.677 80.4169 176.438 79.8385 176.378C79.1973 176.303 78.5474 176.39 77.9487 176.632C77.3501 176.874 76.822 177.262 76.413 177.762C75.439 178.839 74.9227 180.182 74.2224 181.431C73.4912 182.735 72.5096 183.674 70.9983 183.954C67.9271 184.523 65.2824 182.351 63.2334 180.36C60.8476 178.045 58.6837 175.512 56.77 172.793C54.9434 170.195 53.0912 167.371 52.4427 164.214C52.1279 162.885 52.1915 161.494 52.6261 160.199C53.0607 158.904 53.8491 157.756 54.9021 156.886C59.743 152.887 66.5164 154.55 72.1944 154.719C75.533 154.819 78.871 154.374 81.7205 152.516C84.1283 150.946 85.9563 148.512 86.0155 145.554C86.0337 144.644 84.6202 144.644 84.602 145.554C84.5494 148.182 82.7544 150.27 80.5833 151.559C77.9526 153.121 74.9718 153.406 71.9682 153.298C66.0755 153.087 59.5484 151.662 54.4152 155.485C53.3326 156.259 52.4458 157.275 51.8252 158.452C51.2046 159.63 50.8675 160.935 50.8406 162.266C50.7947 165.421 52.2834 168.427 53.9142 171.04C55.6647 173.842 57.6626 176.482 59.8839 178.928C61.9938 181.252 64.3432 183.81 67.343 184.95C68.7901 185.515 70.3801 185.601 71.8798 185.196C72.6474 184.951 73.3582 184.555 73.9702 184.031C74.5822 183.507 75.0829 182.865 75.443 182.144C76.1871 180.817 76.7118 179.17 77.9816 178.227C78.8873 177.554 80.6726 177.503 80.9016 178.903C81.048 179.799 82.4103 179.419 82.2647 178.528Z" fill="#2F2E41"/>
<path d="M268.887 190.254C270.448 190.254 271.714 188.988 271.714 187.427C271.714 185.866 270.448 184.6 268.887 184.6C267.326 184.6 266.06 185.866 266.06 187.427C266.06 188.988 267.326 190.254 268.887 190.254Z" fill="#FF6584"/>
<path d="M263.914 210.385H282.939C284.237 202.879 284.237 195.207 282.939 187.702H263.914C266.057 195.111 266.057 202.975 263.914 210.385Z" fill="#3F3D56"/>
<path d="M280.195 196.38H267.473V197.793H280.195V196.38Z" fill="#F2F2F2"/>
<path d="M91.344 200.337L91.3177 199.394C93.0709 199.346 94.6165 199.236 95.7778 198.387C96.1071 198.133 96.3777 197.811 96.5713 197.443C96.765 197.074 96.877 196.669 96.8999 196.254C96.9203 196 96.8819 195.745 96.7877 195.508C96.6935 195.272 96.546 195.06 96.3567 194.89C95.5857 194.239 94.3452 194.449 93.441 194.864L92.6613 195.221L94.1565 184.295L95.0902 184.423L93.8183 193.717C95.0469 193.356 96.1853 193.512 96.965 194.17C97.2644 194.431 97.4993 194.758 97.6513 195.126C97.8034 195.493 97.8685 195.89 97.8415 196.287C97.814 196.845 97.6648 197.39 97.4043 197.884C97.1439 198.379 96.7784 198.81 96.3337 199.148C94.8415 200.239 92.9022 200.293 91.344 200.337Z" fill="#2F2E41"/>
<path d="M88.7626 185.224H83.6873V186.166H88.7626V185.224Z" fill="#2F2E41"/>
</svg>
