<svg width="242" height="233" viewBox="0 0 242 233" fill="none" xmlns="http://www.w3.org/2000/svg">
<path d="M107.218 120.111L125.382 151.721H89.0542L107.218 120.111Z" fill="#0089DC"/>
<path d="M55.6098 89.0683H17.5217V127.337H55.6098V89.0683Z" fill="#F2F2F2"/>
<path d="M82.9119 64.6846C96.4081 64.6846 107.349 53.6918 107.349 40.1316C107.349 26.5713 96.4081 15.5785 82.9119 15.5785C69.4157 15.5785 58.4748 26.5713 58.4748 40.1316C58.4748 53.6918 69.4157 64.6846 82.9119 64.6846Z" fill="#0089DC"/>
<path d="M104.905 81.1287C104.905 80.3249 105.142 79.5392 105.587 78.8709C106.031 78.2026 106.663 77.6817 107.402 77.3741C108.141 77.0665 108.954 76.986 109.739 77.1428C110.524 77.2997 111.244 77.6867 111.81 78.2551C112.376 78.8234 112.761 79.5475 112.917 80.3359C113.073 81.1242 112.993 81.9413 112.687 82.6839C112.381 83.4265 111.862 84.0612 111.197 84.5078C110.532 84.9543 109.75 85.1927 108.95 85.1927C107.877 85.1927 106.848 84.7645 106.09 84.0024C105.331 83.2402 104.905 82.2065 104.905 81.1287ZM105.579 81.1287C105.579 81.7985 105.777 82.4533 106.147 83.0102C106.518 83.5671 107.044 84.0012 107.66 84.2575C108.276 84.5139 108.954 84.5809 109.608 84.4503C110.261 84.3196 110.862 83.997 111.333 83.5234C111.805 83.0498 112.126 82.4464 112.256 81.7894C112.386 81.1325 112.319 80.4515 112.064 79.8327C111.809 79.2139 111.377 78.685 110.823 78.3128C110.268 77.9407 109.617 77.7421 108.95 77.7421C108.056 77.7421 107.199 78.0989 106.567 78.734C105.934 79.3691 105.579 80.2305 105.579 81.1287Z" fill="#CCCCCC"/>
<path d="M70.0819 151.82L64.128 145.407L70.5113 139.424L76.4652 145.838L70.0819 151.82ZM65.0772 145.44L70.1149 150.867L75.516 145.805L70.4783 140.378L65.0772 145.44Z" fill="#CCCCCC"/>
<path d="M20.9092 60.5824L16.0635 55.3626L21.26 50.4946L26.1057 55.7144L20.9092 60.5824ZM16.8358 55.3897L20.9375 59.8079L25.3334 55.688L21.2331 51.2712L16.8358 55.3897Z" fill="#CCCCCC"/>
<path d="M88.979 67.7326C82.3125 67.7326 75.7958 65.7463 70.2528 62.0251C64.7098 58.3038 60.3896 53.0146 57.8385 46.8264C55.2873 40.6381 54.6198 33.8287 55.9204 27.2593C57.221 20.6899 60.4312 14.6555 65.1451 9.91922C69.859 5.18293 75.8649 1.95748 82.4032 0.650746C88.9416 -0.655992 95.7188 0.0146737 101.878 2.57793C108.037 5.14119 113.301 9.48192 117.005 15.0512C120.708 20.6205 122.685 27.1682 122.685 33.8663C122.685 42.8482 119.134 51.4622 112.813 57.8134C106.492 64.1645 97.9185 67.7326 88.979 67.7326ZM88.979 0.677341C82.4459 0.677341 76.0594 2.62384 70.6273 6.27069C65.1952 9.91754 60.9614 15.1009 58.4613 21.1654C55.9612 27.2299 55.307 33.9031 56.5816 40.3411C57.8561 46.7792 61.0021 52.6929 65.6217 57.3344C70.2414 61.976 76.1271 65.1369 82.5348 66.4175C88.9424 67.6981 95.584 67.0409 101.62 64.5289C107.656 62.0169 112.815 57.763 116.444 52.3051C120.074 46.8472 122.011 40.4304 122.011 33.8663C122.011 25.064 118.531 16.6223 112.336 10.3982C106.142 4.17402 97.7397 0.677341 88.979 0.677341Z" fill="#3F3D56"/>
<path d="M68.2297 60.2157L59.5224 78.4231L60.13 78.7165L68.8373 60.509L68.2297 60.2157Z" fill="#3F3D56"/>
<path d="M66.2195 102.655L65.8986 103.25L104.252 124.106L104.573 123.51L66.2195 102.655Z" fill="#3F3D56"/>
<path d="M66.3958 127.676H17.1846V78.2311H66.3958V127.676ZM17.8587 126.999H65.7217V78.9084H17.8587V126.999Z" fill="#3F3D56"/>
<path d="M139.373 152.06H88.4704L113.922 107.767L139.373 152.06ZM89.638 151.382H138.205L113.922 109.122L89.638 151.382Z" fill="#3F3D56"/>
<path d="M241.5 232.323H0.5V233H241.5V232.323Z" fill="#F2F2F2"/>
<path d="M70.0368 211.201C71.7518 211.806 73.5933 211.958 75.3836 211.641C77.174 211.324 78.853 210.55 80.2589 209.391C83.8391 206.372 84.9619 201.399 85.875 196.793L88.5766 183.169L82.9206 187.082C78.853 189.896 74.694 192.801 71.8778 196.877C69.0616 200.952 67.833 206.517 70.0951 210.927" fill="#F2F2F2"/>
<path d="M70.9101 228.643C70.1982 223.432 69.4658 218.154 69.9663 212.887C70.4099 208.209 71.8303 203.641 74.7219 199.894C76.2568 197.91 78.1245 196.209 80.241 194.869C80.7928 194.519 81.3007 195.398 80.7513 195.746C77.0891 198.072 74.2565 201.506 72.6618 205.553C70.9007 210.053 70.6179 214.959 70.9212 219.74C71.1046 222.631 71.4942 225.504 71.8856 228.372C71.9165 228.502 71.8972 228.639 71.8316 228.755C71.766 228.871 71.659 228.958 71.5323 228.997C71.403 229.032 71.2652 229.015 71.1488 228.948C71.0324 228.882 70.9467 228.772 70.9104 228.642L70.9101 228.643Z" fill="#F2F2F2"/>
<path d="M118.032 221.465C118.865 222.454 119.937 223.21 121.145 223.661C122.353 224.112 123.656 224.243 124.929 224.041C128.196 223.485 130.659 220.847 132.86 218.359L139.373 211.001L134.52 211.356C131.028 211.612 127.448 211.89 124.273 213.368C121.098 214.846 118.359 217.805 118.169 221.319" fill="#F2F2F2"/>
<path d="M112.442 231.727C113.588 228.958 114.741 226.151 116.498 223.706C118.058 221.535 120.067 219.7 122.565 218.694C123.889 218.163 125.295 217.868 126.72 217.822C127.091 217.81 127.091 218.389 126.72 218.401C124.253 218.484 121.875 219.352 119.93 220.88C117.773 222.583 116.226 224.913 115.004 227.351C114.264 228.826 113.631 230.351 113.001 231.875C112.979 231.948 112.931 232.009 112.865 232.047C112.8 232.085 112.722 232.097 112.649 232.08C112.575 232.06 112.512 232.011 112.474 231.945C112.436 231.878 112.425 231.799 112.445 231.725L112.442 231.727Z" fill="#F2F2F2"/>
<path d="M76.0341 220.282C76.7696 221.405 77.7806 222.319 78.9698 222.936C80.1591 223.553 81.4864 223.852 82.8239 223.804C86.262 223.64 89.127 221.23 91.7059 218.941L99.3353 212.173L94.2861 211.93C90.6549 211.755 86.93 211.591 83.4714 212.718C80.0128 213.844 76.8232 216.551 76.1908 220.148" fill="#F2F2F2"/>
<path d="M68.8978 231.639C72.3251 225.546 76.3001 218.774 83.4033 216.61C85.3782 216.01 87.449 215.795 89.5042 215.977C90.152 216.033 89.9902 217.036 89.3437 216.98C85.8987 216.693 82.4602 217.607 79.6073 219.568C76.8619 221.446 74.7243 224.056 72.9153 226.824C71.807 228.52 70.8144 230.287 69.8217 232.052C69.5045 232.617 68.5769 232.209 68.8978 231.639Z" fill="#F2F2F2"/>
<path d="M8.41525 220.847C9.65642 221.285 10.989 221.395 12.2847 221.166C13.5803 220.936 14.7954 220.376 15.8128 219.537C18.4038 217.352 19.2171 213.753 19.8771 210.419L21.832 200.56L17.7391 203.392C14.7955 205.428 11.7859 207.53 9.74766 210.48C7.70944 213.43 6.81993 217.456 8.45739 220.648" fill="#F2F2F2"/>
<path d="M8.76511 232.783C8.35086 229.751 7.92482 226.681 8.21537 223.616C8.47356 220.894 9.2997 218.236 10.9823 216.057C11.8754 214.902 12.9621 213.913 14.1935 213.133C14.5147 212.93 14.81 213.441 14.4905 213.643C12.3598 214.996 10.7118 216.994 9.78406 219.349C8.75939 221.967 8.5949 224.822 8.77287 227.603C8.87972 229.286 9.10589 230.956 9.33408 232.626C9.35246 232.701 9.3414 232.781 9.30317 232.849C9.26495 232.916 9.20245 232.967 9.12847 232.989C9.05321 233.01 8.97299 233 8.9052 232.961C8.83742 232.922 8.78756 232.858 8.76646 232.783L8.76511 232.783Z" fill="#F2F2F2"/>
<path d="M39.2541 232.814C39.1651 232.668 37.0683 229.15 36.3416 221.845C35.6749 215.143 36.1036 203.847 41.9341 188.09C52.9804 158.239 39.3886 134.153 39.2498 133.913L39.9202 133.523C39.9539 133.584 43.4627 139.724 45.5343 149.503C48.2718 162.467 47.275 175.946 42.6605 188.362C31.6331 218.162 39.8315 232.269 39.9155 232.408L39.2541 232.814Z" fill="#3F3D56"/>
<path d="M50.8225 150.849C53.6046 150.849 55.8599 148.583 55.8599 145.788C55.8599 142.992 53.6046 140.726 50.8225 140.726C48.0404 140.726 45.7851 142.992 45.7851 145.788C45.7851 148.583 48.0404 150.849 50.8225 150.849Z" fill="#0089DC"/>
<path d="M36.0972 190.172C38.8793 190.172 41.1346 187.906 41.1346 185.111C41.1346 182.316 38.8793 180.05 36.0972 180.05C33.3151 180.05 31.0598 182.316 31.0598 185.111C31.0598 187.906 33.3151 190.172 36.0972 190.172Z" fill="#0089DC"/>
<path d="M41.8283 232.662C41.8283 232.662 37.5297 222.031 50.4251 214.058L41.8283 232.662Z" fill="#F2F2F2"/>
<path d="M36.5418 232.469C36.5418 232.469 35.2306 224.891 25.0817 224.956L36.5418 232.469Z" fill="#F2F2F2"/>
<path d="M48.2787 170.809C48.2787 170.006 48.5159 169.22 48.9603 168.552C49.4048 167.883 50.0365 167.362 50.7756 167.055C51.5146 166.747 52.3279 166.667 53.1125 166.823C53.8971 166.98 54.6178 167.367 55.1835 167.936C55.7492 168.504 56.1344 169.228 56.2905 170.016C56.4465 170.805 56.3664 171.622 56.0603 172.365C55.7542 173.107 55.2357 173.742 54.5706 174.188C53.9054 174.635 53.1234 174.873 52.3234 174.873C51.2507 174.873 50.2219 174.445 49.4633 173.683C48.7048 172.921 48.2787 171.887 48.2787 170.809ZM48.9528 170.809C48.9528 171.479 49.1505 172.134 49.5208 172.691C49.8912 173.248 50.4176 173.682 51.0335 173.938C51.6494 174.194 52.3272 174.262 52.981 174.131C53.6348 174 54.2354 173.678 54.7068 173.204C55.1782 172.73 55.4992 172.127 55.6293 171.47C55.7593 170.813 55.6926 170.132 55.4375 169.513C55.1824 168.895 54.7503 168.366 54.196 167.993C53.6417 167.621 52.9901 167.423 52.3234 167.423C51.4295 167.423 50.5721 167.779 49.94 168.415C49.3079 169.05 48.9528 169.911 48.9528 170.809Z" fill="#CCCCCC"/>
<path d="M36.0972 158.265C36.0972 157.461 36.3344 156.676 36.7789 156.007C37.2233 155.339 37.855 154.818 38.5941 154.511C39.3332 154.203 40.1465 154.123 40.9311 154.279C41.7157 154.436 42.4364 154.823 43.002 155.392C43.5677 155.96 43.9529 156.684 44.109 157.472C44.2651 158.261 44.185 159.078 43.8788 159.82C43.5727 160.563 43.0543 161.198 42.3891 161.644C41.724 162.091 40.9419 162.329 40.142 162.329C39.0692 162.329 38.0404 161.901 37.2819 161.139C36.5233 160.377 36.0972 159.343 36.0972 158.265ZM36.7713 158.265C36.7713 158.935 36.969 159.59 37.3394 160.147C37.7098 160.704 38.2362 161.138 38.8521 161.394C39.468 161.65 40.1457 161.717 40.7995 161.587C41.4534 161.456 42.054 161.134 42.5254 160.66C42.9968 160.186 43.3178 159.583 43.4478 158.926C43.5779 158.269 43.5111 157.588 43.256 156.969C43.0009 156.35 42.5689 155.822 42.0146 155.449C41.4603 155.077 40.8086 154.879 40.142 154.879C39.248 154.879 38.3907 155.235 37.7586 155.871C37.1265 156.506 36.7713 157.367 36.7713 158.265Z" fill="#CCCCCC"/>
<path d="M215.517 148.543C215.014 148.906 214.437 149.153 213.828 149.265C213.219 149.378 212.593 149.354 211.994 149.194C210.919 148.907 210.002 148.203 209.444 147.236C208.887 146.27 208.734 145.121 209.02 144.041C209.034 143.986 209.05 143.931 209.066 143.877C209.129 143.68 209.206 143.487 209.297 143.301L201.055 106.122C200.929 105.698 200.887 105.253 200.932 104.812C200.977 104.372 201.108 103.944 201.318 103.555C201.527 103.165 201.811 102.821 202.153 102.541C202.495 102.262 202.888 102.053 203.311 101.926C203.733 101.799 204.176 101.757 204.614 101.802C205.053 101.848 205.478 101.979 205.866 102.19C206.254 102.4 206.597 102.685 206.875 103.029C207.153 103.372 207.361 103.768 207.487 104.192C207.494 104.215 207.501 104.238 207.507 104.262L215.287 141.553C215.872 141.918 216.358 142.422 216.702 143.021C217.046 143.62 217.238 144.295 217.261 144.986C217.284 145.678 217.137 146.364 216.832 146.984C216.528 147.605 216.077 148.14 215.518 148.544L215.517 148.543Z" fill="#9F616A"/>
<path d="M226.462 228.307H221.992L219.865 210.983H226.463L226.462 228.307Z" fill="#A0616A"/>
<path d="M227.602 232.661H213.188V232.478C213.188 230.983 213.78 229.55 214.832 228.493C215.884 227.436 217.31 226.842 218.798 226.841H227.602V232.661Z" fill="#2F2E41"/>
<path d="M181.646 228.166L177.393 226.783L180.676 209.642L186.953 211.683L181.646 228.166Z" fill="#A0616A"/>
<path d="M181.397 232.662L167.684 228.204L167.74 228.03C168.198 226.607 169.2 225.426 170.525 224.746C171.849 224.065 173.389 223.941 174.805 224.401L183.181 227.124L181.397 232.662Z" fill="#2F2E41"/>
<path d="M201.701 96.0895C205.866 96.0895 209.242 92.6969 209.242 88.5119C209.242 84.3269 205.866 80.9343 201.701 80.9343C197.535 80.9343 194.159 84.3269 194.159 88.5119C194.159 92.6969 197.535 96.0895 201.701 96.0895Z" fill="#9F616A"/>
<path d="M211.839 117.968C212.887 114.055 208.085 101.78 207.693 100.223C205.821 99.7884 201.482 100.621 198.815 100.069C195.023 103.253 192.006 107.8 189.922 109.958C187.755 112.202 186.357 113.723 188.597 118.974C191.312 125.339 190.709 132.007 190.709 132.007L192.519 148.071C192.519 148.071 184.977 169.288 185.58 183.534L178.641 218.389C178.641 218.389 180.753 222.027 184.977 220.208C184.977 220.208 194.932 202.327 194.027 189.292L204.887 165.044C204.887 165.044 212.429 188.079 214.54 190.201L219.97 222.936C219.97 222.936 225.099 224.451 227.512 222.936C227.512 222.936 228.417 191.413 223.289 186.26C223.289 186.26 218.16 164.437 219.367 158.678C220.574 152.919 220.875 144.13 211.825 136.249C211.825 136.249 211.916 136.291 209.11 131.096L211.839 117.968Z" fill="#2F2E41"/>
<path d="M205.635 76.7996C205.212 76.8005 204.79 76.8427 204.375 76.9256C203.626 76.56 202.803 76.3697 201.97 76.3688H201.752C197.543 76.3688 194.132 80.1957 194.132 84.915H195.542L195.77 83.1732L196.104 84.915H197.278C196.913 86.3125 196.729 87.7517 196.733 89.1967V97.8956H198.865L200.099 94.6725L199.79 97.8956H213.494L214.617 94.9655L214.336 97.8956H215.879V91.0651C215.879 83.1864 211.292 76.7996 205.635 76.7996Z" fill="#2F2E41"/>
<path d="M189.91 152.849C189.298 152.941 188.672 152.896 188.079 152.717C187.486 152.537 186.94 152.229 186.48 151.812C186.071 151.442 185.738 150.994 185.502 150.494C185.265 149.995 185.129 149.454 185.1 148.901C185.072 148.349 185.152 147.796 185.336 147.275C185.521 146.753 185.805 146.274 186.174 145.863C186.212 145.82 186.251 145.778 186.291 145.737C186.436 145.59 186.592 145.454 186.758 145.331L196.314 108.472C196.395 108.037 196.559 107.622 196.799 107.25C197.039 106.879 197.35 106.558 197.713 106.307C198.076 106.057 198.485 105.88 198.916 105.788C199.347 105.696 199.792 105.69 200.226 105.77C200.659 105.851 201.073 106.017 201.442 106.258C201.812 106.499 202.131 106.811 202.381 107.176C202.63 107.541 202.806 107.952 202.898 108.385C202.989 108.818 202.995 109.265 202.915 109.7C202.91 109.726 202.905 109.751 202.9 109.776L192.88 146.523C193.234 147.116 193.438 147.788 193.472 148.478C193.506 149.169 193.37 149.857 193.077 150.483C192.783 151.108 192.34 151.651 191.788 152.064C191.236 152.477 190.591 152.746 189.91 152.849Z" fill="#9F616A"/>
</svg>
