<svg width="248" height="197" viewBox="0 0 248 197" fill="none" xmlns="http://www.w3.org/2000/svg">
<path d="M60.3952 23.3577L28.2292 27.1859L31.8218 58.0077L63.9878 54.1795L60.3952 23.3577Z" fill="#2F2E41"/>
<path d="M43.955 41.1248C52.6766 41.1248 59.7469 33.9805 59.7469 25.1675C59.7469 16.3546 52.6766 9.21023 43.955 9.21023C35.2334 9.21023 28.1632 16.3546 28.1632 25.1675C28.1632 33.9805 35.2334 41.1248 43.955 41.1248Z" fill="#FFB6B6"/>
<path d="M33.5432 0.417627C23.7022 3.17828 24.6188 6.8851 21.6369 9.22087C16.3836 13.336 15.3111 23.5414 19.062 29.7452C20.0642 31.4028 22.0252 33.5934 21.5096 36.272C21.1138 38.3282 19.4432 39.7122 19.1286 39.9643C16.5533 42.0276 18.1271 39.7503 17.0409 41.3492C15.842 43.1139 18.2515 45.1183 17.2701 48.1399C16.4001 50.8187 13.9713 50.8904 13.8452 52.5247C13.6282 55.3391 20.4437 60.1347 26.9606 58.9182C32.763 57.8351 36.5247 52.3227 37.4311 47.445C38.0383 44.1776 37.8266 38.7069 35.0156 36.3691C34.6213 36.0412 33.557 35.2602 32.4706 33.8311C31.611 32.7002 30.4793 31.2115 30.9042 30.0403C31.3569 28.7926 33.1017 29.2133 34.0358 27.9631C35.3026 26.2676 33.2864 23.8977 33.2519 21.2383C33.1937 16.7351 38.8076 10.6425 45.5169 10.6879C53.1281 10.7393 56.8402 18.6541 57.2298 19.521C58.0373 21.3176 58.2361 23.1251 58.6335 26.7401C59.2041 31.9279 59.5615 35.1795 58.3415 38.7065C56.5867 43.7793 53.5783 43.6118 53.1555 47.278C52.4964 52.9942 59.2971 57.8469 60.0731 58.3863C65.8264 62.3851 73.8648 62.8366 74.9496 60.593C75.927 58.5712 70.3334 56.2728 69.8264 50.4075C69.387 45.3247 73.2634 43.2979 71.9782 39.9243C70.5635 36.2107 65.4979 37.6992 62.8102 33.6292C60.3016 29.8303 63.7953 27.1412 62.2211 18.9269C61.888 17.1893 60.7569 12.2231 56.9673 7.62062C55.2978 5.59297 53.5998 3.53077 50.7682 2.6767C47.5983 1.72059 38.7489 -1.04265 33.5432 0.417627Z" fill="#2F2E41"/>
<path d="M28.5213 15.2195C29.3326 18.6413 34.6878 19.7282 36.9387 19.8994C37.892 19.972 41.1135 20.2171 44.083 18.481C45.1805 17.8393 45.5487 17.3333 46.7252 17.0302C48.3182 16.6199 49.206 17.1448 51.8472 17.557C54.784 18.0152 56.2525 18.2444 56.9037 17.5233C57.9683 16.3446 56.6619 13.0585 55.0107 10.9306C51.9576 6.99582 47.1203 6.24058 44.8643 5.88827C42.2867 5.4858 37.056 4.66904 32.7287 7.90075C32.1502 8.33281 27.697 11.743 28.5213 15.2195Z" fill="#2F2E41"/>
<path d="M243.157 76.7094C243.23 75.9005 241.359 75.4558 241.463 74.7489C241.566 74.0445 243.46 74.2409 245.499 73.017C245.866 72.7962 248.183 71.4053 247.988 70.3113C247.62 68.2377 238.553 69.0546 237.75 66.031C237.574 65.3674 237.777 64.4484 237.298 62.3647C237.107 61.5358 236.942 61.1039 236.586 60.9597C236.081 60.755 235.634 61.3084 234.361 62.1099C232.453 63.312 232.12 62.9118 230.746 63.9791C229.726 64.7713 229.373 65.408 228.942 65.2666C228.331 65.0664 228.642 63.6623 227.946 63.2995C227.235 62.9292 225.955 63.8931 225.165 64.7373C223.681 66.3214 223.49 67.943 222.972 69.4165C222.41 71.0179 221.199 73.1933 218.277 75.3898L191.642 93.9378C197.244 90.2316 212.899 80.2902 218.989 76.7949C220.747 75.7859 222.591 74.8071 224.563 75.3309C226.463 75.8351 228.252 77.6714 231.303 78.9382C231.659 79.0862 232.656 79.4852 233.12 79.0623C233.504 78.7127 233.174 78.1197 233.527 77.7879C234.002 77.3429 234.98 78.0484 236.606 78.3238C237.753 78.5179 238.638 78.3994 239.4 78.2976C239.63 78.2668 243.06 77.7863 243.157 76.7094Z" fill="#F2F2F2"/>
<path d="M199.262 64.6337C198.891 64.3641 198.135 65.1638 197.821 64.9084C197.509 64.654 198.151 63.7714 198.144 62.4072C198.143 62.1612 198.136 60.6109 197.549 60.3917C196.435 59.9762 194.216 64.7084 192.516 64.2342C192.143 64.1302 191.755 63.7644 190.604 63.401C190.147 63.2564 189.889 63.2136 189.717 63.3484C189.471 63.5397 189.611 63.9214 189.633 64.7837C189.667 66.0768 189.376 66.1264 189.498 67.116C189.589 67.8506 189.796 68.209 189.603 68.3823C189.329 68.6276 188.737 68.0682 188.36 68.3087C187.975 68.5542 188.074 69.4671 188.256 70.1028C188.597 71.2958 189.33 71.8584 189.896 72.5402C190.512 73.2812 191.219 74.5094 191.443 76.5923L192.767 95.1538C192.583 91.3061 192.271 80.6736 192.33 76.6449C192.348 75.4819 192.404 74.2848 193.228 73.4576C194.021 72.6612 195.429 72.3035 196.925 71.1561C197.099 71.0221 197.581 70.6429 197.509 70.2906C197.45 69.9994 197.067 69.9919 197.008 69.7209C196.928 69.3573 197.553 69.0756 198.156 68.3487C198.581 67.8361 198.779 67.3626 198.95 66.9555C199.001 66.8327 199.757 64.9927 199.262 64.6337Z" fill="#F2F2F2"/>
<path d="M205.458 71.72L206.678 69.5415L206.889 69.4634C207.868 69.1022 208.602 68.5884 209.074 67.9356C209.149 67.8318 209.219 67.7242 209.29 67.6146C209.572 67.1802 209.922 66.6401 210.628 66.2281C211.022 65.999 212.01 65.5233 212.578 66.0873C212.733 66.2373 212.806 66.4121 212.837 66.5777C212.869 66.5649 212.9 66.5525 212.934 66.5388C213.353 66.3777 213.604 66.3614 213.846 66.3458C214.032 66.3337 214.225 66.3215 214.583 66.222C214.741 66.1785 214.871 66.1342 214.98 66.0971C215.312 65.9853 215.726 65.8656 216.103 66.1486C216.495 66.4651 216.465 66.9603 216.445 67.2882C216.41 67.8732 216.317 68.2456 216.255 68.4926C216.233 68.5827 216.208 68.6844 216.206 68.7204C216.198 69.0107 217.393 69.6071 217.841 69.8341C218.851 70.3409 219.724 70.7795 219.634 71.5884C219.57 72.1673 219.011 72.5852 217.924 72.8628C217.586 72.9491 217.274 72.9743 217.009 72.9794C217.09 73.1688 217.123 73.3931 217.027 73.6371C216.798 74.2143 216.032 74.3999 214.749 74.1912C214.43 74.1401 214.001 74.0699 213.506 73.8247C213.272 73.7089 213.079 73.5811 212.916 73.4691C212.846 73.5601 212.752 73.6454 212.621 73.7084C212.236 73.8941 211.788 73.7887 211.295 73.3749C210.746 72.928 210.356 72.4749 210.011 72.0758C209.709 71.7278 209.448 71.429 209.192 71.2667C208.712 70.9721 208.1 71.0833 207.349 71.2593L205.458 71.72Z" fill="#F2F2F2"/>
<path d="M215.086 60.4793L212.691 59.8399L212.563 59.653C211.969 58.7885 211.291 58.2007 210.546 57.9052C210.428 57.8582 210.307 57.8173 210.184 57.7756C209.697 57.6104 209.091 57.4053 208.518 56.8199C208.198 56.4926 207.492 55.6479 207.888 54.9489C207.992 54.7599 208.141 54.6443 208.292 54.5712C208.272 54.544 208.252 54.5162 208.23 54.4865C207.97 54.1185 207.89 53.8768 207.814 53.6439C207.755 53.465 207.695 53.2803 207.508 52.9549C207.427 52.8122 207.351 52.6963 207.288 52.5988C207.097 52.3029 206.877 51.9284 207.053 51.4882C207.256 51.0243 207.738 50.9284 208.057 50.8646C208.626 50.7507 209.006 50.7469 209.258 50.7446C209.35 50.7439 209.454 50.7427 209.488 50.7351C209.768 50.6696 210.036 49.3505 210.14 48.8546C210.369 47.7393 210.567 46.7742 211.364 46.6569C211.935 46.5725 212.477 47.0135 213.018 48.0049C213.186 48.3137 213.29 48.6125 213.362 48.87C213.523 48.743 213.729 48.6538 213.987 48.686C214.597 48.7628 214.969 49.4644 215.095 50.7715C215.127 51.0965 215.169 51.5333 215.059 52.0799C215.008 52.3373 214.935 52.5584 214.869 52.7465C214.974 52.7921 215.079 52.8624 215.173 52.9744C215.448 53.3032 215.461 53.7681 215.19 54.3549C214.901 55.0044 214.566 55.5012 214.272 55.9397C214.015 56.3229 213.795 56.6534 213.705 56.9453C213.545 57.4892 213.807 58.0594 214.165 58.7487L215.086 60.4793Z" fill="#F2F2F2"/>
<path d="M218.3 53.7848L219.52 51.6063L219.731 51.5282C220.71 51.1671 221.444 50.6532 221.916 50.0004C221.991 49.8966 222.061 49.789 222.132 49.6794C222.414 49.245 222.764 48.7049 223.469 48.2929C223.864 48.0638 224.851 47.5881 225.42 48.1521C225.575 48.3021 225.648 48.477 225.679 48.6425C225.711 48.6297 225.742 48.6173 225.776 48.6036C226.195 48.4425 226.446 48.4262 226.688 48.4106C226.874 48.3985 227.067 48.3863 227.425 48.2868C227.583 48.2433 227.713 48.199 227.822 48.1619C228.154 48.0501 228.568 47.9304 228.945 48.2134C229.337 48.53 229.307 49.0251 229.287 49.353C229.252 49.938 229.159 50.3105 229.097 50.5574C229.075 50.6475 229.05 50.7492 229.048 50.7852C229.04 51.0755 230.234 51.6719 230.683 51.8989C231.692 52.4057 232.566 52.8443 232.476 53.6532C232.412 54.2321 231.853 54.6501 230.766 54.9276C230.428 55.0139 230.116 55.0391 229.851 55.0442C229.932 55.2336 229.965 55.4579 229.869 55.7019C229.64 56.2791 228.874 56.4647 227.591 56.256C227.272 56.205 226.843 56.1347 226.348 55.8895C226.114 55.7738 225.921 55.6459 225.758 55.5339C225.688 55.6249 225.594 55.7102 225.463 55.7732C225.078 55.9589 224.63 55.8536 224.137 55.4398C223.588 54.9928 223.198 54.5397 222.852 54.1406C222.551 53.7926 222.29 53.4938 222.034 53.3315C221.554 53.0369 220.941 53.1482 220.191 53.3241L218.3 53.7848Z" fill="#F2F2F2"/>
<path d="M192.333 94.3931L192.104 93.8229L191.577 93.5231C191.602 93.4717 191.651 93.3473 191.728 93.1536C192.155 92.0931 193.454 88.8649 195.991 84.141C197.763 80.8435 199.762 77.5842 201.936 74.452C204.114 71.3149 205.942 69.0713 207.41 67.2678C208.518 65.9076 209.597 64.6294 210.648 63.3847C213.455 60.0586 216.106 56.9166 218.553 53.0816C219.1 52.2257 220.237 50.4437 220.552 47.8931C220.735 46.4138 220.616 44.8944 220.196 43.3781L221.369 43.0469C221.831 44.7219 221.963 46.4041 221.76 48.0466C221.41 50.8745 220.171 52.8163 219.576 53.7493C217.085 57.6519 214.408 60.824 211.574 64.182C210.527 65.4225 209.453 66.6949 208.35 68.0496C206.895 69.8362 205.083 72.0605 202.934 75.1573C200.785 78.2519 198.81 81.4715 197.061 84.7272C194.555 89.3917 193.277 92.5719 192.856 93.6167C192.632 94.1744 192.585 94.2912 192.333 94.3931Z" fill="#F2F2F2"/>
<path d="M217.254 43.6391C217.214 43.6096 217.173 43.5787 217.134 43.5455C216.327 42.8858 215.913 41.8094 215.903 40.3463C215.9 39.6588 216.1 39.0242 216.5 37.7586C216.562 37.5633 216.884 36.5804 217.52 35.3687C217.935 34.5767 218.163 34.2852 218.494 34.1227C218.862 33.9413 219.263 33.9202 219.648 33.9894C219.704 33.8849 219.784 33.794 219.897 33.7237C220.362 33.4311 220.77 33.8122 220.993 34.0152C221.104 34.1202 221.242 34.2522 221.413 34.3639C221.681 34.5406 221.876 34.5645 222.171 34.6019C222.452 34.6375 222.803 34.6817 223.23 34.877C224.075 35.2587 224.539 35.9184 224.692 36.1357C225.502 37.2744 225.428 38.4966 225.342 39.9117C225.324 40.195 225.233 41.2079 224.812 42.38C224.509 43.2256 224.258 43.5165 224.033 43.7045C223.571 44.0916 223.089 44.1546 221.931 44.224C220.721 44.2981 220.114 44.3346 219.649 44.2869C218.568 44.1744 217.89 44.1038 217.254 43.6391Z" fill="#F2F2F2"/>
<path d="M62.4398 194.066C54.6089 195.985 46.4282 197 38.0142 197C28.9007 197 20.058 195.81 11.6403 193.568C10.7226 190.136 9.68072 186.335 8.49971 182.132C-2.09576 144.387 19.3697 117.627 19.3697 117.627L24.6656 113.404L72.3357 119.881C77.8835 147.211 74.2727 167.492 62.4398 194.066Z" fill="#2F2E41"/>
<path d="M54.6747 45.5183L32.374 43.2649L16.206 57.3488L21.2236 108.051L18.9936 117.628L71.9578 119.882L69.1702 106.361L73.0728 56.7855L54.6747 45.5183Z" fill="#0089DC"/>
<path d="M61.9225 71.9962H26.2413V128.332H61.9225V71.9962Z" fill="#F2F2F2"/>
<path d="M56.831 79.4077H46.8611C46.5915 79.4077 46.3721 79.186 46.3721 78.9135C46.3721 78.641 46.5915 78.4194 46.8611 78.4194H56.831C57.1007 78.4194 57.3201 78.641 57.3201 78.9135C57.3201 79.186 57.1007 79.4077 56.831 79.4077Z" fill="#0089DC"/>
<path d="M56.831 83.2083H46.8611C46.5915 83.2083 46.3721 82.9867 46.3721 82.7142C46.3721 82.4417 46.5915 82.22 46.8611 82.22H56.831C57.1007 82.22 57.3201 82.4417 57.3201 82.7142C57.3201 82.9867 57.1007 83.2083 56.831 83.2083Z" fill="#0089DC"/>
<path d="M56.831 87.009H46.8611C46.5915 87.009 46.3721 86.7873 46.3721 86.5148C46.3721 86.2424 46.5915 86.0207 46.8611 86.0207H56.831C57.1007 86.0207 57.3201 86.2424 57.3201 86.5148C57.3201 86.7873 57.1007 87.009 56.831 87.009Z" fill="#0089DC"/>
<path d="M56.3836 100.311H32.1401C31.4844 100.311 30.951 99.7722 30.951 99.1097C30.951 98.4471 31.4844 97.9081 32.1401 97.9081H56.3836C57.0393 97.9081 57.5728 98.4471 57.5728 99.1097C57.5728 99.7722 57.0393 100.311 56.3836 100.311Z" fill="#F2F2F2"/>
<path d="M42.7451 122.192C47.5688 123.72 52.2588 122.443 53.2204 119.341C54.1821 116.239 51.0513 112.486 46.2257 110.959C44.3064 110.322 42.264 110.159 40.2695 110.483L19.7505 104.271L6.72815 113.685L37.5834 119.147C39.0387 120.564 40.8086 121.608 42.7451 122.192Z" fill="#FFB6B6"/>
<path d="M18.3075 56.2221C18.3075 56.2221 10.8316 60.5388 8.69558 69.7119L0.151667 106.404C0.151667 106.404 -1.45032 111.8 5.75861 114.498C12.9675 117.196 21.7784 105.595 21.7784 105.595L17.7546 101.529L25.5164 67.2837L18.3075 56.2221Z" fill="#0089DC"/>
<path d="M37.1835 116.769C32.1689 117.413 27.7751 115.321 27.3698 112.096C26.9645 108.871 30.7009 105.736 35.7174 105.092C37.7178 104.807 39.7567 105.01 41.6634 105.684L62.9448 103.225L74.1206 114.812L42.7956 114.691C41.1159 115.827 39.1915 116.539 37.1835 116.769Z" fill="#FFB6B6"/>
<path d="M72.7488 56.1861C72.7488 56.1861 79.3544 61.767 79.8564 71.1769L81.8645 108.816C81.8645 108.816 82.4999 114.413 74.9331 115.784C67.3664 117.156 60.7177 104.167 60.7177 104.167L65.388 100.881L63.7227 65.7901L72.7488 56.1861Z" fill="#0089DC"/>
<path d="M42.9668 75.9397H30.1439V91.7138H42.9668V75.9397Z" fill="#0089DC"/>
<path d="M33.5671 87.7139L32.6862 91.6124L32.6639 91.7138H30.1551C30.4561 90.4293 30.8297 88.8406 31.0025 88.0801C31.2199 87.1562 31.7886 86.559 32.151 86.2605C32.335 86.0971 32.4688 86.0238 32.4688 86.0238L33.5671 87.7139Z" fill="#F2F2F2"/>
<path d="M42.0358 91.7138H39.5939L39.3932 87.4829L40.7312 86.0576L40.7702 86.0182C40.7702 86.0182 41.7793 86.8689 41.8518 88.3055C41.8908 89.0209 41.9689 90.4575 42.0358 91.7138Z" fill="#F2F2F2"/>
<path d="M172.086 100.142C149.861 100.142 131.78 81.8713 131.78 59.4134C131.78 36.9556 149.861 18.6851 172.086 18.6851C194.311 18.6851 212.392 36.9558 212.392 59.4134C212.392 81.8711 194.311 100.142 172.086 100.142ZM172.086 19.3696C150.234 19.3696 143.635 47.7768 132.457 59.4134C117.238 75.2577 150.234 99.4573 172.086 99.4573C193.937 99.4573 211.714 81.4936 211.714 59.4134C211.714 37.3333 193.937 19.3696 172.086 19.3696Z" fill="#F2F2F2"/>
<path d="M174.395 68.4486C174.395 69.0791 173.889 69.5903 173.265 69.5903C172.641 69.5903 172.135 69.0791 172.135 68.4486V59.7873L169.545 62.4065C169.103 62.8529 168.387 62.8529 167.945 62.4065C167.503 61.96 167.503 61.2362 167.945 60.7898L172.465 56.2228C172.905 55.7763 173.621 55.7754 174.063 56.2207L174.065 56.2228L178.584 60.7898C179.026 61.2362 179.026 61.96 178.584 62.4065C178.142 62.8529 177.426 62.8529 176.984 62.4065L174.395 59.7873V68.4486Z" fill="#0089DC"/>
<path d="M186.823 74.1573V52.4642L176.654 42.1885H164.225C161.729 42.1885 159.706 44.2332 159.706 46.7555V74.1573C159.706 76.6795 161.729 78.7242 164.225 78.7242H182.304C184.8 78.7242 186.823 76.6795 186.823 74.1573ZM176.654 49.039C176.654 50.9307 178.172 52.4642 180.044 52.4642H184.564V74.1573C184.564 75.4184 183.552 76.4408 182.304 76.4408H164.225C162.977 76.4408 161.966 75.4184 161.966 74.1573V46.7555C161.966 45.4943 162.977 44.472 164.225 44.472H176.654V49.039Z" fill="#0089DC"/>
<path d="M38.8695 81.0106L34.5079 81.5297L34.9951 85.709L39.3566 85.1899L38.8695 81.0106Z" fill="#2F2E41"/>
<path d="M36.6403 83.4197C37.8229 83.4197 38.7816 82.451 38.7816 81.256C38.7816 80.061 37.8229 79.0922 36.6403 79.0922C35.4577 79.0922 34.499 80.061 34.499 81.256C34.499 82.451 35.4577 83.4197 36.6403 83.4197Z" fill="#FFB6B6"/>
<path d="M35.2285 77.9C33.8941 78.2743 34.0184 78.777 33.6141 79.0937C32.9017 79.6517 32.7563 81.0355 33.2649 81.8767C33.4008 82.1014 33.6667 82.3985 33.5968 82.7617C33.5431 83.0405 33.3166 83.2282 33.2739 83.2624C32.9247 83.5421 33.1381 83.2333 32.9909 83.4501C32.8283 83.6894 33.155 83.9612 33.0219 84.3709C32.904 84.7342 32.5746 84.7439 32.5575 84.9655C32.5281 85.3471 33.4523 85.9974 34.3359 85.8324C35.1227 85.6855 35.6328 84.9381 35.7557 84.2767C35.838 83.8336 35.8093 83.0919 35.4281 82.7748C35.3747 82.7304 35.2304 82.6245 35.0831 82.4307C34.9665 82.2774 34.813 82.0755 34.8707 81.9167C34.932 81.7475 35.1686 81.8046 35.2953 81.635C35.4671 81.4051 35.1937 81.0838 35.189 80.7232C35.1811 80.1126 35.9423 79.2865 36.8521 79.2926C37.8841 79.2996 38.3875 80.3728 38.4403 80.4903C38.5498 80.7339 38.5767 80.979 38.6306 81.4692C38.708 82.1727 38.7565 82.6136 38.591 83.0918C38.3531 83.7796 37.9452 83.7569 37.8878 84.2541C37.7985 85.0291 38.7206 85.6871 38.8258 85.7603C39.6059 86.3025 40.6959 86.3637 40.843 86.0595C40.9755 85.7854 40.2171 85.4737 40.1483 84.6784C40.0887 83.9892 40.6144 83.7144 40.4401 83.2569C40.2483 82.7534 39.5614 82.9552 39.197 82.4033C38.8568 81.8882 39.3305 81.5236 39.1171 80.4098C39.0719 80.1742 38.9185 79.5008 38.4047 78.8767C38.1783 78.6018 37.9481 78.3221 37.5641 78.2063C37.1343 78.0767 35.9344 77.702 35.2285 77.9Z" fill="#2F2E41"/>
<path d="M34.5475 79.9071C34.6576 80.371 35.3837 80.5184 35.6889 80.5416C35.8182 80.5515 36.255 80.5847 36.6576 80.3493C36.8065 80.2623 36.8564 80.1937 37.0159 80.1526C37.2319 80.097 37.3523 80.1681 37.7104 80.224C38.1087 80.2862 38.3078 80.3172 38.3961 80.2195C38.5404 80.0596 38.3633 79.6141 38.1394 79.3255C37.7254 78.792 37.0695 78.6896 36.7636 78.6418C36.4141 78.5872 35.7048 78.4765 35.1181 78.9147C35.0396 78.9733 34.4358 79.4357 34.5475 79.9071Z" fill="#2F2E41"/>
<path d="M40.8204 86.114L40.3799 91.7138H32.6918L32.6862 91.6124L32.151 86.2605L32.1454 86.1985L33.7734 84.7845L34.2751 84.345L34.6152 84.0521L35.4905 84.1422L38.0105 84.3957H38.0161L38.8635 84.914L40.1291 85.6915L40.7312 86.0576L40.8204 86.114Z" fill="#F2F2F2"/>
</svg>
