<svg width="276" height="218" viewBox="0 0 276 218" fill="none" xmlns="http://www.w3.org/2000/svg">
<path d="M268.971 133.14H259.302C259.095 133.141 258.891 133.084 258.705 132.975C258.519 132.866 258.356 132.706 258.227 132.509C258.1 132.317 258.011 132.092 257.966 131.851C257.92 131.61 257.92 131.361 257.965 131.12C258.873 126.231 258.829 121.15 257.837 116.285C257.761 115.913 257.792 115.52 257.926 115.173C258.061 114.826 258.29 114.546 258.574 114.382C262.613 112.076 266.322 112.136 269.597 114.56C269.769 114.686 269.916 114.855 270.029 115.057C270.141 115.259 270.216 115.488 270.249 115.729C270.943 121.018 270.97 126.406 270.327 131.705C270.282 132.103 270.119 132.469 269.87 132.733C269.621 132.997 269.301 133.141 268.971 133.14Z" fill="#0089DC"/>
<path d="M268.824 125.414H261.431C261.248 125.413 261.072 125.324 260.942 125.165C260.812 125.007 260.739 124.792 260.739 124.568C260.739 124.344 260.812 124.129 260.942 123.97C261.072 123.812 261.248 123.722 261.431 123.722H268.824C269.008 123.722 269.184 123.812 269.314 123.97C269.444 124.129 269.517 124.344 269.517 124.568C269.517 124.792 269.444 125.007 269.314 125.165C269.184 125.324 269.008 125.413 268.824 125.414Z" fill="#F2F2F2"/>
<path d="M268.824 122.447H261.431C261.248 122.447 261.072 122.357 260.942 122.199C260.812 122.04 260.739 121.825 260.739 121.601C260.739 121.377 260.812 121.162 260.942 121.004C261.072 120.845 261.248 120.756 261.431 120.755H268.824C269.008 120.756 269.184 120.845 269.314 121.004C269.444 121.162 269.517 121.377 269.517 121.601C269.517 121.825 269.444 122.04 269.314 122.199C269.184 122.357 269.008 122.447 268.824 122.447Z" fill="#F2F2F2"/>
<path d="M75.3368 131.958C103.714 131.958 126.718 103.899 126.718 69.2868C126.718 34.6744 103.714 6.61551 75.3368 6.61551C46.9597 6.61551 23.9555 34.6744 23.9555 69.2868C23.9555 103.899 46.9597 131.958 75.3368 131.958Z" fill="#F2F2F2"/>
<path d="M134.927 130.104C140.3 130.104 144.656 124.791 144.656 118.237C144.656 111.683 140.3 106.37 134.927 106.37C129.554 106.37 125.198 111.683 125.198 118.237C125.198 124.791 129.554 130.104 134.927 130.104Z" fill="#F2F2F2"/>
<path d="M183.876 156.804C186.059 156.804 187.828 154.646 187.828 151.983C187.828 149.321 186.059 147.162 183.876 147.162C181.693 147.162 179.924 149.321 179.924 151.983C179.924 154.646 181.693 156.804 183.876 156.804Z" fill="#F2F2F2"/>
<path d="M214.393 170.944C212.726 155.409 204.746 140.152 192.563 135.187C197.441 151.153 197.532 168.708 192.82 184.747C190.984 190.925 188.415 197.563 190.205 203.761C191.319 207.617 194.009 210.553 197.008 212.379C200.007 214.204 203.33 215.06 206.611 215.898L207.259 216.543C212.385 202.177 216.06 186.479 214.393 170.944Z" fill="#F2F2F2"/>
<path d="M192.444 135.482C199.574 145.102 204.038 157.218 205.201 170.108C205.437 172.872 205.478 175.7 204.997 178.429C204.511 181.085 203.451 183.534 201.927 185.522C200.536 187.41 198.934 189.144 197.944 191.411C196.9 193.801 196.874 196.508 197.61 199.032C198.511 202.12 200.268 204.629 202.057 207.01C204.042 209.654 206.139 212.361 206.995 215.88C207.099 216.306 207.635 216.085 207.531 215.659C206.041 209.537 201.142 206.092 198.785 200.586C197.685 198.017 197.214 195.028 198.218 192.299C199.096 189.913 200.746 188.122 202.168 186.225C203.661 184.234 204.802 182.053 205.382 179.427C205.975 176.741 206.024 173.905 205.847 171.146C205.409 164.894 204.167 158.765 202.168 152.984C199.916 146.37 196.753 140.274 192.816 134.962C192.572 134.633 192.202 135.156 192.444 135.482Z" fill="#F2F2F2"/>
<path d="M205.027 165.931C206.773 165.399 208.308 164.127 209.357 162.343C210.406 160.558 210.901 158.377 210.753 156.189C210.722 155.746 210.156 155.784 210.188 156.228C210.328 158.265 209.867 160.297 208.888 161.956C207.908 163.615 206.475 164.793 204.846 165.276C204.492 165.382 204.675 166.036 205.027 165.931Z" fill="#F2F2F2"/>
<path d="M202.735 184.678C199.564 182.401 197.212 178.751 196.149 174.453C196.044 174.027 195.508 174.249 195.613 174.674C196.726 179.143 199.179 182.937 202.484 185.297C202.799 185.521 203.049 184.901 202.735 184.678Z" fill="#F2F2F2"/>
<path d="M199.394 147.028C198.753 147.405 198.046 147.583 197.335 147.545C196.624 147.506 195.932 147.253 195.322 146.808C195.009 146.578 194.76 147.198 195.07 147.426C195.747 147.914 196.511 148.193 197.296 148.238C198.082 148.282 198.864 148.091 199.575 147.682C199.645 147.651 199.702 147.588 199.735 147.506C199.768 147.425 199.774 147.332 199.753 147.245C199.728 147.158 199.677 147.087 199.61 147.046C199.543 147.006 199.465 146.999 199.394 147.028Z" fill="#F2F2F2"/>
<path d="M155.654 163.246C155.846 163.396 156.038 163.547 156.23 163.702C158.801 165.736 161.232 168.021 163.5 170.534C163.678 170.725 163.855 170.922 164.028 171.119C169.439 177.246 173.869 184.545 177.095 192.645C178.376 195.869 179.454 199.208 180.32 202.632C181.516 207.361 182.503 212.604 184.841 216.462C185.081 216.867 185.342 217.255 185.621 217.621L206.563 217.458C206.611 217.428 206.658 217.404 206.706 217.375L207.542 217.415C207.508 217.235 207.469 217.048 207.434 216.868C207.415 216.763 207.39 216.659 207.37 216.554C207.356 216.484 207.341 216.414 207.331 216.35C207.326 216.327 207.321 216.304 207.317 216.286C207.307 216.222 207.292 216.164 207.282 216.106C207.066 215.064 206.844 214.023 206.616 212.981C206.616 212.975 206.616 212.975 206.611 212.97C204.854 205.04 202.539 197.219 199.324 190.076C199.227 189.861 199.13 189.64 199.024 189.425C197.56 186.215 195.884 183.156 194.012 180.279C192.982 178.708 191.888 177.201 190.734 175.765C187.745 172.061 184.298 168.953 180.518 166.555C172.981 161.777 164.276 159.991 156.264 163.009C156.059 163.086 155.859 163.163 155.654 163.246Z" fill="#F2F2F2"/>
<path d="M155.703 163.57C166.144 166.015 175.689 172.411 182.981 181.849C184.533 183.882 185.962 186.11 186.925 188.642C187.848 191.12 188.21 193.854 187.974 196.56C187.796 199.089 187.373 201.65 187.702 204.187C188.048 206.862 189.363 209.042 191.197 210.517C193.44 212.321 196.082 213.034 198.685 213.622C201.575 214.275 204.585 214.897 207.006 217.077C207.299 217.342 207.618 216.771 207.326 216.507C203.114 212.714 197.501 213.56 192.902 210.895C190.755 209.651 188.903 207.611 188.358 204.695C187.881 202.145 188.315 199.503 188.514 196.945C188.723 194.259 188.558 191.679 187.725 189.157C186.872 186.576 185.511 184.276 184.009 182.203C180.573 177.533 176.556 173.551 172.106 170.403C167.043 166.776 161.509 164.232 155.743 162.881C155.386 162.798 155.348 163.487 155.703 163.57Z" fill="#F2F2F2"/>
<path d="M180.779 178.641C181.911 176.934 182.509 174.791 182.466 172.596C182.422 170.401 181.741 168.296 180.542 166.658C180.299 166.327 179.867 166.773 180.11 167.104C181.228 168.627 181.863 170.588 181.9 172.632C181.937 174.676 181.374 176.669 180.312 178.251C180.081 178.596 180.55 178.983 180.779 178.641Z" fill="#F2F2F2"/>
<path d="M188.203 195.292C184.547 195.804 180.868 194.616 177.898 191.965C177.604 191.702 177.285 192.273 177.579 192.535C180.673 195.287 184.505 196.514 188.308 195.971C188.671 195.919 188.564 195.241 188.203 195.292Z" fill="#F2F2F2"/>
<path d="M166.951 167.685C166.626 168.457 166.149 169.118 165.562 169.609C164.976 170.101 164.298 170.407 163.591 170.5C163.228 170.546 163.335 171.224 163.696 171.178C164.477 171.071 165.224 170.732 165.873 170.191C166.522 169.65 167.053 168.923 167.419 168.074C167.459 167.998 167.473 167.906 167.459 167.817C167.446 167.728 167.405 167.648 167.345 167.595C167.282 167.543 167.206 167.524 167.133 167.541C167.059 167.558 166.994 167.61 166.951 167.685Z" fill="#F2F2F2"/>
<path d="M256.096 110.231L253.264 76.7948L252.517 63.0337L260.444 61.2854C260.444 61.2854 261.631 70.7455 262.669 76.2971C263.694 81.7754 261.304 109.497 261.241 110.228C261.823 110.863 262.233 111.698 262.418 112.624C262.602 113.549 262.551 114.522 262.273 115.411C261.995 116.301 261.501 117.067 260.858 117.608C260.215 118.148 259.453 118.438 258.672 118.438C257.891 118.439 257.128 118.15 256.485 117.61C255.841 117.071 255.347 116.305 255.068 115.416C254.789 114.526 254.738 113.554 254.921 112.628C255.105 111.702 255.515 110.866 256.096 110.231Z" fill="#FFB8B8"/>
<path d="M223.704 212.894H219.671L217.753 193.922L223.705 193.922L223.704 212.894Z" fill="#FFB6B6"/>
<path d="M224.732 217.662L211.73 217.661V217.461C211.73 215.824 212.263 214.254 213.212 213.096C214.161 211.938 215.449 211.288 216.791 211.288L219.166 209.09L223.598 211.288L224.733 211.288L224.732 217.662Z" fill="#2F2E41"/>
<path d="M259.244 212.894H255.212L253.294 193.922L259.245 193.922L259.244 212.894Z" fill="#FFB6B6"/>
<path d="M260.273 217.662L247.27 217.661V217.461C247.27 215.824 247.804 214.254 248.753 213.096C249.702 211.938 250.989 211.288 252.331 211.288L254.707 209.09L259.138 211.288L260.273 211.288L260.273 217.662Z" fill="#2F2E41"/>
<path d="M253.111 111.355L256.503 150.656C256.503 150.656 261.018 190.008 260.17 195.438C259.322 200.868 260.382 201.644 260.382 201.644L252.645 200.972C252.645 200.972 252.857 197.61 251.585 196.059C250.313 194.508 250.949 189.853 250.949 189.853L235.941 125.834L226.825 159.448C226.825 159.448 225.341 196.422 225.129 196.939C224.917 197.456 224.281 204.437 224.281 204.437H216.438C216.438 204.437 217.498 200.3 216.014 199.008C214.53 197.715 213.258 198.749 214.53 196.422C215.802 194.095 216.226 191.251 215.802 189.958C215.378 188.665 215.378 183.494 215.378 183.494C215.378 183.494 216.014 113.682 219.618 111.355C223.222 109.028 253.111 111.355 253.111 111.355Z" fill="#2F2E41"/>
<path d="M237.049 31.7796C241.656 31.7796 245.391 27.224 245.391 21.6044C245.391 15.9847 241.656 11.4291 237.049 11.4291C232.441 11.4291 228.707 15.9847 228.707 21.6044C228.707 27.224 232.441 31.7796 237.049 31.7796Z" fill="#FFB8B8"/>
<path d="M261.78 66.6196L253.575 70.2086L251.077 71.3007L249.253 42.8847L255.512 46.9341C255.523 46.9435 255.532 46.9549 255.54 46.9677C256.624 48.428 257.531 50.07 258.234 51.8437C261.667 60.3557 261.78 66.6196 261.78 66.6196Z" fill="#3F3D56"/>
<path d="M205.259 107.83C205.259 107.83 213.598 76.228 213.744 75.849C214.836 65.7325 217.977 61.2699 218.448 61.7544L226.556 65.1804C226.556 65.1804 224.145 74.4955 222.512 80.0284C220.951 85.3154 210.266 109.725 209.966 110.362C210.288 111.23 210.387 112.197 210.249 113.134C210.111 114.072 209.743 114.936 209.193 115.613C208.644 116.29 207.939 116.747 207.172 116.925C206.404 117.102 205.611 116.992 204.896 116.607C204.182 116.223 203.58 115.583 203.17 114.772C202.76 113.961 202.562 113.018 202.601 112.066C202.64 111.115 202.916 110.201 203.39 109.444C203.865 108.688 204.517 108.125 205.259 107.83Z" fill="#FFB8B8"/>
<path d="M230.451 44.7148C230.451 44.7148 223.431 40.5184 220.709 48.7602C218.926 54.3185 218.081 56.7429 216.891 62.5321C216.891 62.5321 224.046 63.8416 226.341 68.7736L230.451 44.7148Z" fill="#3F3D56"/>
<path d="M255.994 115.639C239.839 119.708 218.429 112.712 218.429 112.712L224.14 82.5145L222.11 50.9128C221.862 47.0483 223.666 43.4257 226.474 42.1421L230.35 40.3711L233.554 34.7759L242.707 35.1422L246.365 41.0163L249.253 42.8847L255.512 46.9341L255.54 46.9509L255.54 46.9677L253.575 70.2086L252.391 84.2217C252.391 84.2217 255.989 99.9821 255.25 102.072C254.512 104.159 255.154 103.151 255.333 104.267C255.512 105.382 256.06 105.453 256.143 107.651C256.229 109.845 255.994 115.639 255.994 115.639Z" fill="#3F3D56"/>
<path d="M246.098 17.981C245.439 17.1878 246.432 15.0876 246.244 13.9815C246.029 12.7132 244.883 12.6761 244.61 11.4247C244.316 10.0784 243.14 9.34555 242.053 8.91889C239.265 7.83109 236.291 7.66494 233.434 8.43742C232.17 8.81401 230.925 9.2818 229.706 9.83833C228.864 10.1996 229.676 9.21657 228.834 9.57781C228.516 9.66441 228.235 9.89188 228.045 10.2163C227.894 10.5652 228.098 11.1232 228.416 11.0525C227.389 11.6051 226.362 12.1577 225.334 12.7103C225.911 13.4465 226.487 14.1827 227.063 14.9189C226.244 14.6345 225.371 15.8257 225.694 16.7868C225.823 17.0902 226.012 17.3506 226.243 17.5454C226.473 17.7402 226.74 17.8637 227.018 17.9052C227.943 18.1248 227.242 19.199 228.184 19.1781C229.127 19.1572 235.7 16.8005 236.158 17.8054C236.484 18.521 236.448 19.4688 236.914 20.0583C237.51 20.8126 238.551 20.5368 239.31 20.0457C240.068 19.5547 240.838 18.8798 241.691 18.9975C242.582 19.1204 243.256 21.1288 243.476 22.1893C243.695 23.2499 243.557 24.3657 243.417 25.4462C243.234 26.8651 241.397 28.2841 241.214 29.703C243.252 30.3905 245.438 28.203 246.244 24.3989C246.164 21.9941 247.503 19.6714 246.098 17.981Z" fill="#2F2E41"/>
<path d="M116.411 150.131C91.8533 150.132 70.4864 127.787 67.3298 97.3096L67.9331 97.2166C71.0506 127.318 92.1574 149.387 116.412 149.389C118.472 149.389 120.531 149.23 122.575 148.914C149.326 144.793 168.34 114.894 164.96 82.266L165.563 82.1729C168.985 115.207 149.735 145.477 122.652 149.65C120.582 149.97 118.498 150.13 116.411 150.131Z" fill="#3F3D56"/>
<path d="M117.73 162.534H108.061C107.854 162.535 107.65 162.478 107.464 162.369C107.278 162.26 107.114 162.1 106.986 161.903C106.859 161.711 106.769 161.486 106.724 161.245C106.679 161.005 106.678 160.755 106.724 160.514C107.641 155.575 107.587 150.441 106.565 145.532C106.496 145.193 106.516 144.836 106.622 144.511C106.729 144.187 106.916 143.911 107.159 143.725C110.504 141.197 114.146 141.276 118.295 143.966C118.483 144.087 118.646 144.26 118.771 144.471C118.896 144.681 118.98 144.924 119.015 145.181C119.702 150.452 119.726 155.819 119.086 161.099C119.04 161.498 118.878 161.863 118.629 162.127C118.379 162.391 118.06 162.536 117.73 162.534Z" fill="#0089DC"/>
<path d="M73.6453 99.4923H63.976C63.7694 99.4929 63.5654 99.4363 63.3793 99.327C63.1931 99.2176 63.0298 99.0583 62.9013 98.8609C62.7745 98.6686 62.6849 98.4437 62.6395 98.2031C62.5941 97.9626 62.5939 97.7126 62.639 97.4719C63.5599 92.5156 63.5021 87.3633 62.4702 82.4397C62.4049 82.1155 62.4207 81.7749 62.5155 81.4617C62.6103 81.1486 62.7798 80.8772 63.0021 80.6825C67.9741 76.3209 71.8897 76.4474 74.6402 81.0594C74.7642 81.2696 74.8466 81.512 74.8809 81.7675C75.6158 87.1565 75.6565 92.6523 75.0014 98.0566C74.9559 98.4555 74.7934 98.8207 74.5441 99.0846C74.2948 99.3486 73.9754 99.4934 73.6453 99.4923Z" fill="#CCCCCC"/>
<path d="M113.212 151.465H109.886C109.702 151.465 109.526 151.376 109.396 151.217C109.266 151.058 109.194 150.844 109.194 150.619C109.194 150.395 109.266 150.181 109.396 150.022C109.526 149.863 109.702 149.774 109.886 149.774H113.212C113.396 149.774 113.572 149.863 113.702 150.021C113.832 150.18 113.905 150.395 113.905 150.619C113.905 150.844 113.832 151.059 113.702 151.218C113.572 151.376 113.396 151.465 113.212 151.465Z" fill="#F2F2F2"/>
<path d="M117.279 154.808H109.886C109.702 154.807 109.526 154.718 109.396 154.559C109.266 154.401 109.194 154.186 109.194 153.962C109.194 153.738 109.266 153.523 109.396 153.364C109.526 153.206 109.702 153.117 109.886 153.116H117.279C117.463 153.117 117.639 153.206 117.768 153.364C117.898 153.523 117.971 153.738 117.971 153.962C117.971 154.186 117.898 154.401 117.768 154.559C117.639 154.718 117.463 154.807 117.279 154.808Z" fill="#F2F2F2"/>
<path d="M70.6476 87.6816H67.3213C67.1376 87.6812 66.9616 87.5919 66.8318 87.4333C66.7021 87.2747 66.6292 87.0598 66.6292 86.8357C66.6292 86.6117 66.7021 86.3968 66.8318 86.2382C66.9616 86.0796 67.1376 85.9903 67.3213 85.9898H70.6476C70.8312 85.9903 71.0073 86.0796 71.137 86.2382C71.2668 86.3968 71.3396 86.6117 71.3396 86.8357C71.3396 87.0598 71.2668 87.2747 71.137 87.4333C71.0073 87.5919 70.8312 87.6812 70.6476 87.6816Z" fill="#F2F2F2"/>
<path d="M70.6476 90.6483H67.3213C67.1376 90.6479 66.9616 90.5585 66.8318 90.3999C66.7021 90.2414 66.6292 90.0265 66.6292 89.8024C66.6292 89.5784 66.7021 89.3635 66.8318 89.2049C66.9616 89.0463 67.1376 88.957 67.3213 88.9565H70.6476C70.8312 88.957 71.0073 89.0463 71.137 89.2049C71.2668 89.3635 71.3396 89.5784 71.3396 89.8024C71.3396 90.0265 71.2668 90.2414 71.137 90.3999C71.0073 90.5585 70.8312 90.6479 70.6476 90.6483Z" fill="#F2F2F2"/>
<path d="M70.6476 93.615H67.3213C67.1376 93.6145 66.9616 93.5252 66.8318 93.3666C66.7021 93.208 66.6292 92.9931 66.6292 92.7691C66.6292 92.5451 66.7021 92.3302 66.8318 92.1716C66.9616 92.013 67.1376 91.9237 67.3213 91.9232H70.6476C70.8312 91.9237 71.0073 92.013 71.137 92.1716C71.2668 92.3302 71.3396 92.5451 71.3396 92.7691C71.3396 92.9931 71.2668 93.208 71.137 93.3666C71.0073 93.5252 70.8312 93.6145 70.6476 93.615Z" fill="#F2F2F2"/>
<path d="M203.783 113.426H172.874C172.046 113.425 171.251 113.023 170.666 112.308C170.08 111.594 169.751 110.625 169.75 109.615V86.3945C169.751 85.3841 170.08 84.4154 170.666 83.701C171.251 82.9865 172.046 82.5846 172.874 82.5835H203.783C204.612 82.5846 205.406 82.9865 205.992 83.701C206.577 84.4154 206.907 85.3841 206.908 86.3945V109.615C206.907 110.625 206.577 111.594 205.992 112.308C205.406 113.023 204.612 113.425 203.783 113.426Z" fill="#F2F2F2"/>
<path d="M191.503 110.435H175.047C174.271 110.434 173.527 110.057 172.979 109.388C172.43 108.719 172.121 107.812 172.12 106.866V89.1435C172.121 88.1972 172.43 87.29 172.979 86.6209C173.527 85.9518 174.271 85.5754 175.047 85.5744H201.611C202.387 85.5754 203.13 85.9518 203.679 86.6209C204.228 87.29 204.536 88.1972 204.537 89.1435V94.5367C204.533 98.7517 203.158 102.793 200.715 105.773C198.271 108.754 194.958 110.43 191.503 110.435Z" fill="#F2F2F2"/>
<path d="M198.961 95.2787H177.697C177.513 95.2787 177.336 95.1896 177.206 95.0309C177.076 94.8723 177.003 94.6572 177.003 94.4328C177.003 94.2085 177.076 93.9933 177.206 93.8347C177.336 93.6761 177.513 93.5869 177.697 93.5869H198.961C199.145 93.5869 199.321 93.6761 199.451 93.8347C199.581 93.9933 199.654 94.2085 199.654 94.4328C199.654 94.6572 199.581 94.8723 199.451 95.0309C199.321 95.1896 199.145 95.2787 198.961 95.2787Z" fill="#0089DC"/>
<path d="M181.023 98.6211H177.697C177.513 98.6207 177.337 98.5314 177.207 98.3728C177.077 98.2142 177.005 97.9993 177.005 97.7752C177.005 97.5512 177.077 97.3363 177.207 97.1777C177.337 97.0191 177.513 96.9298 177.697 96.9293H181.023C181.207 96.9298 181.383 97.0191 181.512 97.1777C181.642 97.3363 181.715 97.5512 181.715 97.7752C181.715 97.9993 181.642 98.2142 181.512 98.3728C181.383 98.5314 181.207 98.6207 181.023 98.6211Z" fill="#0089DC"/>
<path d="M186.914 101.964H177.697C177.513 101.964 177.336 101.874 177.206 101.716C177.076 101.557 177.003 101.342 177.003 101.118C177.003 100.893 177.076 100.678 177.206 100.52C177.336 100.361 177.513 100.272 177.697 100.272H186.914C187.098 100.272 187.274 100.361 187.405 100.52C187.535 100.678 187.608 100.893 187.608 101.118C187.608 101.342 187.535 101.557 187.405 101.716C187.274 101.874 187.098 101.964 186.914 101.964Z" fill="#0089DC"/>
<path d="M168.671 90.0963C172.282 90.0963 175.209 86.5256 175.209 82.121C175.209 77.7164 172.282 74.1458 168.671 74.1458C165.06 74.1458 162.132 77.7164 162.132 82.121C162.132 86.5256 165.06 90.0963 168.671 90.0963Z" fill="#3F3D56"/>
<path d="M94.6545 21.4527C95.0873 18.7729 95.9487 16.2233 97.1893 13.9495C98.43 11.6758 100.026 9.72229 101.885 8.2007C105.641 5.12771 110.244 4.00034 114.681 5.0666C116.878 5.59455 118.968 6.64517 120.832 8.15846C122.697 9.67175 124.298 11.6181 125.546 13.8863C126.793 16.1545 127.662 18.7003 128.103 21.3781C128.544 24.056 128.548 26.8136 128.115 29.4934L127.518 29.35C128.361 24.131 127.47 18.7172 125.041 14.2997C122.611 9.88214 118.842 6.82275 114.563 5.7945C110.284 4.76626 105.846 5.8534 102.224 8.81676C98.6025 11.7801 96.0943 16.377 95.2512 21.5961L94.6545 21.4527Z" fill="#3F3D56"/>
<path d="M101.13 34.5745L91.4686 35.0626C91.2622 35.0735 91.0565 35.0273 90.8668 34.9275C90.6771 34.8276 90.5085 34.6767 90.3735 34.4859C90.2402 34.3002 90.1431 34.08 90.0895 33.8419C90.036 33.6039 90.0273 33.3541 90.0642 33.1114C90.8056 28.1804 90.5896 23.1062 89.4334 18.2955C89.3441 17.9275 89.3622 17.5333 89.4846 17.1798C89.6071 16.8264 89.8262 16.5357 90.1047 16.3572C94.0618 13.8496 97.7696 13.7224 101.124 15.9788C101.3 16.0954 101.453 16.2572 101.572 16.4532C101.692 16.6492 101.775 16.8746 101.815 17.1136C102.688 22.3631 102.898 27.7448 102.436 33.0716C102.404 33.4724 102.254 33.8455 102.014 34.1218C101.774 34.3981 101.46 34.559 101.13 34.5745Z" fill="#0089DC"/>
<path d="M100.721 26.862L93.3338 27.2352C93.2428 27.2399 93.1519 27.2226 93.0663 27.1844C92.9807 27.1463 92.9021 27.0879 92.8351 27.0126C92.768 26.9374 92.7137 26.8468 92.6754 26.746C92.637 26.6451 92.6154 26.5361 92.6116 26.425C92.6078 26.314 92.622 26.2031 92.6534 26.0987C92.6848 25.9944 92.7327 25.8986 92.7945 25.8168C92.8562 25.7351 92.9305 25.669 93.0133 25.6223C93.0959 25.5756 93.1854 25.5493 93.2764 25.5448L100.663 25.1716C100.754 25.167 100.845 25.1843 100.931 25.2225C101.016 25.2608 101.095 25.3192 101.162 25.3944C101.229 25.4696 101.283 25.5602 101.321 25.661C101.36 25.7618 101.381 25.8708 101.385 25.9818C101.389 26.0928 101.375 26.2036 101.343 26.3079C101.312 26.4122 101.264 26.5079 101.202 26.5897C101.141 26.6714 101.066 26.7375 100.984 26.7843C100.901 26.831 100.812 26.8574 100.721 26.862Z" fill="#F2F2F2"/>
<path d="M100.62 23.8978L93.2332 24.271C93.0494 24.2803 92.8701 24.2002 92.7348 24.0482C92.5995 23.8963 92.5192 23.685 92.5116 23.4608C92.5039 23.2367 92.5696 23.018 92.6942 22.8529C92.8188 22.6879 92.992 22.5899 93.1758 22.5806L100.563 22.2075C100.747 22.1982 100.926 22.2783 101.061 22.4303C101.196 22.5822 101.277 22.7935 101.284 23.0176C101.292 23.2418 101.226 23.4605 101.102 23.6255C100.977 23.7906 100.804 23.8886 100.62 23.8978Z" fill="#F2F2F2"/>
<path d="M164.355 30.8423H133.446C132.617 30.8412 131.823 30.4393 131.238 29.7248C130.652 29.0104 130.322 28.0417 130.321 27.0313V3.811C130.322 2.80061 130.652 1.83193 131.238 1.11748C131.823 0.403028 132.617 0.00114543 133.446 0H164.355C165.184 0.0011415 165.978 0.403022 166.564 1.11748C167.149 1.83193 167.479 2.80061 167.48 3.811V27.0313C167.479 28.0417 167.149 29.0104 166.564 29.7248C165.978 30.4393 165.184 30.8412 164.355 30.8423Z" fill="#F2F2F2"/>
<path d="M152.074 27.8514H135.619C134.843 27.8503 134.099 27.474 133.55 26.8049C133.002 26.1357 132.693 25.2285 132.692 24.2822V6.56C132.693 5.61372 133.002 4.70651 133.55 4.0374C134.099 3.36829 134.843 2.99193 135.619 2.99089H162.183C162.958 2.99194 163.702 3.36831 164.251 4.03742C164.799 4.70653 165.108 5.61374 165.109 6.56V11.9532C165.105 16.1682 163.73 20.2092 161.287 23.1897C158.843 26.1701 155.53 27.8466 152.074 27.8514Z" fill="#F2F2F2"/>
<path d="M159.533 12.6952H138.268C138.085 12.6952 137.908 12.6061 137.778 12.4474C137.648 12.2888 137.575 12.0736 137.575 11.8493C137.575 11.625 137.648 11.4098 137.778 11.2512C137.908 11.0925 138.085 11.0034 138.268 11.0034H159.533C159.717 11.0034 159.893 11.0925 160.023 11.2512C160.153 11.4098 160.226 11.625 160.226 11.8493C160.226 12.0736 160.153 12.2888 160.023 12.4474C159.893 12.6061 159.717 12.6952 159.533 12.6952Z" fill="#0089DC"/>
<path d="M141.595 16.0377H138.268C138.085 16.0372 137.909 15.9479 137.779 15.7893C137.649 15.6307 137.576 15.4158 137.576 15.1917C137.576 14.9677 137.649 14.7528 137.779 14.5942C137.909 14.4356 138.085 14.3463 138.268 14.3458H141.595C141.778 14.3463 141.954 14.4356 142.084 14.5942C142.214 14.7528 142.287 14.9677 142.287 15.1917C142.287 15.4158 142.214 15.6307 142.084 15.7893C141.954 15.9479 141.778 16.0372 141.595 16.0377Z" fill="#0089DC"/>
<path d="M147.486 19.3801H138.268C138.085 19.3801 137.908 19.291 137.778 19.1324C137.648 18.9737 137.575 18.7586 137.575 18.5342C137.575 18.3099 137.648 18.0947 137.778 17.936C137.908 17.7774 138.085 17.6883 138.268 17.6883H147.486C147.67 17.6888 147.846 17.7781 147.975 17.9367C148.105 18.0953 148.178 18.3102 148.178 18.5342C148.178 18.7582 148.105 18.9731 147.975 19.1317C147.846 19.2903 147.67 19.3796 147.486 19.3801Z" fill="#0089DC"/>
<path d="M133.995 34.862C135.901 31.1212 134.961 26.2037 131.894 23.8783C128.827 21.553 124.795 22.7005 122.889 26.4412C120.982 30.182 121.923 35.0996 124.99 37.4249C128.057 39.7502 132.089 38.6028 133.995 34.862Z" fill="#3F3D56"/>
<path d="M275.221 218H185.388C185.314 218 185.243 217.964 185.19 217.9C185.138 217.836 185.108 217.749 185.108 217.659C185.108 217.569 185.138 217.482 185.19 217.418C185.243 217.354 185.314 217.318 185.388 217.318H275.221C275.295 217.318 275.366 217.354 275.418 217.418C275.471 217.482 275.5 217.569 275.5 217.659C275.5 217.749 275.471 217.836 275.418 217.9C275.366 217.964 275.295 218 275.221 218Z" fill="#CCCCCC"/>
<path d="M41.34 92.8683C38.6574 84.2184 38.9018 74.6229 42.0195 66.1927C45.1372 57.7626 50.8728 51.1884 57.9645 47.9163C65.0561 44.6442 72.923 44.9424 79.8345 48.7451C86.746 52.5478 92.1359 59.5436 94.8185 68.1936L94.2497 68.4561C92.9496 64.2642 90.9854 60.4257 88.4692 57.1597C85.9529 53.8937 82.9339 51.2642 79.5845 49.4214C76.2351 47.5785 72.6209 46.5584 68.9482 46.4192C65.2756 46.28 61.6165 47.0245 58.1797 48.6102C54.743 50.1959 51.5959 52.5917 48.9183 55.6608C46.2407 58.73 44.0849 62.4124 42.574 66.4977C41.0631 70.5831 40.2267 74.9914 40.1126 79.471C39.9985 83.9507 40.6089 88.4138 41.9089 92.6057L41.34 92.8683Z" fill="#3F3D56"/>
<path d="M66.3485 58.3295H56.6792C56.4726 58.3301 56.2686 58.2736 56.0825 58.1642C55.8964 58.0549 55.733 57.8955 55.6046 57.6982C55.4777 57.5058 55.3882 57.2809 55.3428 57.0404C55.2973 56.7998 55.2972 56.5498 55.3423 56.3091C56.2576 51.3815 56.2058 46.2597 55.1911 41.3611C55.1192 41.0144 55.1412 40.6487 55.254 40.3186C55.3668 39.9885 55.5642 39.7118 55.8167 39.5301C59.3193 37.0432 63.0597 37.1191 66.9338 39.7562C67.1171 39.8782 67.2753 40.0497 67.3961 40.2576C67.5169 40.4654 67.5972 40.7042 67.6309 40.9557C68.3204 46.2328 68.3453 51.6075 67.7047 56.8938C67.6591 57.2927 67.4967 57.6579 67.2473 57.9219C66.998 58.1858 66.6787 58.3307 66.3485 58.3295Z" fill="#0089DC"/>
<path d="M61.8306 46.8897H58.5044C58.3207 46.8892 58.1447 46.7999 58.0149 46.6413C57.8852 46.4827 57.8123 46.2678 57.8123 46.0438C57.8123 45.8197 57.8852 45.6048 58.0149 45.4463C58.1447 45.2877 58.3207 45.1983 58.5044 45.1979H61.8306C62.0143 45.1983 62.1904 45.2877 62.3201 45.4463C62.4499 45.6048 62.5227 45.8197 62.5227 46.0438C62.5227 46.2678 62.4499 46.4827 62.3201 46.6413C62.1904 46.7999 62.0143 46.8892 61.8306 46.8897Z" fill="#F2F2F2"/>
<path d="M65.8977 50.2322H58.5044C58.3204 50.2322 58.144 50.143 58.014 49.9844C57.8839 49.8257 57.8109 49.6106 57.8109 49.3862C57.8109 49.1619 57.8839 48.9467 58.014 48.7881C58.144 48.6294 58.3204 48.5403 58.5044 48.5403H65.8977C66.0814 48.5408 66.2574 48.6301 66.3871 48.7887C66.5169 48.9473 66.5898 49.1622 66.5898 49.3862C66.5898 49.6103 66.5169 49.8252 66.3871 49.9838C66.2574 50.1424 66.0814 50.2317 65.8977 50.2322Z" fill="#F2F2F2"/>
<path d="M34.5338 92.401H3.62445C2.79608 92.3999 2.0019 91.998 1.41616 91.2836C0.830414 90.5691 0.500934 89.6004 0.5 88.59V65.3697C0.500934 64.3594 0.830414 63.3907 1.41616 62.6762C2.0019 61.9618 2.79608 61.5599 3.62445 61.5587H34.5338C35.3622 61.5599 36.1564 61.9618 36.7421 62.6762C37.3279 63.3907 37.6573 64.3594 37.6583 65.3697V88.5901C37.6573 89.6004 37.3279 90.5691 36.7421 91.2836C36.1564 91.998 35.3622 92.3999 34.5338 92.401Z" fill="#F2F2F2"/>
<path d="M22.253 89.4101H5.79719C5.02137 89.4091 4.27757 89.0327 3.72897 88.3636C3.18038 87.6945 2.87178 86.7873 2.87088 85.841V68.1188C2.87178 67.1725 3.18038 66.2653 3.72897 65.5961C4.27757 64.927 5.02137 64.5507 5.79719 64.5496H32.3612C33.137 64.5507 33.8808 64.9271 34.4293 65.5962C34.9779 66.2653 35.2865 67.1725 35.2873 68.1188V73.512C35.2834 77.727 33.9089 81.768 31.4653 84.7484C29.0218 87.7289 25.7087 89.4054 22.253 89.4101Z" fill="#F2F2F2"/>
<path d="M29.7112 74.2539H8.44707C8.26315 74.2539 8.08675 74.1648 7.9567 74.0062C7.82664 73.8475 7.75358 73.6324 7.75358 73.4081C7.75358 73.1837 7.82664 72.9686 7.9567 72.8099C8.08675 72.6513 8.26315 72.5622 8.44707 72.5622H29.7112C29.8951 72.5622 30.0715 72.6513 30.2016 72.8099C30.3316 72.9686 30.4047 73.1837 30.4047 73.4081C30.4047 73.6324 30.3316 73.8475 30.2016 74.0062C30.0715 74.1648 29.8951 74.2539 29.7112 74.2539Z" fill="#0089DC"/>
<path d="M11.7733 77.5964H8.44707C8.26339 77.5959 8.08736 77.5066 7.95761 77.348C7.82786 77.1894 7.755 76.9745 7.755 76.7505C7.755 76.5265 7.82786 76.3116 7.95761 76.153C8.08736 75.9944 8.26339 75.905 8.44707 75.9046H11.7733C11.957 75.905 12.133 75.9944 12.2628 76.153C12.3925 76.3116 12.4654 76.5265 12.4654 76.7505C12.4654 76.9745 12.3925 77.1894 12.2628 77.348C12.133 77.5066 11.957 77.5959 11.7733 77.5964Z" fill="#0089DC"/>
<path d="M17.6646 80.9389H8.44707C8.26339 80.9384 8.08736 80.8491 7.95761 80.6905C7.82786 80.5319 7.755 80.317 7.755 80.0929C7.755 79.8689 7.82786 79.654 7.95761 79.4954C8.08736 79.3368 8.26339 79.2475 8.44707 79.247H17.6646C17.8485 79.247 18.0249 79.3362 18.155 79.4948C18.285 79.6534 18.3581 79.8686 18.3581 80.0929C18.3581 80.3173 18.285 80.5325 18.155 80.6911C18.0249 80.8497 17.8485 80.9389 17.6646 80.9389Z" fill="#0089DC"/>
<path d="M46.738 95.6791C48.6444 91.9383 47.7037 87.0208 44.6368 84.6954C41.5699 82.3701 37.5382 83.5175 35.6318 87.2583C33.7253 90.9991 34.6661 95.9167 37.733 98.242C40.7999 100.567 44.8316 99.4199 46.738 95.6791Z" fill="#3F3D56"/>
<path d="M99.488 80.5797H89.8186C89.6121 80.5802 89.4081 80.5237 89.2219 80.4143C89.0358 80.305 88.8724 80.1457 88.744 79.9483C88.6171 79.756 88.5276 79.5311 88.4822 79.2905C88.4367 79.0499 88.4366 78.7999 88.4817 78.5593C89.3954 73.6403 89.3454 68.5278 88.3359 63.6368C88.2643 63.2853 88.2885 62.9149 88.4051 62.5817C88.5216 62.2486 88.724 61.9709 88.9817 61.7907C93.6789 58.5112 97.3982 58.6017 100.352 62.0676C100.559 62.3149 100.696 62.6368 100.741 62.9858C101.459 68.3331 101.494 73.7837 100.844 79.144C100.799 79.5428 100.636 79.908 100.387 80.172C100.137 80.436 99.8181 80.5808 99.488 80.5797Z" fill="#FF6584"/>
<path d="M95.5781 69.5107H92.2519C92.0682 69.5102 91.8922 69.4209 91.7624 69.2623C91.6327 69.1037 91.5598 68.8888 91.5598 68.6648C91.5598 68.4407 91.6327 68.2258 91.7624 68.0672C91.8922 67.9087 92.0682 67.8193 92.2519 67.8189H95.5781C95.7618 67.8193 95.9378 67.9087 96.0676 68.0672C96.1973 68.2258 96.2702 68.4407 96.2702 68.6648C96.2702 68.8888 96.1973 69.1037 96.0676 69.2623C95.9378 69.4209 95.7618 69.5102 95.5781 69.5107Z" fill="#F2F2F2"/>
<path d="M99.6452 72.8531H92.2519C92.0679 72.8531 91.8915 72.764 91.7615 72.6054C91.6314 72.4467 91.5583 72.2316 91.5583 72.0072C91.5583 71.7829 91.6314 71.5677 91.7615 71.4091C91.8915 71.2504 92.0679 71.1613 92.2519 71.1613H99.6452C99.8288 71.1618 100.005 71.2511 100.135 71.4097C100.264 71.5683 100.337 71.7832 100.337 72.0072C100.337 72.2313 100.264 72.4462 100.135 72.6048C100.005 72.7633 99.8288 72.8527 99.6452 72.8531Z" fill="#F2F2F2"/>
</svg>
