<svg width="48" height="49" viewBox="0 0 48 49" fill="none" xmlns="http://www.w3.org/2000/svg">
<rect y="0.5" width="48" height="48" rx="8.62921" fill="#F2F2F2"/>
<path d="M14.855 39.9762H7.82031V18.8721H14.855V39.9762ZM11.3391 16.0582C9.39327 16.0582 7.82031 14.4811 7.82031 12.5395C7.82031 10.5979 9.39608 9.02356 11.3391 9.02356C13.2778 9.02356 14.855 10.6007 14.855 12.5395C14.855 14.4811 13.2778 16.0582 11.3391 16.0582ZM40.1799 39.9762H33.4167V29.7055C33.4167 27.2561 33.3703 24.1059 29.9008 24.1059C26.3792 24.1059 25.8375 26.7735 25.8375 29.5283V39.9762H19.0758V18.8566H25.5674V21.7423H25.6589C26.5621 20.0821 28.7696 18.3319 32.0618 18.3319C38.9136 18.3319 40.1799 22.706 40.1799 28.3929V39.9762Z" fill="#0089DC"/>
</svg>
