<svg width="48" height="49" viewBox="0 0 48 49" fill="none" xmlns="http://www.w3.org/2000/svg">
<rect y="0.5" width="48" height="48" rx="8.85048" fill="#F2F2F2"/>
<g clip-path="url(#clip0_413_24)">
<path d="M35.5521 12.7975C34.0394 11.2702 32.2378 10.0594 30.2523 9.23574C28.2668 8.41208 26.1372 7.99204 23.9876 8.00011C14.9807 8.00011 7.64025 15.3385 7.632 24.3475C7.632 27.2329 8.38688 30.04 9.81206 32.5253L7.5 41.0001L16.1707 38.7272C18.5684 40.0353 21.2564 40.7198 23.9876 40.7176H23.9959C33.0049 40.7176 40.3433 33.3792 40.3515 24.3619C40.3533 22.2129 39.93 20.0848 39.106 18.1001C38.2819 16.1153 37.0755 14.3132 35.5521 12.7975ZM23.9876 37.9497C21.5522 37.9478 19.1618 37.2925 17.0659 36.0522L16.5709 35.7552L11.427 37.1041L12.8006 32.086L12.4789 31.5683C11.1172 29.4033 10.3971 26.8968 10.4019 24.3392C10.4019 16.8606 16.5008 10.7597 23.9959 10.7597C25.7815 10.7565 27.55 11.1068 29.1996 11.7904C30.8492 12.4739 32.3471 13.4772 33.6071 14.7424C34.8712 16.0029 35.8734 17.5011 36.5559 19.1507C37.2383 20.8002 37.5876 22.5685 37.5836 24.3537C37.5754 31.8591 31.4766 37.9497 23.9876 37.9497ZM31.4436 27.7733C31.0373 27.5691 29.0304 26.5812 28.653 26.4409C28.2776 26.3069 28.0033 26.2367 27.7352 26.6451C27.4609 27.0514 26.6771 27.9775 26.442 28.2436C26.2069 28.5179 25.9635 28.5488 25.5551 28.3467C25.1488 28.1404 23.8309 27.7114 22.2716 26.3151C21.0548 25.2323 20.2401 23.8917 19.9967 23.4854C19.7616 23.077 19.974 22.8584 20.1782 22.6542C20.3576 22.4727 20.5845 22.1757 20.7887 21.9406C20.9949 21.7054 21.063 21.5322 21.1971 21.2599C21.3311 20.9836 21.2672 20.7484 21.1661 20.5442C21.063 20.3401 20.2483 18.325 19.9039 17.5124C19.5739 16.7101 19.2377 16.8214 18.9861 16.8111C18.7509 16.7967 18.4766 16.7967 18.2023 16.7967C17.9952 16.8019 17.7914 16.8499 17.6036 16.9376C17.4159 17.0252 17.2483 17.1507 17.1112 17.3061C16.7359 17.7145 15.6861 18.7024 15.6861 20.7175C15.6861 22.7326 17.1504 24.6692 17.3567 24.9436C17.5588 25.2179 20.2318 29.3408 24.3341 31.1146C25.3035 31.5374 26.0666 31.7869 26.6627 31.9767C27.6424 32.2902 28.5272 32.2427 29.2326 32.1417C30.0163 32.0221 31.6478 31.1517 31.9922 30.1967C32.3304 29.2397 32.3304 28.423 32.2273 28.2518C32.1263 28.0786 31.8519 27.9775 31.4436 27.7733Z" fill="#0089DC"/>
</g>
<defs>
<clipPath id="clip0_413_24">
<rect width="33" height="33" fill="white" transform="translate(7.5 8)"/>
</clipPath>
</defs>
</svg>
